/* XPM */
static char *result[] = {
/* columns rows colors chars-per-pixel */
"50 50 193 2 ",
"   c #365416",
".  c #375519",
"X  c #3A571B",
"o  c #3B591E",
"O  c #385317",
"+  c #3B5B20",
"@  c #3A652B",
"#  c #43612A",
"$  c #4A6935",
"%  c #4F6D3A",
"&  c #476833",
"*  c #5B6D3E",
"=  c #47733E",
"-  c #51703F",
";  c #6B6038",
":  c #547141",
">  c #587647",
",  c #577748",
"<  c #5A7749",
"1  c #567C4C",
"2  c #5C7A4D",
"3  c #5E7E52",
"4  c #547F50",
"5  c #6A6D46",
"6  c #766643",
"7  c #7B6443",
"8  c #7B6D4C",
"9  c #6C724B",
"0  c #61794D",
"q  c #62774C",
"w  c #76734F",
"e  c #617F54",
"r  c #6B7B54",
"t  c #757652",
"y  c #875E40",
"u  c #985B45",
"i  c #A05643",
"p  c #B4564A",
"a  c #B45B4E",
"s  c #BB524B",
"d  c #BB5C50",
"f  c #856447",
"g  c #846C4D",
"h  c #8B6B4E",
"j  c #8B6549",
"k  c #92644B",
"l  c #9B654D",
"z  c #90694E",
"x  c #926247",
"c  c #8D6F51",
"v  c #936C52",
"b  c #9B6A52",
"n  c #817252",
"m  c #9B745B",
"M  c #A16752",
"N  c #A36B55",
"B  c #A36F58",
"V  c #B26454",
"C  c #B06C5A",
"Z  c #CC4E4B",
"A  c #C5544D",
"S  c #C25651",
"D  c #C45E55",
"F  c #CB5B56",
"G  c #CF5451",
"H  c #D35C59",
"J  c #DB5D5D",
"K  c #D15555",
"L  c #E25B5D",
"P  c #ED5B5F",
"I  c #C76258",
"U  c #D5625E",
"Y  c #D8635F",
"T  c #DF5F61",
"R  c #EE5E62",
"E  c #F45C62",
"W  c #CF6964",
"Q  c #DB6462",
"!  c #D76966",
"~  c #E36465",
"^  c #EB6265",
"/  c #EE666A",
"(  c #EE696D",
")  c #E26C6B",
"_  c #F2666B",
"`  c #FB656D",
"'  c #F16A6E",
"]  c #ED6D70",
"[  c #F46C72",
"{  c #FA6971",
"}  c #EE7679",
"|  c #E17572",
" . c #F17175",
".. c #F17679",
"X. c #F27A7D",
"o. c #FA757C",
"O. c #5D8156",
"+. c #5D875C",
"@. c #5F895D",
"#. c #628156",
"$. c #688057",
"%. c #65845B",
"&. c #69865E",
"*. c #66885E",
"=. c #76825D",
"-. c #688660",
";. c #658E65",
":. c #6C8B64",
">. c #6F8D68",
",. c #728C66",
"<. c #718E69",
"1. c #669067",
"2. c #679168",
"3. c #6B916A",
"4. c #73916D",
"5. c #7A936D",
"6. c #779371",
"7. c #7B9573",
"8. c #7F9778",
"9. c #7E9979",
"0. c #829976",
"q. c #839B7C",
"w. c #899F7E",
"e. c #819778",
"r. c #85A17E",
"t. c #F67D81",
"y. c #869D80",
"u. c #8A9E83",
"i. c #8DA185",
"p. c #8EA188",
"a. c #92A38B",
"s. c #97AA8D",
"d. c #92A486",
"f. c #9EAE93",
"g. c #96A790",
"h. c #9FB198",
"j. c #A0B095",
"k. c #A8B79E",
"l. c #AEBCA4",
"z. c #AAB7A1",
"x. c #B3BFAA",
"c. c #B1BBA6",
"v. c #CE8C84",
"b. c #D88A87",
"n. c #EF8688",
"m. c #F48385",
"M. c #F58A8C",
"N. c #F98B91",
"B. c #E59C9B",
"V. c #F79293",
"C. c #F49D9E",
"Z. c #F89B9B",
"A. c #DFA29E",
"S. c #F49FA1",
"D. c #EDA4A4",
"F. c #E9A8A8",
"G. c #FAA4A3",
"H. c #EEBABB",
"J. c #F5BBBC",
"K. c #FBB0B5",
"L. c #B5C1AD",
"P. c #BBC6B4",
"I. c #BEC8B7",
"U. c #C6C7B7",
"Y. c #C2CCBC",
"T. c #C7D0BF",
"R. c #CAD2C4",
"E. c #CED6C8",
"W. c #C7D0C2",
"Q. c #D1D8CB",
"!. c #D1D6CB",
"~. c #D9DED3",
"^. c #D6DCD0",
"/. c #EBDADB",
"(. c #F6D5D4",
"). c #EAC7C5",
"_. c #DEE3D9",
"`. c #D9E0D6",
"'. c #E2E5DD",
"]. c #EAECE6",
"[. c #EDEDED",
"{. c #E7E5E3",
"}. c #F0EFEF",
"|. c #FBE9E9",
" X c #EFF1ED",
".X c #F0F1EE",
"XX c #F4F4F4",
"oX c #FBF5F5",
"OX c #F8F8F7",
"+X c #F7F7F8",
"@X c #F5FBFB",
"#X c #FDFDFD",
"$X c #F7F8F5",
/* pixels */
"#X#X#X#X#X#X#X#X#X#X#X#X#X#X#X#X#X#X#X#X#X#X#X#X#X#X#X#X#X#X#X#X#X#X#X#X#X#X#X#X#X#X#X#X#XXX#X#X+X#X",
"#X#X#X#X#X#X#X#X#X#X#X#X#X#X#X#X#X#X#X#X#X#X#X#X#X#X#X#X#X#X#X#X#X#X#X#X#X#X#X#X#X#X#X#XXXOX+X+XXX#X",
"#X#X#X#X#X#X#X#X#X#X#X#X#X#X#X#X#X#X#X#X#X#X#X#X#X#X#X#X#X#X#X#X#XOXOX#X#X#X#X#X#X#X#XOX[.OX#XOXOX#X",
"#X#X#X#X#X#X#X#X#X#X#X#X#X#X#X#X#X#X#X#X#X#X#X#X#X#X#X#X#X#X#X#X#XOXOX#X#X#X#X#X#X#X#XOX#X#X#X#X#XXX",
"#X#X#X#X#X#X#X#X#X#X#X#X#X#X#XXXXXOX#X#X#X#X#X#X#X#X#X#X#X#X#X#X#X#X#XOX[.XXOXXXOXXXXXXXOXXXOX#XOXXX",
"#X#X#X#X#X#X#X#X#X#XOX#X#XOX#X#X#X#X#X#X#X#X#X#X#X#X#X#X#X#X#X#X#X#X#XOX[.XX#XOX#XOXXXXXXXXXXX#X#X#X",
"#X#X#X#X#X#X#X#XOXOX[.XX#X#X.XP.l.R.#X#X#X#X#X#X#X#X#X#X#X#X#X#X#X#X#X#X#X#X#X#X#X#X#X#X#X#XXXXXXX}.",
"#X#X#X#X#X#X#X#XXXXXOX#X#XL.,.:.:.#.0.{.#X#X#X#X#X#XOXOX#X#X#X#X#X#X#X#X#X#X#X#X#X#X#X#X#XOXOX#XXX[.",
"#X#XOX#X#X#X#X#XOXOX#X'.0.#.6.q.p.g.4.%._.#XOX#X#X#X#X#X#X#XOX#X#X#X#X#X~.s.q.f.~.#X#X#X#X#X#X#X#X+X",
"#X#X#X#X#X@X#XXX#X#X~.:.-.4.>.>.>.7.a.4.*. X#X#X#X#XOXOX#X#X#X#X#X#X#Xk.e *.:.*.%.j.OX#XOX#X#X#X+XOX",
"#X+XOX[.}.}.XXXX#XXX<.4.4.<.<.<.<.:.4.0.-.0.OX#X#XXX[.XX#X#XOX#XOX#Xj.3 4.4.<.<.<.O.0.}.OX#X#X#X#X#X",
"#XXX[.}.+X#X}.[.#XL.e < %.4.<.3.<.<.>.<.4.%.f.#X#XXXXX#XOX#X#XOX#Xl.#.4.<.<.>.6.q.u.*.p.#XXX+X+XXX#X",
"+XXXXXXXXXXXXX}.OXz.&   o 2 4.>.>.<.>.<.<.<.#.Y.#X X+X#X#X#XOX#XT.e 4.>.<.>.0.p.0.9.9.#.E.#X+X+XXXOX",
"+XOX#X#XXXXX#XOX#XY.- o o o 2 4.>.<.<.>.>.<.>.,.[.+X#X#X#X#X#X'.%.<.<.<.>.4.8.>.<.3 2 #.x.#X+XXX}.OX",
"#X#X#X#X#XOX#XOXOX+Xi.& o o o , 4.>.>.<.<.6.<.*.d./.A.A.(.#XXX,.:.4.<.>.>.<.>.4.: X o , W.#XXXXXXX#X",
"#X#XOX+XXXXXXXXXXX#X X8.$ + o   % <.4.>.>.4.5.<.*.V K A F b.0.*.4.4.>.<.>.<.<.% X o + <.XXXX[.XXXX#X",
"#X#X+X#X#XOX#X#X+XOX#X[.h.3 & # . # %.4.4.4.4.4.2.g H U H 7 *.6.6.<.<.>.4.>.$ X o o % !.#XXX[.[.OX#X",
"#X#X#X@XXXXXXXOXXXXXXX#X#X XP.s.5.2 & 2 -.-.:.4.4.0 8 x g 2.6.4.4.<.4.6.#.# O o + - P.#XXX}.[.{.XXOX",
"#XXX{.[.{.[.XXOX#X#X#X].R.l.s.0.,.<.&.%.%.#.#.#.2 *.3.*.2 %.#.e e 3 > $ X + @ = 7.~.#XXXXXXXXXOX#X#X",
"OXXXXXXXXX#X#X#X'.x.q.:.#.*.*.:.<.<.<.4.4.4.4.>.e 4.<.4.2 %.:.-.%.e < $ $ * l v.|.#X#XXXXX#X#X#X#X#X",
"#X#XXX#X#XXXY.r.&.#.:.3.4.4.<.<.<.4.4.5.4.4.4.<.2 3.4.<.< 4.7.4.<.4.6.6.:.%.c I ( N.J.{.+X#X#X#X#X#X",
"#XOX#XXXk.<.%.-.4.4.<.<.>.<.<.4.4.4.4.4.,.%.#.1 * 5 $.: 1 $.&.4.7.4.>.:.>.4.2.-.w a E  .D.OX#X#X#X#X",
"#X#X.X5.O.<.4.<.>.<.<.<.<.>.<.<.4.4.*.e $.O.0 b ! / Y D 7 O.#.2 *.6.7.<.>.>.<.<.3.*.w U ` C.#X#X#X#X",
"#X#Xf.e 6.>.<.<.<.<.>.>.<.<.<.<.$.2 $.;.#.h Y { ' ( ' [ ^ u r 2.e 2 -.6.6.<.<.<.<.4.3.#.V o.#X#X#X#X",
"#XOX,.<.<.>.<.<.:.>.6.>.<.<.%.3 %.4.3.9 a _ ' ( ( ( ( ( ' ' p 5 3.:.3 3 <.6.<.<.<.<.u.q.O.m #X#X#X#X",
"#X_.%.4.<.<.:.<.8.9.6.4.&.3 %.<.4.;.6 H ' ( ( ' ( ( ( ( ( ( ' S 9 4.<.%.2 :.<.<.<.<.<.p.p.O.l.#X#X#X",
"#XE.#.4.>.<.q.u.8.4.;.2 e <.4.,.;.f L [ ( ' ( ( ' ( ' ' ( ( ' ' p 3 4.<.:.2 *.<.<.<.<.>.a.8.-.OX#X#X",
"#XR.#.3.4.p.u.6.>.%.u j 2.<.<.3.9 Y t.( ^ ' ( ' ( ( ( ( ( _ _  .] w >.<.<.<.3 3 4.<.3.>.7.u.#.'.#X#X",
"#XY.O.8.u.8.-.#.8 d T z >.<.<.3.g R  .m.m. .^ / ' ' ' ^ / ..m.m.[ f 2.<.>.<.:.; e 4.>.<.<.7.#.E.#X#X",
"#XP.&.u.4.3 5.U.W F H h 2.<.,.2.j _ / / ..M.N.../ ^ ( m.V.M...( ` l 1.<.<.>.1.k i #.4.<.<.<.#.R.#X#X",
"#XL.*.-.*.L.#X#XW d F g 3.<.<.2.k / ( ( / / ..V.M.M.Z.M. ./ ^ ( { l 1.<.>.<.1.z G u #.4.<.4.%.Q.#X#X",
"#XQ.2 w.].#X#X|.! D H h 2.<.<.;.k _ ( ( ( ' / ^ m.G.' ^ / ( ( ( { M ;.<.<.<.;.B T d y ;.4.4.%._.#X#X",
"#X#X'.#X#XXX+XoX! I _ m ;.<.<.2.k _ ( ] _ ( ] _ [ m.^ ] ( ' ( ( ` M ;.4.<.<.1.b ~ a s 6 ;.4.:.[.#X#X",
"#X#X#X#X#XOXOX#XD.L { m ;.,.<.>.j _ [ / ( ( ( / } t./ ( ( ( ( / ` N ;.<.<.<.1.b / Q s v.0.3 q.#X#X#X",
"#X#X#X#X#X#X#XOX#XC.E C ;.,.<.2.f H ) / [ / ( / ..X./ ( ( ( ( [ ` b ;.<.>.<.;.N { [ Z F.OX,.P.#X#X#X",
"#X#X#XOX+X#X#XXXXX#XK.F *.4.<.3.f T Q Q ~ [ [ /  .../ ' '  .} | ~ z ;.<.<.<.;.C ` R n./.#X#X#X#XOX#X",
"#X#X#XOX#X#X#X#XOX#X#X(.=.>.<.3.8 R ] Q U Q ( ( [  ./ ) ) ! Q Q / v >.>.>.4.*.D [ F.[.XXXX#X#X#X#X#X",
"#X#X#X#XOX#X#XOX#X#X#X#XR.e 4.6.r H [ / ~ Q U Q / ) U Q Q / ( ' ` w 3.<.>.4.t B./.@XXXXXXX#XXX$X#X#X",
"#X#X#X#X#X#X#X#X#X#X#XOX#XL.3 4.*.D [ ( ( ' / Q U Q ~ ( ' ' ' ' / t 3.<.6.3 z.#X[.XXXX+XOX#X+XXXOX#X",
"#X#X#X#X#X#X#X#X#X#XOXOXOX#X!.:.+.M { ( ( ( ' ' / ( ( ( ( ( ( ' U #.6.;.3 f.+X[.XXXXXXOX#XOX+XOXOX#X",
"#X#X#X#X#X#X#X#X#X#X#X#X#XOX#X[.i.5 L _ ( ( ( ( [  ./ ( ( ( ( { V @.%.5.R.+XXXXXOX#X#X#X#X[.[.#X#X#X",
"#X#X#X#X#X#X#X#X#X#X#X#X#XOX#X#X#X`.).X.^ ( ( / } X./ ' ( ' / P 6 >.c.XX#X$XXX#X#X#X#X#X#XXXOX#X#X#X",
"#X#X#X#X#X#X+X#XXX#X#X#X#X#X#X#X#X#X#XoXC.^ _ _ X.X./ ] _ R ..J.Q.XX#XXX+X#XOX#X#X#X#X#X#X[.+X#X#X#X",
"#XXX#XOXXXXXXXOX}.#XOXOX#X#X#X#XOXXX+X#X#X(...P ..X.^ ^ t.J.#X#X#X#X#X#XOX#X#X#X#X#X#XOXOX+XOX#X#X#X",
"#X#X#XOXOX#X#X#X#X#X#X[.[.[.XXXX#XXX+X#XXX#XoXS.......J.#X#X#X#X#X#X#X#X#X#X#X#X#X#X#XOX#XOX#X#X#X#X",
"#X#X#X#X#X#X#XOXXXXXXXXXXXOXOXOXOX#XOXOXOX#X#X#X|.(.#X#X#X#X#X#X#X#X#X#X#X#X#X#X#X#XOX#X#X#X#X#X#X#X",
"OX#X#X#X#XXXOX+X+XXX}.XX#X#XXX#XXX#X#X#X#X#X#X#X#X#X#X#X#XOX#X#X#X#X#X#X#X#X#X#X#X#X#X#X#X#X#X#X#X#X",
"#X#X#X#XXX+X+XOXXX#XOXOX#XOX}.#X#X#X#X#X#X#X#X#X#X#X#X#X#X#X#X#X#X#X#X#X#X#X#X#X#XOX#X#X#X#X#X#X#X#X",
"#X#X#X+XXX#X#XOX#X#X#X#X#XXXXX#XOX#X#X#X#X#X#X#X#X#X#X#X#X#X#X#X#X#X#X#XOX#X#X#X#X#X#X#X#X#X#X#X#X#X",
"OXOX#X#X#X#X#X#X#XOX+X#XXXOXOX#X#X#X#X#X#XOX#X#X#X#X#X#X#X#X#X#X#X#X#X#X#X#X#X#X#X#X#X#X#XOX#X#X#X#X"
};
