/* XPM */
static char *_b83eddc80f246c5993d2969d62c6162YBJ4jHrEEr925gHA[] = {
/* columns rows colors chars-per-pixel */
"50 50 214 2 ",
"   c #020004",
".  c #181B17",
"X  c #131313",
"o  c #1A2316",
"O  c #19300E",
"+  c #222A1D",
"@  c #25361C",
"#  c #261F2A",
"$  c #282E25",
"%  c #2D3A25",
"&  c #353C31",
"*  c #540515",
"=  c #750515",
"-  c #761526",
";  c #711323",
":  c #552A36",
">  c #6E2937",
",  c #7B2736",
"<  c #7B313E",
"1  c #672936",
"2  c #2D471E",
"3  c #334828",
"4  c #3B532D",
"5  c #39572A",
"6  c #3E473A",
"7  c #374E2C",
"8  c #3F652A",
"9  c #44573B",
"0  c #41632F",
"q  c #4B6A3B",
"w  c #476736",
"e  c #4D7339",
"r  c #4A7733",
"t  c #50793B",
"y  c #3C3142",
"u  c #403546",
"i  c #6B3341",
"p  c #793C48",
"a  c #49464A",
"s  c #4B5945",
"d  c #515C4B",
"f  c #555456",
"g  c #524858",
"h  c #67434D",
"j  c #774752",
"k  c #6D545D",
"l  c #4F6345",
"z  c #546849",
"x  c #537640",
"c  c #5B6953",
"v  c #5F7354",
"b  c #626A5D",
"n  c #667B5A",
"m  c #63755A",
"M  c #6C5C64",
"N  c #6A666D",
"B  c #6A6A6B",
"V  c #6D7768",
"C  c #6E6972",
"Z  c #726D74",
"A  c #766D7A",
"S  c #7B6C74",
"D  c #767279",
"F  c #7A747C",
"G  c #787679",
"H  c #707171",
"J  c #98081C",
"K  c #880414",
"L  c #AC081D",
"P  c #970E22",
"I  c #881729",
"U  c #931427",
"Y  c #BC0C23",
"T  c #A81428",
"R  c #C6021A",
"E  c #C30D24",
"W  c #D8142C",
"Q  c #D51C32",
"!  c #CC192F",
"~  c #E2172F",
"^  c #EB1C34",
"/  c #E51931",
"(  c #F81B35",
")  c #DE2037",
"_  c #DF2138",
"`  c #E22137",
"'  c #E32138",
"]  c #EC253C",
"[  c #EE2037",
"{  c #F4243C",
"}  c #F8273F",
"|  c #805963",
" . c #80797F",
".. c #54813D",
"X. c #508236",
"o. c #5C953E",
"O. c #5B8C42",
"+. c #5F9543",
"@. c #65974A",
"#. c #6B855D",
"$. c #67A348",
"%. c #6EA351",
"&. c #73AE53",
"*. c #70A554",
"=. c #79B55B",
"-. c #7DBB5C",
";. c #76B655",
":. c #6FB04D",
">. c #718B63",
",. c #7D9B6C",
"<. c #79956A",
"1. c #6D8461",
"2. c #7AA166",
"3. c #7EC05C",
"4. c #809F71",
"5. c #86A674",
"6. c #8CB078",
"7. c #91B67D",
"8. c #81AF69",
"9. c #81C35F",
"0. c #84C363",
"q. c #89CC66",
"w. c #8BCC68",
"e. c #8CD267",
"r. c #9AD67A",
"t. c #94CF75",
"y. c #A0DF7E",
"u. c #7F7982",
"i. c #827D84",
"p. c #887C86",
"a. c #858187",
"s. c #8A858D",
"d. c #8D888E",
"f. c #868289",
"g. c #95868C",
"h. c #8E8B91",
"j. c #928D94",
"k. c #9B8990",
"l. c #959197",
"z. c #959398",
"x. c #9A969C",
"c. c #9C999E",
"v. c #A3979C",
"b. c #96BA83",
"n. c #A4BA98",
"m. c #9B93A0",
"M. c #A29CA5",
"N. c #9BA1A4",
"B. c #A9A6AB",
"V. c #A7A6AB",
"C. c #B1AEB3",
"Z. c #B5AFB8",
"A. c #AAB4B6",
"S. c #B4B2B5",
"D. c #B9B5BB",
"F. c #BBBABC",
"G. c #B5BBBE",
"H. c #AEB2AC",
"J. c #9CC587",
"K. c #A2CC8B",
"L. c #A1D884",
"P. c #AAD791",
"I. c #B5E999",
"U. c #BCFB9A",
"Y. c #B7F298",
"T. c #ACE98C",
"R. c #BCEFA1",
"E. c #BFF4A2",
"W. c #BEF8A0",
"Q. c #C0FE9F",
"!. c #C1F5A4",
"~. c #C3F9A6",
"^. c #C6FCA9",
"/. c #CBFFAD",
"(. c #D2FFB3",
"). c #D9FFB8",
"_. c #CFFFB0",
"`. c #BEBEC0",
"'. c #B5BCC0",
"]. c #C2BEC4",
"[. c #C5BDC9",
"{. c #BBC4C6",
"}. c #C4C2C5",
"|. c #C9C7CA",
" X c #CCCACC",
".X c #C7C4C9",
"XX c #CBC8D1",
"oX c #CAD8D8",
"OX c #D5D4D6",
"+X c #DDDCDD",
"@X c #D5D9DC",
"#X c #D1CFD2",
"$X c #DFDDE0",
"%X c #E0DBE2",
"&X c #DCEAE9",
"*X c #E5E4E5",
"=X c #EDEDED",
"-X c #E7E7EC",
";X c #EDEAF0",
":X c #F0EEF2",
">X c #ECF8F7",
",X c #EBF7F6",
"<X c #F4F4F4",
"1X c #F9F7F9",
"2X c #F6FFFF",
"3X c #FDFDFD",
"4X c #FCFCFC",
"5X c #FEFEFE",
"6X c white",
"7X c #FFFEFE",
"8X c #FEFDFD",
"9X c #FDFDFD",
"0X c #F7F7F7",
"qX c #EFF0EF",
/* pixels */
"5X5X5X5X5X5X5X5X5X5X5X5X5X5X5X5X5X5X5X5X5X5X5X5X5X5X5X5X5X1X4X4X5X5X5X5X5X5X5X5X5X5X5X5X1X0X1X5X1X5X",
"5X5X5X5X5X5X5X5X5X5X5X5X5X5X5X5X5X5X5X5X5X5X5X5X5X5X1X5X5X5X5X2X>X>X5X5X5X5X5X5X5X5X5X5X<X1X1X1X0X5X",
"5X5X5X5X5X5X5X5X5X5X5X5X5X5X5X5X5X5X5X5X5X5X5X5X1X5X5X>X{.g.| p < < j @X5X5X5X5X5X5X5X1X=X1X5X1X1X4X",
"5X5X5X5X5X5X5X5X1X5X5X5X5X5X5X5X1X5X5X5X5X5X5X4X5X,Xd.< P Y W ~ ^ ^ R M 5X4X5X5X5X5X5X1X1X5X5X5X1X0X",
"5X5X5X5X5X5X5X1X1X5X5X5X5X1X1X0X0X1X4X5X5X5X5X5XA.> L ^ { ] ] ' ' ' { , oX<X0X0X0X0X<X0X1X1X1X1X1X0X",
"5X5X5X5X5X5X5X5X5X5X1X1X5X1X5X1X5X1X5X5X5X5X5Xa.K ^ { ' ` ) ' ' ' ' ] Y Z 5X0X1X1X1X<X=X0X0X0X1X5X5X",
"5X5X5X5X5X5X5X5X1X1X<X<X5X5X5X0X1X1X5X5X5X5XS J { ' ` ] Q I ] ` ' ' ' { I V.5X4X5X5X5X5X5X1X0X0X<X<X",
"5X1X5X5X5X5X5X1X0X0X1X1X5X1X5X5X5X5X5X5X5XD L } ' ' ' ' ' ; ) ' ' ' ' ' ] - N.5X5X1X5X5X5X0X1X1X0X=X",
"5X5X1X5X5X5X5X1X1X5X1X1X1X1X5X5X4X5X4X5Xa.J { ' ' ' ' ' { T ; { ] ' ' ` ' { J S >X5X1X5X1X5X5X5X1X1X",
"1X5X5X5X4X1X5X<X5X5X5X5X5X5X5X1X4X4X5Xz.J { ' ' ' ' ' ' ' { U = E ^ { ] ' _ { Y 1 oX5X0X1X5X5X5X1X1X",
"5X1X0X=X=X<X<X<X5X5X5X5X5X5X5X1X1X5XA.K { ' ' ' ' ' ' ] ! T ( h i., P E / { ' ] ~ ; {.5X0X1X5X5X1X5X",
"5X0X=X=X0X1X<X=X0X0X1X5X1X1X0X<X5XoX; { ' ' ' ' ' ' ' ' ' - = v.5X=XG.p.p J / ] ' ^ 1 $X4X<X0X1X<X5X",
"1X0X0X<X<X0X0X<X<X1X5X5X5X0X5X1X2Xp ~ ] ' ' ' ' ' ' ' ' ' ] * G.5X5X5X5X>XA.i E ] ] E S 5X<X0X1XqX4X",
"0X1X5X5X0X0X1X4X1X1X}.F.s.D  X5XN = ^ ] ` ' ' ' ' ' ' ' ' { U oX5X1X1X<X0X5X>Xk Y ] ^ , &X4X1X<X=X1X",
"5X5X5X4X5X4X1X1X5Xh.d.l.OX0XN F B.V.i ! ] ` ' ' ' ' ' ' ' { I @X5X5X5X1X<X=X4X2Xh W { I oX4X0X<X<X5X",
"5X1X1X1X0X<X<X5X}.s.5X5X5X5X1X5X5X5X&X> [ ] ` ' ' ' ' ' ' { U  X5X1X1X5X=XOX+X<XoX- ( < ,X0X=X<X0X5X",
"5X4X1X5X5X5X1X5Xl.OX5X1X5X5X5X5X1X0X5Xx.J Q ] ] ] ' ' ' ) ] L N.5X0X5X5X5X<X*X*X5Xx.K k.5X=X=X=X1X5X",
"5X5X5X1X<X<X<X5XS.z.5X5X5X5X5X5X5X5X5X*XS k Y E E ^ ' ] { { W j 5X5X|.B.C.B.=X=X0XS.X f.5X0X=X=X<X1X",
"5X0X=X=X*X=X1X1X5XZ +X5X5X5X5X5X5X5X5X5X5X`.: k.p., ^ Y I P ^ = H  .u.C.B.C  X5X+XZ 5Xs.N `.5X0X5X1X",
"1X0X<X0X0X0X5X5X1Xi.5X5X5X5X5X5X0X5X5X5X5X1X4X5X5XG.* g.@X'.: v.5XB.=X5X0XC =X<X<XD 4X5XD.i.5X1X5X5X",
"5X1X0X5X5X5X5X5X5Xd.x.i.#XS.5X5Xa f.5X5X5X5X5X4X5X5X@X5X5X5X,X5X5X5X5X5X5XF *X5XOXi.1X5XN +X5X5X5X5X",
"5X1X0X1X1X5X5X5X5X1X}.D.z.F A g   X A ;X5X5X*X5X5X1X5X5X1X5X5X5X5X5X5XC.i.x.5X1X1Xj.Z f.a.5X5X5X5X5X",
"5X1X1X5X5X5X5X5X5X5X5X5XXXV 0 5 + % @ $ f a   c.5X5X5X<X5X].:X5Xg m.A s.+X5X5X1X0X5X5X X=X5X5X5X5X5X",
"5X5X5X5X5X5X5X5X5X1X5XC.5 r @.q.&.+ 4 q 5 7 3 o j.Z.V 6 F % & y o 5 0 d }.1X=X=X0X5X5X5X5X5X5X5X5X5X",
"5X5X5X5X5X5X5X5X5X5X5Xf + 3 %.=.0.e   o 4 q q 4 o O.r @ 2 2 $ 3 0.0.9.O f 5X0X0X1X5X5X5X5X5X5X5X5X5X",
"5X5X5X5X5X5X5X5X5X5X5XC.w 0.-.=.-.$.f b $ . @ 0 3 -.7 % + G V.O.q.t a s f 5X5X1X5X5X5X5X5X5X5X5X5X5X",
"5X5X5X5X5X5X5X0X0X<X;Xc ..*.=.=.=.:.c H.n.[.C & % @.. 6 C.5XB @.=.&.l D.B.1X5X5X5X5X5X5X5X5X5X5X5X5X",
"5X5X5X5X5X5X5X1X<X5X X4 @ &.0.W.~.Y.%.f XX5X5Xu.X % a 5.x.B ..T.U.w.$.V 5X5X5X5X1X5X1X5X5X5X5X5X5X5X",
"5X5X5X5X5X5X1X<X=X<XD.. s ;.L.b.n 1.6.=.q z l x 3 . q q e $.r.4.,.L.-.z ;X5X5X5X5X5X5X5X5X5X5X5X5X5X",
"5X5X5X5X5X5X1X1X<X=XOXM.H $.L.!.2.<.5.K.U.w.q.x . 3 + %.e.r.>.c m I.0.l -X5X5X5X5X5X5X5X5X5X5X5X5X5X",
"5X5X5X5X5X5X5X5X0X=XqX5Xx.t t.(.J.4.).!.^.^.~.R.7.9 9 I.E.R.Y.K.5.(.-.z :X5X5X5X5X5X5X5X5X5X5X5X5X5X",
"5X5X5X5X5X5X5X5X4X0X0X<X%Xs -.Y.E.v ~.!.~.~.~.~.(.I.>./.!.~.(.7.4.^.&.b 5X4X5X5X5X5X5X1X5X5X5X5X5X5X",
"5X5X5X5X5X1X0X1X5X5X5X0X5Xj.r r.(.<.5.(.E.~.~.~.!.^.n I.~.!._.<.b.Q.X.x.5X1X5X5X5X5X1X1X1X5X5X5X5X5X",
"5X5X5X5X5X1X1X5X5X5X1X5X5X5Xs :.I./.c J.(.E.~.~.!./.#.I.^.~.~.v !.t.9 -X5X1X5X0X0X4X1X5X5X5X5X5X5X5X",
"5X5X1X5X5X5X5X1X5X1X5XF.G `.+X9 ;.~.!.z 7.(.^.!.!./.>.P.^.(.,.5.U.8 B.5X0X5X1X=X1X5X1X5X5X5X5X5X5X5X",
"5X5X1X1X1X5X5X<X<X5X1XN *Xl.h.].l -.U./.#.#.E.(.!./.>.K.).b.m U.r F 5X1X0X1X1X<X1X1X<X=X<X5X5X5X1X5X",
"5X5X5X1X1X5X5X1X5XOXC V.5X5X}.a.F 9 9.T.(.J.c 5.~.).<.I.J.v T.O.F 5X1X1X0X1X0X1X0X=X=X<X0X5X5X5X5X1X",
"5X5X5X5X1X5X1X1X0XF 0X5X5X5X5X5XS.u 3 3.0.Y.E.,.m 6.d n #.0.2 # z.0X4X<X=X=X=X=X=X<X0X<X0X5X1X0X1X5X",
"5X5X5X5X1X5X5X5X=XF *X+X=X5X5X5X5X*Xu 3 9.&.8.y.t.2.2.@...6 s.5Xl.N @X1X+X=X0X=X=X0XqX1X0X5X0X<X1X5X",
"5X5X5X5X5X5X5X5X5X Xa.j.s.Z <X5X<X5X5XC w q.&.&.=.-.w V C.1X5X5X0X.Xu..X0X0X<X=X0X0X0X1X1X1X0X1X1X5X",
"5X5X5X5X5X5X5X5X5X5X5X5X5X XF N j.5X1X5Xf o.q.-.-.+.D 5X4X5X1X5X5X5Xz.S.5X=X<X<X0X4X5X5X1X=X=X5X1X1X",
"5X5X5X5X5X5X5X5X5X1X5X5X1X5X5X Xh.5X5X5X-Xc q $.e.e A c.u.*X5X1X5X|.D 5X0X1X0X1X5X5X5X5X5X<X1X5X5X5X",
"5X1X5X5X5X4X1X1X0X5X5X5X5X5X5X5Xa.x.F.5X5X5XXXb e $ j.].5X5X1X5X0XD  X5X0X5X1X5X5X5X5X5X1X=X0X5X5X5X",
"1X0X1X1X0X0X0X1X=X5X1X0X5X5X5X5X0XF.Z V.0X5X5X.Xp.+XV. X5X5X5X*XN }.5X1X1X5X5X5X4X4X5X1X1X0X1X5X5X5X",
"5X5X5X1X1X5X1X1X5X5X5X=X=X=X0X0X5X5X5XF D.5X5X X X5X5X5X5X5Xs.F +X5X4X5X5X5X5X5X1X1X5X1X5X1X5X5X5X5X",
"5X5X5X5X5X5X1X1X0X0X0X0X0X1X1X1X1X0X5XS.S.5X5X5X5X5X1X5X5Xh.B.5X5X1X5X5X5X5X1X5X5X5X1X5X5X5X5X5X5X5X",
"1X1X5X5X4X0X0X1X0X<X=X<X5X5X<X1X<X1X5X-XD B.h.5X5X1X5X].F x.5X5X5X5X5X5X5X5X5X5X5X1X5X5X5X1X5X5X5X5X",
"5X5X5X5X0X0X0X1X0X5X1X0X5X1X=X5X5X5X5X5X:Xc.M $X5X5XOXZ =X5X5X5X5X5X5X5X5X5X5X5X5X1X5X5X5X5X5X5X5X5X",
"5X5X5X1X<X5X5X1X1X5X5X5X5X<X0X5X1X5X5X5X5X5Xx.Z h.V.D =X5X1X5X5X5X5X5X1X1X5X5X5X5X5X5X5X5X5X5X5X5X5X",
"1X0X1X5X5X5X1X5X5X1X0X5X0X1X1X1X5X5X5X5X1X1X5X5X XS.1X5X5X5X5X5X5X5X5X5X5X5X5X5X5X5X5X1X5X1X5X5X5X5X"
};
