/* XPM */
static char *_d67aec185684d80f9140f8a0b3ab8f5O6EWdrALviQ8tUhb[] = {
/* columns rows colors chars-per-pixel */
"50 50 218 2 ",
"   c #000201",
".  c #130608",
"X  c #3B0001",
"o  c #521017",
"O  c #560D16",
"+  c #780715",
"@  c #7B121E",
"#  c #77121E",
"$  c #67151F",
"%  c #731823",
"&  c #7E303A",
"*  c #753139",
"=  c #513337",
"-  c #683E42",
";  c #4B4A48",
":  c #585959",
">  c #76595B",
",  c #684F51",
"<  c #785F62",
"1  c #5A6160",
"2  c #6A6A69",
"3  c #737272",
"4  c #7C7C7C",
"5  c #747A7A",
"6  c #7A736B",
"7  c #890616",
"8  c #9F0012",
"9  c #960919",
"0  c #88101E",
"q  c #960008",
"w  c #B7000F",
"e  c #A30A1C",
"r  c #AB0B1E",
"t  c #A50316",
"y  c #B40A1E",
"u  c #BB051A",
"i  c #891522",
"p  c #9E1525",
"a  c #9A1A29",
"s  c #971827",
"d  c #A40E20",
"f  c #AC0E21",
"g  c #BB0C21",
"h  c #B60E22",
"j  c #AB1124",
"k  c #A4192A",
"l  c #AB1A2C",
"z  c #A21424",
"x  c #BD1226",
"c  c #B7192B",
"v  c #BC1E30",
"b  c #8C212E",
"n  c #98212F",
"m  c #882A35",
"M  c #992231",
"N  c #942835",
"B  c #93323D",
"V  c #8B323C",
"C  c #B32032",
"Z  c #B02A3A",
"A  c #CB041A",
"S  c #DC0011",
"D  c #D0071F",
"F  c #CD0007",
"G  c #E80117",
"H  c #FE001C",
"J  c #F60015",
"K  c #C90C22",
"L  c #C31126",
"P  c #CB152B",
"I  c #CE192E",
"U  c #CA1127",
"Y  c #C51D31",
"T  c #CD1D32",
"R  c #D81C32",
"E  c #D1192E",
"W  c #E90A24",
"Q  c #FF0B27",
"!  c #FC0D29",
"~  c #F70925",
"^  c #C62134",
"/  c #CC2135",
"(  c #D32136",
")  c #DC283E",
"_  c #953843",
"`  c #AC3744",
"'  c #B53D4B",
"]  c #88434B",
"[  c #94454E",
"{  c #914750",
"}  c #87555B",
"|  c #905058",
" . c #8D4D55",
".. c #AD4E5A",
"X. c #9A5C63",
"o. c #915B61",
"O. c #A75C65",
"+. c #8A6668",
"@. c #91676B",
"#. c #9B6C72",
"$. c #867978",
"%. c #937A7D",
"&. c #9C787B",
"*. c #967A6D",
"=. c #A7757B",
"-. c #A0666D",
";. c #76807F",
":. c #9B8A79",
">. c #A57C81",
",. c #A87C81",
"<. c #838383",
"1. c #8B8A8A",
"2. c #87898A",
"3. c #968788",
"4. c #9B938A",
"5. c #949393",
"6. c #9C9C9C",
"7. c #9A9997",
"8. c #A68C8F",
"9. c #A98A8E",
"0. c #AA8488",
"q. c #B68985",
"w. c #A4988C",
"e. c #AE9D89",
"r. c #A89582",
"t. c #B39C89",
"y. c #A28E90",
"u. c #B08D91",
"i. c #AC9192",
"p. c #AC9B9D",
"a. c #A69F97",
"s. c #B29A9C",
"d. c #B39699",
"f. c #BAA58C",
"g. c #AEA295",
"h. c #BCA996",
"j. c #B6A99A",
"k. c #B69DA0",
"l. c #A3A3A3",
"z. c #ABA3A3",
"x. c #ADA8A3",
"c. c #ABACAC",
"v. c #B4A3A5",
"b. c #B6A7A9",
"n. c #B3ADAC",
"m. c #BAABAD",
"M. c #BAA3A6",
"N. c #B3B1AE",
"B. c #BCB5AE",
"V. c #ADB9B7",
"C. c #B3B3B2",
"Z. c #BAB5B6",
"A. c #BBBBBB",
"S. c #B3BBBA",
"D. c #C48B8C",
"F. c #CD8E90",
"G. c #DA9396",
"H. c #CC9499",
"J. c #ED9C9E",
"K. c #C4AD94",
"L. c #C8AE93",
"P. c #CDB69B",
"I. c #D4B99E",
"U. c #C2ABAE",
"Y. c #D9BEA2",
"T. c #C2BDBD",
"R. c #C1BCB7",
"E. c #C8B6A3",
"W. c #FAABAE",
"Q. c #FEADB1",
"!. c #FFBABC",
"~. c #DFC3A6",
"^. c #E8CAAB",
"/. c #EED1B4",
"(. c #FEDDBD",
"). c #F5D8B8",
"_. c #FFE0BF",
"`. c #C0BEC0",
"'. c #BAC1C1",
"]. c #C4C3C4",
"[. c #CBCBCB",
"{. c #C2CBCA",
"}. c #C9D0CF",
"|. c #CED4D4",
" X c #CDDAD9",
".X c #D3D4D4",
"XX c #DBDBDB",
"oX c #D6DADA",
"OX c #CACED1",
"+X c #FCDFC1",
"@X c #E3DEDF",
"#X c #DAE0DF",
"$X c #D6E0DF",
"%X c #FFE6C5",
"&X c #FFE8C7",
"*X c #FFECCB",
"=X c #FFE7C8",
"-X c #FFF7D5",
";X c #DCE5E4",
":X c #DAE8E6",
">X c #DAF0ED",
",X c #E3E3E4",
"<X c #E9E7E7",
"1X c #E3EBEB",
"2X c #ECECEC",
"3X c #E3E6E9",
"4X c #F0EEEE",
"5X c #E5F0EF",
"6X c #ECEFF1",
"7X c #EEF3F3",
"8X c #E7F8F6",
"9X c #EEFBFA",
"0X c #E9F9F7",
"qX c #F4F4F4",
"wX c #F9F7F7",
"eX c #FAF7F8",
"rX c #F4FFFE",
"tX c #FDFDFD",
/* pixels */
"tXtXtXtXtXtXtXtXtXtXtXtXtXtXtXtXtXtXtXtXtXtXtXtXtXtXtXtXtXtXtXeXeXtXtXtXtXtXtXtXtXtXtXtXeXwXeXtXeXtX",
"tXtXtXtXtXtXtXtXtXtXtXtXtXtXtXtXtXtXtXtXtXtXeXtXtX8XT.v.m..XrXtXtXtXtXtXtXtXtXtXtXtXtXtXqXeXeXeXwXtX",
"tXtXtXtXtXtXtXtXtXtXtXtXtXtXtXtXtXtXtXtXtXtXtXtXz.N d r r p _ #.9.A.rXtXtXtXtXtXtXtXtXeX2XeXtXeXeXtX",
"tXtXtXtXtXtXtXtXeXtXtXtXtXtXtXtXtXtXtXtXtXtX$X@.e I / / / T P g g e ] #XtXtXtXtXtXtXtXeXeXtXtXtXeXwX",
"tXtXtXtXtXtXtXeXeXtXtXtXtXeXeXwXeXeXtXtXp.[ s g / Y Y Y Y Y Y / v / K m oXqXwXwXwXwXqXwXeXeXwXeXeXwX",
"tXtXtXtXtXtXtXtXtXtXeXeXtXeXtXeXtXtXtX@.t I ( ( / / I I T / Y / l # C K } tXeXeXeXeXqX2XwXwXwXeXtXtX",
"tXtXtXtXtXtXtXtXeXeXqXqXtXtXtXwXwXtXz.e ) L d z r r N _ a h U g P / # v d A.tXtXtXtXtXtXtXeXwXwXqXqX",
"tXeXtXtXtXtXtXeXwXwXeXeXtXeXtXtXtX9X_ K e o.T.[.v.v.5X9X;X&.{ =.] f Y $ U ] rXtXtXtXtXtXtXwXeXeXwX2X",
"tXtXeXtXtXtXtXeXeXtXeXeXeXeXtXeXtXT.# X.p.tXtXtXtXtXtXtXtXtXtXtXtX7.r 7 a j ].tXeXeXtXtXeXtXtXtXeXwX",
"eXtXtXtXtXeXtXqXtXtXtXtXtXtXtXeXtX5.}.tXtXtXeXeXtXtXtXtXeXtXtXtXtXtX8.] O u @.tXtXeXeXeXeXtXtXtXeXeX",
"tXeXwX2X2XqXqXqXtXtXtXtXtXtXeXtXn..XtXtXeXtXtXtX1XqXtXtXtXtXtXtXtXtXtXtX3.| 4.c.2XtXwXqXwXeXtXtXeXtX",
"tXwX2X2XwXeXqX2XwXwXeXtXtXeXtXA.A.tXtXtXtXtX6XA.r.g.x.g.n.A.x.tXtXtXeXtXXX'.tX2X7.<XtXwXwXwXwXeXqXtX",
"eXwXwXqXqXwXwXqXqXeXeXeXeXeX,Xc.tXtXtXtX.X4.h.~.*X%X(.(./.~.K.N.tXtXtXtXtXc..XtX2Xl.tXwXqXwXwXeX7XtX",
"wXeXtXtXwXwXeXtXeXqXwXeXeXtX[.XXtXtXqXA.w.(.).Y.h.I.f.e.r./.*XL.a.C.tXtXtXXXA.tXtXc.qXeXqXwXeXqX2XeX",
"tXtXtXtXtXtXeXeXeXwXtXeX2XtX[.5.2XqX2 L.%X=XY.r.t.q.q.q.r._.&X*X%Xf.7.tXtXC.2XtXeXl.qXwXwXqXwXqXqXtX",
"tXeXeXeXwXqXwXqXwXeXtXqXwX,Xg.~.t.2.w.%X+X&X).*.G.Q.W.G.+.j.f.Y.*X&X$.5.j.$.eXtXc.[.wXwXwXqX2XqXwXtX",
"tXtXeXtXtXeXeXwXwXtXwXqXtXR.^.-XK.OXE.*X&XP.x.`.i.0.i.z.1XeX2XN.e.^.:.6.~./.1.l.A.wX2XwXwXwX2X2XeXtX",
"tXtXtXeXqXqXtXtXqX8XtXqXtXB.(.^.N.tX6 L.e.A.tXtXtXtX|.tXtXtXtXtX2Xl.; ,Xh.(.7.7XqX2XqXeXeXqX2X2XqXeX",
"tXwX2X2X<X7Xk.p.O.C ].tXtX.XI.h.3XtX6.A.7XtXtXtXtXXX<.T.tXtXtXtXeXc..XtXn.:.[.tX2XeXtXwXqXwXwXeXtXeX",
"eXwXqXwXtXm.F S q H u .XtXtXN.4.tXtXXXC.eXtXtXqX].C.tX{.4 A.].C.l.,XtXtX2X1.eX2XeXtXeXqXwXeXeXtXtXtX",
"tXeXwXtXtX=.J ! D W J ..tXtX2XA.tXeXtXXXc.c.C.5.> T.Z.d.@.'.,X2XtXtXtXtXtXC.2XeXwXqX2X2XqXeXtXtXtXtX",
"tXeXwXeXtXd.S ! ~ ~ Q D 6.<XwXA.eXtXtXtXtXeXtX.XF.G.G.J.8.tXtXtXtXtXtXeX,Xc.qXtXeXwXqXwXwXtXtXtXtXtX",
"tXeXeXeXtX:Xj Q ~ ! J Z 1Xc.;Xc.n.tXtXtXtXtXtX.XD.!.W.&.XXtXtXtXtXtXtXtX6.l.tXeXwXtXtXtXtXtXtXtXtXtX",
"tXtXtXtXtXtXb.w J S ' ;XtXM.b 3.V.tXtXtXtXtXtXXX$.D.&..XtXtXtXtXtXtXtXtX[.[.wX2XwXtXtXtXtXtXtXtXtXtX",
"tXtXtXtXtXtXtX[.} U.rXtXtXX.K d $.tXtXtXtXtXtX2X4 2 2XtXtXtXtXtXtXtXeXtX]..XtXwXeXtXtXtXtXtXtXtXtXtX",
"tXtXtXtXtXtXtXtX{.;XtXtXp.j / T p .XtXeX2XtXtXtXtXwXtXtXtXtXtXtXtXtXtXtX6.tXtXtXtXtXtXtXtXtXtXtXtXtX",
"tXtXtXtXtXtXtXwX2Xx.c.} h T Y Y I & :XtX[.#XtXeXtXtXtXtXtXtXeXtXA.|.1X#.i v.tXeXtXtXtXtXtXtXtXtXtXtX",
"tXtXtXtXtXtXtXeXwXeX2Xk.k I ^ T l 9 N p.m.< rXtXeXtXtXtXtXtXtXrX] M $ h R q y.tXeXtXtXtXtXtXtXtXtXtX",
"tXtXtXtXtXtXeXqX2X<X<X7XZ.M U v i / I y j y | 1XtXtXrX6.oX:X]. .x R l 0 B -.%.c.qXtXtXtXtXtXtXtXtXtX",
"tXtXtXtXtXtXeXeXwX2XqX2XwX}.[ @ l T Y / / / L b %.H.X.9 a M d L / ^ x , 8XtXtX@Xc.tXtXtXtXtXtXtXtXtX",
"tXtXtXtXtXtXtXtXeXqX2X2X2XqX>X& I Y Y Y Y Y ( z + X r ( T T / ^ Y / y d.tXtX9XrXS.qXtXtXtXtXtXtXtXtX",
"tXtXtXtXtXtXtXtXtXwXwXqX2XtX].z T Y Y Y Y Y Y i a . k T Y Y Y Y Y / y 3.0X,.` C @.tXtXeXtXtXtXtXtXtX",
"tXtXtXtXtXeXwXeXtXtXtXeXqXtX&.g / Y Y Y Y Y v i v i Y Y Y Y Y Y Y Y T M @ G H H A ].tXwXeXtXtXtXtXtX",
"tXtXtXtXtXtXeXtXtXtXeXeXtXrX_ P Y Y Y Y Y Y l p @   l T Y Y Y Y Y Y Y Y 9 Q ~ ~ J O.tXeXtXtXtXtXtXtX",
"tXtXtXtXtXtXtXeXeXtXeXeXtXoXa T Y Y Y Y Y T l s Y l Y Y Y Y Y Y Y Y Y ^ p G W ! H ` rXtXeXtXtXtXtXtX",
"tXtXtXeXeXtXtXqXqXtXeXwXtX].j / Y Y Y Y Y T l p k @ Y Y Y Y Y Y ^ / T U 0 9 t H F 0.tX<XqXtXtXtXeXtX",
"tXtXtXeXeXtXtXeXeXtXwXwXtX$.8 E T / / / / / l l o   ^ / / T T I L y p { ].:Xn.V ,.1X2XqXwXtXtXtXtXeX",
"tXtXtXtXeXtXeXeXtXtXtXtXZ.].i.B p f y y g L e 7 y 9 y r d z M _ X.9.[.tXtXtX2XV.tXqXqXqXwXtXeXwXeXtX",
"tXtXtXtXeXtXtXtXeXtXeXtXc.tXtX9X.XZ.s.9.>.,.>.%.0.u.s.m.T.|.;X9XtXtXtXtXtXtXl..X4XqXqXeXeXtXwXqXeXtX",
"tXtXtXtXtXtXtXtXtXtXeXtXA.].tXtXtXtXtXtXtXtXtXtXtXtXtXtXtXtXtXtXtXtXtXtX,Xa.[.wXqXwXwXeXeXeXwXeXeXtX",
"tXtXtXtXtXtXtXtXtXtXtXtXtXC.c..X,X2XtXtXtXtXtXtXtXtXtXtXtXtXtXtXtX,X].c.c.,XeXqXwXtXtXtXeX2X2XtXtXeX",
"tXtXtXtXtXtXtXtXtXeXtXtXtXtX<X[.A.C.3 > #.0.k.b.m.U.m.v.s.0.@.} , l.[.<XtXtXwXeXtXtXtXtXtXqXeXtXtXtX",
"tXeXtXtXtXtXwXeXwXtXtXtXtXtXtXtXtXtX2Xb.#.* + y t + 7 y 8 - 8.s.XXtXtXwXwXtXeXtXtXtXtXtXeX2XwXtXtXtX",
"eXwXeXeXwXwXqXeX2XtXeXwXtXtXtXtXeXwXtXtXtX X; - - : : - = ;.tXtXtXtXtXtXeXtXtXtXtXtXtXeXeXwXeXtXtXtX",
"tXtXtXeXwXtXeXeXtXtXtX2X2X2XqXwXtXqXeXwXtXXX: 5 5 l.1.5 1 1.tXeXtXtXtXtXtXtXtXtXeXeXtXeXtXeXtXtXtXtX",
"tXtXtXtXtXtXeXwXwXwXwXwXwXeXeXeXeXeXeXtXXX3 3 1.$.C.5.1.4 2 7.tXtXtXtXtXtXtXtXtXtXtXeXtXtXtXtXtXtXtX",
"eXeXtXtXtXwXwXeXwXqX2XqXtXtXqXeXqXtXwXtXA.2 5.5.3 <.5 <.5.1.3 tXtXtXtXtXtXtXtXtXtXeXtXtXtXeXtXtXtXtX",
"tXtXtXtXwXwXwXeXwXtXeXwXtXeX2XtXtXtXtXtXeXl.<.<.5.XXc.<.<.<..XtXtXtXtXtXtXtXtXtXtXeXtXtXtXtXtXtXtXtX",
"tXtXtXeXqXtXtXeXeXtXtXtXtXqXwXtXeXtXtXtXtXtXtXtXtXtXtXtXtXtXtXtXtXtXtXeXeXtXtXtXtXtXtXtXtXtXtXtXtXtX",
"eXwXeXtXtXtXeXtXtXeXwXtXwXeXeXeXtXtXtXtXeXwXeXtXeXtXtXtXtXtXtXtXtXtXtXtXtXtXtXtXtXtXtXtXtXeXtXtXtXtX"
};
