/* XPM */
static char *result[] = {
/* columns rows colors chars-per-pixel */
"50 50 166 2 ",
"   c None",
".  c #33629E",
"X  c #3165A1",
"o  c #3067A8",
"O  c #2571A2",
"+  c #2674AD",
"@  c #2D75AB",
"#  c #2B79AF",
"$  c #3274A2",
"%  c #3074A8",
"&  c #367CAB",
"*  c #2A6EB3",
"=  c #2575B4",
"-  c #2A74B3",
";  c #2C7DB3",
":  c #2576BC",
">  c #2974BA",
",  c #2B7BBE",
"<  c #267DC0",
"1  c #297CC2",
"2  c #1F86B2",
"3  c #1C8AB7",
"4  c #1A8FBD",
"5  c #1C95B5",
"6  c #1D96BF",
"7  c #1A9EBA",
"8  c #2A81A6",
"9  c #2683AC",
"0  c #2C85AD",
"q  c #3080A6",
"w  c #2581B1",
"e  c #238CB2",
"r  c #2686BC",
"t  c #248BBB",
"y  c #2190B3",
"u  c #2192BD",
"i  c #2599B8",
"p  c #3297B8",
"a  c #3A9BBB",
"s  c #0FA2BF",
"d  c #11A3BC",
"f  c #1BA2BC",
"g  c #21A6BF",
"h  c #2BA3BF",
"j  c #2FAABC",
"k  c #3BA0B7",
"l  c #33A6BF",
"z  c #3FAEBF",
"x  c #50A9BA",
"c  c #1D94C3",
"v  c #159DC2",
"b  c #199AC3",
"n  c #1D9EC8",
"m  c #2C87C2",
"M  c #258EC2",
"N  c #2A8AC2",
"B  c #3182C2",
"V  c #3A8CC3",
"C  c #3A8ECA",
"Z  c #2392C3",
"A  c #2992C5",
"S  c #219BC3",
"D  c #2E9CC2",
"F  c #249FCD",
"G  c #2D9DD1",
"H  c #3499D3",
"J  c #0EA5C4",
"K  c #0EA0C9",
"L  c #11A3C3",
"P  c #1BA4C5",
"I  c #14A9C7",
"U  c #1DA4CC",
"Y  c #14A8CE",
"T  c #1EADCD",
"R  c #1CB1D4",
"E  c #1DBDD1",
"W  c #20A4C3",
"Q  c #20AAC3",
"!  c #23A3CE",
"~  c #2FA0CC",
"^  c #3AA9C0",
"/  c #34A2CF",
"(  c #2DB4C7",
")  c #25B2CF",
"_  c #2FB6CE",
"`  c #38B6C7",
"'  c #38B7CC",
"]  c #35BDCD",
"[  c #2DA4D2",
"{  c #36A4D3",
"}  c #29B4D1",
"|  c #2ABCD2",
" . c #25B7D8",
".. c #25B8D9",
"X. c #2DBEDC",
"o. c #3DB6D3",
"O. c #31BFD6",
"+. c #38B8D8",
"@. c #4294C4",
"#. c #4C9FC3",
"$. c #41ADC1",
"%. c #51A5C4",
"&. c #47B4C5",
"*. c #4BB2C4",
"=. c #41B7CA",
"-. c #51B4C4",
";. c #41A8D8",
":. c #4DACDC",
">. c #59AEDC",
",. c #41B3D9",
"<. c #23C3D5",
"1. c #29C2D5",
"2. c #26CADA",
"3. c #2BCFDD",
"4. c #36C7D7",
"5. c #3BC2DC",
"6. c #33CCD9",
"7. c #39C8DE",
"8. c #3FD2DD",
"9. c #36C7E2",
"0. c #3EC7E0",
"q. c #33CCE1",
"w. c #3FCDE6",
"e. c #37D4E2",
"r. c #3BD6E4",
"t. c #42D0DE",
"y. c #46CCE1",
"u. c #48CFE4",
"i. c #43D5E5",
"p. c #46D8E6",
"a. c #47D5EB",
"s. c #49D5EB",
"d. c #4BDDEE",
"f. c #52D1E5",
"g. c #4EDCF0",
"h. c #50DDF1",
"j. c #67D5E2",
"k. c #61D8EB",
"l. c #6FDDEA",
"z. c #70DEF0",
"x. c #4BE1EE",
"c. c #55E6F2",
"v. c #5AE5F4",
"b. c #6BE5EE",
"n. c #64E7F1",
"m. c #6FE6F2",
"M. c #65EAF6",
"N. c #6EEDF7",
"B. c #62ECFA",
"V. c #7EE4F4",
"C. c #72EAF4",
"Z. c #7AEAF6",
"A. c #7AEEF9",
"S. c #79F2FB",
"D. c #82E3EF",
"F. c #81ECF6",
"G. c #8BEAF7",
"H. c #97EFFA",
"J. c #83F2FC",
"K. c #8FF4FC",
"L. c #93F6FD",
"P. c #93F9FF",
"I. c #9CFAFF",
"U. c #A3F4FC",
"Y. c #A3F9FE",
"T. c #ADF8FE",
/* pixels */
"                                                                                                    ",
"                                                                                                    ",
"                                                                                                    ",
"                                                                                                    ",
"                                                                                                    ",
"                                                                                                    ",
"                                                                                                    ",
"                                                                                                    ",
"                                                                                                    ",
"                                                                                                    ",
"                                                                                                    ",
"                                                                                                    ",
"                                                                                                    ",
"                                                      N                                             ",
"                                                  t c                                               ",
"                                                q ; <                                               ",
"                                            B u 5 r 1                                               ",
"                                    > 2 b Z B c J c m %.                                            ",
"                            O + = : > X - r B Z J c m #.-.                                          ",
"                        5 @ @ + = : * . o - , Z I S N @.*.z j                                       ",
"                      v 9 % @ - > : ; w 3 4 c S 5.i.7.O.( Q g f                                     ",
"                  N c e $ @ # ; ; & V G ! P v b S +.r.3.] Q L b c M                                 ",
"                { A t 8 9 e y e 0 & C H H G F n S M ~ 1.1.&.Q v c M                                 ",
"              x.e.E L s d 7 i p a #.>.:.;.{ [ ! U n Z A T ` *.W v b N                               ",
"              x.e.<.R R | j.D.F.A.L.T.U.H.G.V.z.k.f.y.5.o.o.-.$.S v b N                             ",
"              c.r.9.9.q.2.6.b.S.N.K.L.L.P.P.P.P.I.I.I.Y.Y.Z.f.&.^ S b c M                           ",
"            ,.s.d.g.d.p.t.4.1.r.r.r.c.c.c.v.n.C.F.L.I.Y.J.v.h.u.=.l Z c Z N                         ",
"            A } i.M.m.l.        r.<.2.                  B.v.h.a.w.' h Z M N                         ",
"          ) 7.8.                  X.y.                      h.a.w.9._ h M m                         ",
"                                    K.                        a.w.9.X.) S m B                       ",
"                                                                  9.X...T S B                       ",
"                                                                       .R Y c                       ",
"                                                                          Y K S                     ",
"                                                                            a D 0.<.J b M           ",
"                                                                            k Z / E L 6 r , 1       ",
"                                                                          x h Z B P 5 0             ",
"                                                                          *.W c                     ",
"                                                                                                    ",
"                                                                                                    ",
"                                                                                                    ",
"                                                                                                    ",
"                                                                                                    ",
"                                                                                                    ",
"                                                                                                    ",
"                                                                                                    ",
"                                                                                                    ",
"                                                                                                    ",
"                                                                                                    ",
"                                                                                                    ",
"                                                                                                    "
};
