/* XPM */
static char *acf93b7cbbcc4f5cbb3876d311e67c737wkEdlPthMV3sf7f[] = {
/* columns rows colors chars-per-pixel */
"50 50 193 2 ",
"   c #6C3429",
".  c #6F3B30",
"X  c #733E33",
"o  c #25592B",
"O  c #295C2F",
"+  c #235728",
"@  c #2B5E31",
"#  c #2F6135",
"$  c #316236",
"%  c #35653A",
"&  c #39673C",
"*  c #3B693E",
"=  c #37693B",
"-  c #744136",
";  c #78453B",
":  c #3E6B41",
">  c #7C594B",
",  c #426E44",
"<  c #486E44",
"1  c #467046",
"2  c #497147",
"3  c #46714A",
"4  c #4B744B",
"5  c #4F784F",
"6  c #51764E",
"7  c #53794F",
"8  c #4D7750",
"9  c #4F7852",
"0  c #547B53",
"q  c #597D56",
"w  c #557D59",
"e  c #5A7F58",
"r  c #577751",
"t  c #7C6855",
"y  c #647D5B",
"u  c #747D60",
"i  c #7D7C63",
"p  c #83574D",
"a  c #855B51",
"s  c #8A5F56",
"d  c #896459",
"f  c #91655E",
"g  c #936B64",
"h  c #867966",
"j  c #98746B",
"k  c #9E7B73",
"l  c #A27D77",
"z  c #5D815B",
"x  c #5F8057",
"c  c #63845D",
"v  c #608157",
"b  c #5E8361",
"n  c #648661",
"m  c #6D8664",
"M  c #658964",
"N  c #6B8B65",
"B  c #6C8D6B",
"V  c #658A69",
"C  c #748464",
"Z  c #728A67",
"A  c #728E69",
"S  c #7A886A",
"D  c #6F906B",
"F  c #74916D",
"G  c #6F9173",
"H  c #749373",
"J  c #7A9574",
"K  c #7C9976",
"L  c #76967A",
"P  c #799779",
"I  c #7D9A7B",
"U  c #81896E",
"Y  c #818D72",
"T  c #8D8874",
"R  c #829D7D",
"E  c #86957B",
"W  c #96907F",
"Q  c #988577",
"!  c #A4857D",
"~  c #7F9D82",
"^  c #829E81",
"/  c #8B9C82",
"(  c #8F9F88",
")  c #949E86",
"_  c #9B9886",
"`  c #A58A81",
"'  c #A48780",
"]  c #AA948A",
"[  c #B2938E",
"{  c #B29A93",
"}  c #85A184",
"|  c #89A284",
" . c #86A389",
".. c #8BA58B",
"X. c #8EA88C",
"o. c #91A78B",
"O. c #93AA8D",
"+. c #9BA58F",
"@. c #8EA891",
"#. c #93AB93",
"$. c #99AE95",
"%. c #96AE98",
"&. c #9CB197",
"*. c #9CB29C",
"=. c #97B09A",
"-. c #A4A08F",
";. c #A7A998",
":. c #B3A299",
">. c #BBA39E",
",. c #B4A99E",
"<. c #A2B49E",
"1. c #9FB4A1",
"2. c #BCABA3",
"3. c #A2B7A2",
"4. c #A8B7A4",
"5. c #A5B9A4",
"6. c #AABBA6",
"7. c #A6BBA9",
"8. c #ACBDAB",
"9. c #B2BEAD",
"0. c #C2ADA9",
"q. c #C1ABA5",
"w. c #C3B2AC",
"e. c #CFBDBA",
"r. c #C7B8B3",
"t. c #D4BFBE",
"y. c #ADC1AD",
"u. c #B1C2AE",
"i. c #ADC1B0",
"p. c #B4C4B3",
"a. c #BAC5B6",
"s. c #BAC9B7",
"d. c #BCCABB",
"f. c #BAC7BA",
"g. c #C1CCBE",
"h. c #CAC2BB",
"j. c #D2C2BE",
"k. c #BFCEC0",
"l. c #C2CEC2",
"z. c #CDCFC5",
"x. c #D5C5C3",
"c. c #D9CBC8",
"v. c #C5D2C4",
"b. c #C9D4C6",
"n. c #CBD5CA",
"m. c #CDD9CD",
"M. c #C7D4CA",
"N. c #D6D3CE",
"B. c #D0D9CE",
"V. c #DBD1CC",
"C. c #CFDBD0",
"Z. c #D1D7D1",
"A. c #D4DDD3",
"S. c #DADDD6",
"D. c #D6DFD8",
"F. c #DBDDD9",
"G. c #DED5D2",
"H. c #E1D4D3",
"J. c #E5DDDB",
"K. c #E4DAD8",
"L. c #D6E1D6",
"P. c #D9E0D7",
"I. c #DCE3DC",
"U. c #D7E2D8",
"Y. c #E1E5DE",
"T. c #E1DFE1",
"R. c #DFE6E0",
"E. c #E4E6E3",
"W. c #EBE4E3",
"Q. c #E5EBE4",
"!. c #E9EBE6",
"~. c #E7EEE9",
"^. c #EBEDEA",
"/. c #E9E6EA",
"(. c #F2EDED",
"). c #F1E6E6",
"_. c #E6F0E9",
"`. c #EDF1ED",
"'. c #F1F3EF",
"]. c #EBEEF0",
"[. c #F1EFF1",
"{. c #EFF3F0",
"}. c #F4F4F3",
"|. c #FAF6F6",
" X c #F6F8F6",
".X c #F8F9F7",
"XX c #F9F7F9",
"oX c #F6F9F8",
"OX c white",
"+X c #FEFEFE",
"@X c #FDFDFD",
"#X c #FEFDFE",
"$X c #F6F7F8",
/* pixels */
"OX5.b.OX^.b.OXy.y.OX`.XXOX#.}. XA.OX#.OXOXOXOX`.B.OX@XOX}.#.}.Q.OXb.5.OX@XOXOXv.^.OX`.OXd.8.OXA.Y.OX",
"OXz #.OXv.J OXg.a.OX| v.^.& b.I.} m., P.*.Q.OXu.F XXOX Xm.n p.&.OX .z OXu.E.OXz p.E.&.OXH B OXB I OX",
"b.6 N Q.H 4 5.OXOXI.* V m.E b.5.v 8.N.m.1 d.OX0 o 3.OX^ l.(.R c b.K y v., ^ OXa.E.8.c P.( / n.e V ~.",
" XV.W.v.$ @ 0 ^.OXu.0 B `.OXP.M N J OX5.$ ^ l.e z  .`.q 5.I.& $ H ^.(.p.7 H }.OX}.F M O.OXOX8., 4 v.",
"OXOX}.H 2 e , #.}.V * $ 8.`.F & , 1 ^ p.-.a.#.0 4 I }.W.^. .% , : f.OXP * 4 A.}.R 2 0 0 u.Q.n q 4 V ",
"OXOX^.I A F F A.b.D S m H Q.B O % @ H OXOXXXw * : @ d.OXR.B N F B k.v.4 c , H Y.V @ % $ ^ Y.I.:.w.I.",
"OXOXa.0 4 , 4 R !.@X2.c.OX%.@ 1 4 : @ ^ OX%.7 A Z 0 e Q.B.N z 0 z p.Q.L.` r.~.v.& % : $ : C.OX^.}.@X",
"OXOX..@ * * @ 3 I.OXXXOXp.n c N F c J ~ k.!.Q.2.g Q.b.}.#.# % % $ z }.OX(.OXM.9 2 n N 0 e 0 n.OX8.Z.",
"OXp., e c M 4 * B `.XXXX}.O.N F N F A Q.OXOXP.(.c.OXOXD.0 1 0 0 : & 7.OXOXXXA.O.A F F N } ^.}.XX0 8.",
"oX#.N J S i J A 0 p.OXOX5.0 c 0 , n 0 B !.`.2 `.v.} XXH 0 N N Z c e , v.OXOXb.c N c 0 A e &.OXd.& B ",
"OXE.P.I.:.; S.I.I.^.OXB.R , , $ $ * * 0 <.L.<.I.H , m.v.p.d.] a g.s.u.P.OXn.F 2 4 & $ 1 , e 6.A.;.p.",
"XX@XS.@Xx.` ^.Q.OXXXOXXXV @ % : 1 $ % $ 6.OXOXQ.z 0 g.OXXXOX0.s OXOXOXOXXX^.H @ % % * $ $ 3 a.OX}.OX",
"@XQ.0 l.@XOX}.} E.OXOXB $ 0 4 z M 1 : & @ p.OX .* * V `.^ `.XX}. X8.OXXXOX5.@ , , 0 z % & @ w `.XXXX",
"OXd., 3.@XXXg.x u.}.L 1 N B N B A B c M 0 : 5.y.) T 3.3.* p.OXOXA.c P.OX#.# c N n N D M 0 e % 9 A.@X",
"OXI = V @X}.c % 0 n.v.J F F D S t S F N A N 6.OXW.x.OX#.* #.OX'.H 1 I A.#.H N A M Z u N M N M z 1.OX",
"P.H u n v.b.% & @ *.A.u.P.d.~.] - 0.~.g.P.u.A.a.F.OXP.0 6 2 Q.Q.& @ $ m.n.R 8.#.p.Q ; ,.u.$.5.} m.OX",
"XXOXe.|.`.P e F c I P.OX}.OXOXk   >.OX}.XXOX}.0 p.OX^.A.{ Z.I.~ 1 c 2 B A.^.F.E.@Xk . r.OX}.}.^.b.OX",
"OXOXOXOX^.} N c M &.`.OXX.d.OXr.] K.OX}.}.OXp.& I OXOXOX@XOXXX| A F A 6.OXl.H }.{.' a e.oX^.^.n.4 m.",
"OX}.E.^.9.1 : $ : , d.OXJ *.OXu.`.OX XOXv.}.m.;.9.<.OX^.A.OXg.e 4 : 4 z S.<.c A.8.XXXXOX*.Y.OX5., 7.",
"XX^.}.OX..$ : 4 % @ @.OX|.OX~.c $.XXOXQ., 7.OX@XI.c I.m.| OX*.@ % : # $ p.@X/.3., Q.OXE.M p.OXz , z ",
"OXP I.i., c c F z 0 & *.OXOX%.O : b.OXp.2 ..XX}.o.c } }.OXv.2 0 z N 5 , 4 M.OXP , d.}.| e N v.v.] g.",
"~.m v.s.R | / t / } K ..OXQ.z 4 , ~ }.H * 9 I.d.1 3 2 <.oX#.c F A i A N 7 } m.6 < B S.4 # $ #.OX|.OX",
"OX|.@X}.}.@XK.  x.OX}.'.OXb.N F N 6.n.H C n p.8.@ $ @ H OXQ.A.L.h.- r.U.A.P.`.z.:.I.*.% , % 3 C.OX@X",
"OXOXOXOXOXOX}.>.W.OXXXOXOX#.1 : , c Z.OXr.(.n.3 : 0 1 % ..OXOXOXH.d H.OX@XXX}.[.@XI.V v F n H 3.XXOX",
"OXOX}.OXOXOX`.@XOXd.3.OX^.z % 4 * # 8.OXoX^.#.N B J M ^ 8.I.OXp.A.XXOX6.b.OX}.}.OX^.R A n N J ^.OXOX",
"OXOXJ A.OXOX<.u.OX#.J OX^ 4 n A c 6 1 f.E.}.p.M A z A M n.OXOXz *.OX}.J ..OXOXXX}.$.2 4 % 3 , J !.OX",
"OXP., 5.OX`.H J ^.(.E.E.4.<.<.d W 3.#.8./.g.n 2 4 $ 2 1 c A.b.* B ^.$.0 e u.OXOXOX} @ % : % @ z `.OX",
"OX%.% B @XO., 4 o.}.}.^.E.^.}.g 0.].T.F.T.g.4 # % * $ # 8 A.d.Y / m.V O @ B OXOX1.* 0 0 M 0 , $ I OX",
"}...u A A.B o @ 0 I.^.^.Z.P E.E.XX6.Z.}.^.M * 2 6 c , * @ B OX|.@X8.* 2 1 & 7.P.b c N M Z N c c , %.",
"OXOXH.|.*.: e 0 : L Q.XX3., v.}.I.N 5.}.L 1 N N N F N z c & G  X{.^ c F N H y.~.8.6.5.6.p _ y.5.*.d.",
"OXOXOX@X*.N F F K l.^.^.V & X.OX$.$ 4 n.p.F I F J t U J F A J ^.XX} M z M n g.OXXXOXOX).. [ OX`.OXOX",
"OX3.I.`.J c 0 e e O.XXP./ U #.I.b * %  .B.I.P.D.w.X >.}.Y.Q.B.XX8.2 , % * : z A.OXXXOX(.q.G.OXI d.OX",
"XXc p.b., & $ % % 0 B.OX|.J.OXk.c F N %.oXOXXX@Xw.X :.OX!.OX@XOX@.# % 1 * @ : m.OXXXXXXXOXOXA.% M  X",
"@XW..X..$ : 0 1 $ # 5.OXXXOXXX3.e 4 0 J Q.oXOX5.a.W.|.^.^  X}.1.* z z N c 4 , 3 n.OXA.u.OXOX5.e F Q.",
"OXOX%.* M c B N e 0 % 7.OX@X}.b # * $ # d.OX}.z ^ OXOXp.v g.}.~ n A N C C N N 7 I OX8.N }.XXM * * 8.",
"OX}.*.J K J i i I J N | }.OX#.1 e M 0 : 0 R.v.1 z }.I.0 1 c Y.B.g.l.m.d j A.d.d.n.}.K c p.l.0 m q z ",
"@XOXY.Y.Q.`.f f }.Q.E.A.5.`.} K R i Y R c 5.3.y q v.b.@ # # 8.OXOXOX@Xa j OX@XOX@Xo.0 z n p.{.] h.~.",
"OXXXOX^.v.OXk ! OXOXOXI.v B..X`.}.p >.@X'.'.@XV.W.P.z 2 c 2 w b.E.%.}.G.N.^.^.^.n.n # % * | `.(.|.OX",
"OXOXOX6.N }.OXOXXXOX}.R z J ^.OXOXj.J.OXd.XXOXXXOXI.J F F A 3.$Xp.7 ^.{.H I.}.@XA.: $ % @ z ^.OX}.XX",
"OXOX}.8 O *.OXOXOXOXg.* & * 3.OX}.~.OXI.v p.@X^.!.6.e e 1 e c B.^.N.XXp.$ 5.OXl.9 * z c 4 * w R.OXOX",
"OXOX7.3 4 z E.OX@XOX*.@ * @ V OXv.n OX#.+ 0 Q.}.^.H $ % $ % % $.OXOXOX| 1 X.XXp.^ N F F N | d.E.I.A.",
"OXOX#.M N R ^.OXOXp.9 e B e z =.E.g.I.n e 0 p.OXl., 1 4 z : $ 0 R.OXn.2 4 * D.E.B N N z F v g.OX^ H ",
"OX!.0 * * * p.OX@XA.J F A A o. XOXOXb.M c n b.R.w e N M A c z , z ~.B.8.Q 9.7.K 4 e , % 0 4 c d.b.f.",
"OX3.* 5 0 $ V }.E.| 0 e : e 4 &.}.OXX.$ * @ B `.&.O.X.) > +.o.o.O.8.s.OXK.OXY.P $ & $ % % $ 0 p.OXOX",
"E.V N A S B 4 *.'.V $ % % % $ B `.l.4 6 n 4 & 7..X^.oXt.  c.OXOXXXV , E.OXOXv.% & : 4 0 $ % O } OXOX",
"XXI._.>.d ~.P.`.p.* , 2 e : % % l.v.R O.h ) } | OXA.#.J.{ W.OXOXm.0 2 3.OXd.@ 0 c z M N e 3 4 o ^ OX",
"XXOXOXW.r.OXOXd., v N M F M e 7 * d.OXOXg H.OXXXOX*.* I.OXOXOXOX6.e e 6.Q.L V N N M N Z N n N z 8 *.",
"OXm.y.OXOXA.`.v.J I J J t Y H J M 5.OX^.|.XXOXOXXXB : y.OXv.Q.OXz % % 3 `.l.J $.R O.h > ) X.I } K l.",
"OX$.B XX}.n m.}.A.!._.j.X 0.~.E.A.'.p.} OXOXOXOXv.e r B  XV 5.d.0 Z Z 5 ..Q.I.`.^.OXl - x.OX^.@XE.^.",
"XXY.F.OX`.E d.OXOXOXOXj.- w.OX@XOXOX<.K  XXXXXOX}.F.q.`.^./ 4.~.Q.,.` Q.Z.OXp.A.OXOXj ; w.OXOXOXOXOX"
};
