/* XPM */
static char *result[] = {
/* columns rows colors chars-per-pixel */
"50 50 107 2 ",
"   c #92BB17",
".  c #94BB1C",
"X  c #8EB12E",
"o  c #96BC23",
"O  c #98BF25",
"+  c #91B52E",
"@  c #96BB2B",
"#  c #99BD2C",
"$  c #8FAF31",
"%  c #8EB132",
"&  c #92B334",
"*  c #96BB34",
"=  c #99BD34",
"-  c #95B43B",
";  c #98B63E",
":  c #96B93A",
">  c #9BBD3B",
",  c #A0BF3E",
"<  c #99C027",
"1  c #9CC22D",
"2  c #9DC333",
"3  c #9DC23C",
"4  c #A0C72D",
"5  c #A1C82F",
"6  c #A0C635",
"7  c #A3C935",
"8  c #A1C63B",
"9  c #A5CA3B",
"0  c #A8CE3D",
"q  c #96B541",
"w  c #99B644",
"e  c #97B843",
"r  c #9BBC44",
"t  c #9BB64B",
"y  c #9CBB4B",
"u  c #9DB653",
"i  c #9EBB53",
"p  c #9FBA59",
"a  c #A0BF41",
"s  c #A1BE4C",
"d  c #A2BD53",
"f  c #A3BC5C",
"g  c #A5BD63",
"h  c #A8BF67",
"j  c #A6BE6B",
"k  c #AABE6B",
"l  c #A9BF74",
"z  c #9EC144",
"x  c #9FC14B",
"c  c #A1C444",
"v  c #A6CB42",
"b  c #A9CD44",
"n  c #A2C24C",
"m  c #A6C948",
"M  c #AACD4B",
"N  c #ACD04C",
"B  c #A3C352",
"V  c #A9C554",
"C  c #A6C854",
"Z  c #ABCA54",
"A  c #A6C25B",
"S  c #AAC55C",
"D  c #ACC95C",
"F  c #A7C063",
"G  c #ABC465",
"H  c #AECA63",
"J  c #ACC26B",
"K  c #AFC96A",
"L  c #B1C667",
"P  c #B1CB63",
"I  c #B1C46C",
"U  c #B4CB6D",
"Y  c #B4D06D",
"T  c #ADC273",
"R  c #ADC27A",
"E  c #B0C673",
"W  c #B5CC72",
"Q  c #B9CE72",
"!  c #B1C47C",
"~  c #B6CC7B",
"^  c #B6D174",
"/  c #B9D176",
"(  c #BCD27A",
")  c #AFC384",
"_  c #B3C584",
"`  c #B5C983",
"'  c #BACF84",
"]  c #B5C689",
"[  c #B8C78C",
"{  c #B7C98F",
"}  c #BACB8B",
"|  c #BDD383",
" . c #BED18C",
".. c #B6C790",
"X. c #BDCC93",
"o. c #BECE9A",
"O. c #BED193",
"+. c #C1D485",
"@. c #C1D58C",
"#. c #C1CF99",
"$. c #C3D694",
"%. c #C5D49C",
"&. c #C8D59F",
"*. c #C4D3A3",
"=. c #C9D4A6",
"-. c #C4D5A9",
";. c #CBD6AC",
/* pixels */
"x r r r r > > : * * * * * * : : > > = = = = = # @ @ O O o o . .             . . o @ = > a n C S L U ",
"x r r r > > > * * * * * * * : : > = > = = = = # # @ O O o . . .           . . . o @ = > a n C S L U ",
"r r r > > > > = * * * * = = = = = > > = = = = # # # O O o . . .           . . o o @ = > s n C S L W ",
"z z z > > > = = = = = = = = = = = = = 2 2 2 1 1 # # O o o . . . .         . . o o @ = > s n V S U W ",
"z 3 3 3 3 2 2 2 2 2 2 2 2 2 2 2 = 2 2 2 2 = 2 1 # < < < o o o . . . . . . . . o @ @ = > s n V D U Q ",
"8 8 3 3 3 2 2 2 2 2 2 2 2 2 2 2 2 2 2 2 2 2 1 1 < < < < O o o o . . . . . . o o @ @ > > c n V D W Q ",
"8 8 8 8 6 6 2 2 2 2 2 2 1 1 1 2 2 2 2 2 2 1 1 1 < < < < < o o o . . . . . o o o @ # > , c n V D Q Q ",
"8 8 8 7 6 6 6 6 6 1 1 1 1 1 1 1 2 2 2 2 2 2 1 1 < < < < < < o o o o o o o o o O @ = > a n n V D Q Q ",
"9 9 9 9 7 6 6 6 1 1 1 1 1 1 1 1 6 2 2 2 2 2 2 2 1 1 1 < < < < O < O O o o o o o # = > a s n Z P Q ( ",
"9 9 9 9 7 7 6 5 5 4 5 5 1 1 1 1 6 2 2 2 2 2 2 2 1 1 1 1 1 < < < # # O o o O o # # = > , s V Z P Q ( ",
"9 9 9 9 7 7 7 6 5 5 6 5 5 5 6 6 6 6 2 2 2 2 2 2 2 2 2 1 1 1 1 # # # @ O O O O @ # = > , s B Z P Q ( ",
"v v v 9 0 9 7 7 7 7 7 7 6 6 6 7 6 6 6 6 6 2 2 2 2 2 2 2 2 2 2 1 # # @ @ @ @ @ @ # = > a s B Z P Q ( ",
"b b b 0 0 0 0 7 7 7 7 7 7 7 7 7 7 7 8 6 6 6 6 6 6 2 2 2 2 2 2 2 # # # @ @ @ @ @ = = > a s C D P Q ( ",
"b b b b 0 0 0 0 7 7 7 7 7 7 7 7 7 7 8 8 8 8 6 6 8 8 8 3 2 2 2 2 1 # # @ # @ # # = = > a s n D P Q ( ",
"M b b b b b 0 0 7 7 7 7 7 7 9 9 8 8 8 8 8 8 8 8 8 8 8 8 3 3 3 2 = # # @ @ @ # # = = > a s V D P Q ( ",
"N M M b b b b 0 0 7 7 7 7 7 9 9 7 8 8 8 8 8 8 8 8 8 8 8 3 3 3 3 = = # @ @ @ # # = = > a s C D P W ( ",
"Z M M M M b b b 0 9 7 7 7 7 7 7 7 9 8 8 8 8 8 c c c c c 3 3 3 3 2 = * * * * * * * = > r n B Z H W ( ",
"Z Z M M M b b b 9 9 7 7 7 7 7 7 6 6 6 8 8 8 c c c c c c z 3 3 > > 3 * * * * * * = > > r n B C D W ( ",
"Z Z M M M b b v 9 9 7 7 7 7 7 6 2 2 2 2 3 3 3 z c c c c z z z z 3 > > = * * = = = = > r n n C D W / ",
"Z M M M b b v 9 9 7 7 6 6 7 6 6 2 2 2 2 3 3 3 z c c c c c z z z z 3 > > * * = = = > > r n n C D U ( ",
"M M M M v v 9 9 9 7 6 2 6 6 2 2 2 2 3 3 3 3 z z z z x c n z z z z z r > > > > > > > > r n C Z P U ( ",
"M M M v v 9 8 9 7 6 2 1 1 1 2 2 2 3 3 3 > z z x z x x n n n n x x z z r > > > 3 > > > c n C D H U ( ",
"M M m v v 8 8 6 6 2 1 1 1 1 1 = = > > > r r r r r y x n n n n n x x x z r 3 > > > > r c n Z D P U ( ",
"M m v v 8 8 8 6 6 2 1 1 1 1 # @ = : : : r r r y y y x n n n n n x x x x r r > > > > r n n Z D P W ( ",
"m m c c 8 8 3 2 2 1 # # @ @ @ @ * & : : ; r r y y y y x n n n B n n x x x z z z z c c n B C D P / ( ",
"m c c c 8 3 3 2 = 1 # @ @ @ @ @ & & : : ; e e y y y y x n B B B n B n x x x z z z z n n B Z D P ( ( ",
"c c z 3 3 3 2 = = @ @ @ + + + + & & & - - e e e y y y x B B B B B B B n x x x n x n n B V D P Y ( | ",
"c z > > > > = * * @ @ + + + + + X % & & - - q e y y y y n B B B B B B B n n n n n n B B S H P ^ ( | ",
"z z > > > > * * * + + + X X X X X X % & - - q q y y y y n B B B B B B B n n n n n B B S D H Y ^ | +.",
"r r r : : : * * & & + + X X X X X X % % % - q q e w y y x B B B B B B B B B n n B B S S H U ^ ( | +.",
"r r : : : : * & & & & X X X X X X X % % % - - q e e y y y n B B B B B B C B m C B C S D H U ^ ( | +.",
"r r r e ; : : & & & & % X X X X % % % % % - - q e e y y x n B B B B B B B C C C C A D H H U ^ ( +.@.",
"e e e e r ; ; - & & & & & & X X $ $ $ & & - - - e e e y s B B B B B B B B C C Z Z D H H U W / | @.$.",
"y y y y w q q ; - - & & & + + X $ $ $ & & - - - e e e y s B B B B B B B B C Z Z S D H K U W / | @.$.",
"t t t t w w q ; ; - & & & & + X $ $ $ & & & - - e r w y s s d B B B B B B B A A S D H K U W / | @.$.",
"u y y t t w w q ; ; - & & & & & $ $ $ & & & - - ; e e y y y d d B B B B B B B A S G H K U W ( | $.$.",
"i u u u u t t w w e ; - - - & & $ & & & & & - - ; e w e y y y s B B B B B B A A S G G K W W ( | $.%.",
"p p p p i i u y y e r ; ; ; - & & & & & & - - - ; e w w y y y y i i B B B B A A S G K K W ~ ( | $.%.",
"f f f f f f d u d y r e r e ; - & & & & - - - ; ; e w w t y y y i i i B B A A A G G K T ~ ~ |  .$.%.",
"g g g g g f f d d d y y r r ; ; - - & & - - - ; q q e w t t y y d i i B B A A A G G J T ~ ~ |  .$.%.",
"j j h h h h g f f f d s s y r e ; - - - - - - - q e w w t t t t i i i d d f A A F G J T ! ` '  .%.&.",
"l l l T T J J G F A f d d s y r e ; ; ; - ; q q e w w t t t t t u u i i d f f g h J T T ! ` ' } %.%.",
"R R R R R T T J G G A A A B s y r r e e e w w w w w t t t t u u u u i i f f f g h k T R ! ` } X.%.*.",
") ) _ _ ! ! E T J G G S A A B s s s r t r y t t w t t t t u u u i i i i f f g g h k T R _ ` } X.%.*.",
"] ] ] ] ` ` ! ~ E I K H S S V B s s s y s s t t t t t u u u u u p p p f f f g h k l R ! _ } X.X.%.*.",
"..{ { { } ` ` ~ ~ W U P P H S A V d d s s d d u u u u p p p p p f f f f f g h k k T R _ ] } X.#.*.=.",
"X.X.X.X.X.' ' ' ( Q Q U U P P D S V V A A d d d d d f f f f f f f f f g g G J J J R ! _ ] } X.#.*.=.",
"o.o.o.o.X.O. . .| ( ( Q ^ U U P P S S S S S A f f f f f g g g g g g g h J J J T T R ! ] [ X.X.%.=.;.",
"*.*.*.*.%.%.$.$.@.@.+.| ( Q Q Q U L L G L L G J G J G J k k k k k k k J T R R ! _ ] ] [ X.X.#.*.;.;.",
"-.-.-.-.-.*.%.%.$.$.@.+.+.( ( Q Q W W U U U I I I I I I E J I I k k T T R ! ! _ ] ] ] [ X.X.#.*.;.;."
};
