/* XPM */
static char *neve1702681965[] = {
/* columns rows colors chars-per-pixel */
"50 50 27 1 ",
"  c gray90",
". c #E6E6E6",
"X c #E7E7E7",
"o c gray91",
"O c #E9E9E9",
"+ c #EAEAEA",
"@ c gray92",
"# c #ECECEC",
"$ c gray93",
"% c #EEEEEE",
"& c #EFEFEF",
"* c gray94",
"= c #F1F1F1",
"- c gray95",
"; c #F3F3F3",
": c #F4F4F4",
"> c gray96",
", c #F6F6F6",
"< c gray97",
"1 c #F8F8F8",
"2 c #F9F9F9",
"3 c gray98",
"4 c #FBFBFB",
"5 c gray99",
"6 c #FDFDFD",
"7 c #FEFEFE",
"8 c white",
/* pixels */
"77777477777777777777777777777777777777777777474777",
"77777777777777777777777777777777777777777744444777",
"77777777777777777777777777777777447477774444444477",
"77777777777777777777777777777777744474477444<<4<77",
"7777777777774747777777777777777747444447444<<<<447",
"7777777447444747777777777777777774444444444<<<<447",
"7777474444444444447777777777777774444<4444444<4<44",
"777744444444444477777777777747774444444444444<<<44",
"7444444444444744477777777444474774444744744444<<44",
"44<4<4<4444444447777777444444447747747474474444444",
"4<<<4<<<444447447777777444444477774777444444444447",
"<4<<<<<<444444444777774<<<<4447447774444<4<<44<447",
"<<<<<;<<<<444<444744444<<<447477744444<<<<<<<<<447",
"<<<<<<<<<<<4<<<447474<<<<<4477777444<<<<;<;;<<<<44",
"4<<<<<<<<4<<4<<44744<<<<<<447777744<<;;;;;;;;<;<44",
"<<<<;<<<<<<<<4444444<;;;<447777774<<;$$$;$;;;<;<44",
"4<<<;<<<<<<<44447444<;;<<<47777777<;$+$$;;$;;<;;47",
"4<<<<<<<<<<<4477744<<;<;<447777774<;$++$$;;;;;;<<7",
"<4<<<<<<44444474744<<;;;<44477774<<;$+$$$;;;;;<<44",
"<<<<<<4444444474444<<;<<444777474<;$$$$;;;;;;<<<47",
"44<<<44447477444444<<<<<<4477744<<;;;$;;<;<;<<4477",
"<<<444447777444<<44<<<<<4447744<;;;$;;;;<<<<<44777",
"44447777777744<<<<<<<<;<<44444<<<;;;<;<<<<4<447777",
"4444777777774<<<<;;;;<<<<44444<<;;;;<<<<4444477777",
"477777777774<<<;;;;;;<<<<4<44<<<<;<;<<444477777777",
"77777777444<<;;;$$$$$;<<<44<4<4<;;<<44444477777777",
"77777774<<;;;;$$++++$;;<<<<4<4<<<<<<44447477777777",
"7777774<;;$+++++   +$$;<<<444444<<<<44747777777777",
"777774<<;$+++++    ++$;;<<<44444<<<477777777777777",
"777774<;$$++ +++++ ++$$;;<<4474<<<4477777777777777",
"777774<;;$+++$+$$+$;$$$;<<44444<<<4477777777777777",
"7777444<;;$$$;;;<<<<;;$;<<44444<<<<477777777777777",
"7777744<<;;$;;<<4444<;;;<<4444<<<<<477777474777777",
"7777444<<<<;<<447777<;;<<4444<<<<<4444474444477777",
"777744444<<<<44477744<<<47744<<<4<<444444<44477777",
"744444444444444777744<<447774<<<<<<444<<<<<4477777",
"7444444444444477774444<477444<<<<<<<<<<;<<<<447477",
"744447744474777447444<44444<<;;<<<<<;<;;;;;<444477",
"77444444747447774744<<<<<<<<<;;;<<;;;;;$;;<<<44477",
"777777777444444477444<<;<;;<;;;;;;;$$$$;;;;<<<<444",
"777747774444474474444<<;;;;;;;;;;;;$$$$;;;<<<<<477",
"77447744777444477474<<<;;$$;;<<<<<;;;;<<<<<<<<4<47",
"777774777744744474444<<;$$$;;<<<<<<<<;<<44<<<<<477",
"474474444447444444444<<;;$$;<<444444<4447444<<4477",
"77444444444444<4444444<<;$;<<4474474447777444<4477",
"7444444<<4<<44444444444<<<;<4777744774477474444777",
"74444<<<<<<<4<<444474744<4447777777777777474777777",
"7444<4<<<<<<<<<44447477747447777777777447774777777",
"44444<<<<<<<<<<44447777777777777777777777777777744",
"44444<44<<<<<<4444477477777777777777777777744477<<"
};
