/* XPM */
static char *presente1702682027[] = {
/* columns rows colors chars-per-pixel */
"50 50 190 2 ",
"   c #2D560B",
".  c #2F580E",
"X  c #30590F",
"o  c #2E5C13",
"O  c #325A12",
"+  c #365F19",
"@  c #37601B",
"#  c #3D6623",
"$  c #356722",
"%  c #446D2E",
"&  c #48682A",
"*  c #57652F",
"=  c #4A6F32",
"-  c #4D753C",
";  c #497437",
":  c #50753D",
">  c #6C6B3E",
",  c #7E633F",
"<  c #4C7C43",
"1  c #477C41",
"2  c #537B45",
"3  c #567D4A",
"4  c #5A7F4C",
"5  c #746E44",
"6  c #7E6843",
"7  c #637344",
"8  c #6F754B",
"9  c #637C4C",
"0  c #6E784D",
"q  c #73754C",
"w  c #777148",
"e  c #697D52",
"r  c #717A53",
"t  c #7C7A55",
"y  c #805E39",
"u  c #915B3E",
"i  c #98593D",
"p  c #A7563F",
"a  c #9D5B42",
"s  c #925F41",
"d  c #AB5946",
"f  c #A45D48",
"g  c #B55443",
"h  c #BA5144",
"j  c #B55846",
"k  c #BF5648",
"l  c #B75A49",
"z  c #876E4A",
"x  c #896A48",
"c  c #986549",
"v  c #A3634B",
"b  c #B8604E",
"n  c #CE4F4C",
"m  c #C74C44",
"M  c #DC4C4E",
"N  c #C65047",
"B  c #CA5049",
"V  c #D2534E",
"C  c #DA504F",
"Z  c #DC4C50",
"A  c #C35C50",
"S  c #CC5852",
"D  c #D55552",
"F  c #DC5453",
"G  c #D85B57",
"H  c #E45556",
"J  c #E45659",
"K  c #EA565A",
"L  c #E65A5B",
"P  c #EC5A5D",
"I  c #F25A5F",
"U  c #DB605C",
"Y  c #EF5F63",
"T  c #F75760",
"R  c #FF5663",
"E  c #F45B61",
"W  c #FE5B66",
"Q  c #FF5E69",
"!  c #CE6561",
"~  c #EC6364",
"^  c #E16967",
"/  c #F16065",
"(  c #F66369",
")  c #FE626D",
"_  c #FF6771",
"`  c #FE6C75",
"'  c #FF6F78",
"]  c #F66F72",
"[  c #FF747C",
"{  c #4F804A",
"}  c #59814E",
"|  c #54844F",
" . c #568552",
".. c #5C8454",
"X. c #568856",
"o. c #598955",
"O. c #5F8758",
"+. c #5C8B5C",
"@. c #5F905F",
"#. c #638354",
"$. c #6D8157",
"%. c #628856",
"&. c #628759",
"*. c #638A5C",
"=. c #6A8A5D",
"-. c #68875D",
";. c #5D8F61",
":. c #668E63",
">. c #688F65",
",. c #728D66",
"<. c #659166",
"1. c #699066",
"2. c #669368",
"3. c #6B9269",
"4. c #739166",
"5. c #72946D",
"6. c #7A956C",
"7. c #7B996C",
"8. c #759772",
"9. c #7E9575",
"0. c #759974",
"q. c #7A9A76",
"w. c #7D9B7A",
"e. c #958262",
"r. c #819D7D",
"t. c #8C9F7E",
"y. c #819677",
"u. c #B78A77",
"i. c #88A27D",
"p. c #C48F7F",
"a. c #EF7F80",
"s. c #FE7B82",
"d. c #FE7C89",
"f. c #8E9986",
"g. c #86A082",
"h. c #8CA282",
"j. c #8CA38A",
"k. c #8AA985",
"l. c #96A88E",
"z. c #9BAC92",
"x. c #9EA89A",
"c. c #9DB293",
"v. c #A3B49A",
"b. c #AEBAA3",
"n. c #ADBAB0",
"m. c #FF8187",
"M. c #FE848A",
"N. c #E78C90",
"B. c #FE8C91",
"V. c #F4999C",
"C. c #FC979D",
"Z. c #FB9AA0",
"A. c #EEA0A3",
"S. c #F9A7A9",
"D. c #EEAFB0",
"F. c #F7AEB3",
"G. c #FDB8B9",
"H. c #B3C2AE",
"J. c #B2C1A5",
"K. c #BDC4B5",
"L. c #BFCAB6",
"P. c #BBC3BB",
"I. c #CBC9BC",
"U. c #C5D0BD",
"Y. c #C7CFC5",
"T. c #C8CEC4",
"R. c #CCD3C7",
"E. c #D3DACD",
"W. c #DAD5CC",
"Q. c #D9DFD5",
"!. c #D7DBD5",
"~. c #ECC3C4",
"^. c #F3CDCE",
"/. c #FAC2C6",
"(. c #F7D8D8",
"). c #DCE4DC",
"_. c #E1E4DE",
"`. c #E5E7E4",
"'. c #ECEDEB",
"]. c #EAE7E4",
"[. c #F7E2E2",
"{. c #FAE0E1",
"}. c #EFF1EE",
"|. c #F0F2EF",
" X c #F5F5F5",
".X c #F9F6F6",
"XX c #F7F8F7",
"oX c #F8F8F7",
"OX c #FCFCFC",
"+X c #FBF7F8",
/* pixels */
"OXOXOXOXOXOXOXOXOXOXOXOXOXOXOXOXOXOXOXOXOXOXOXOXOXOXOXOXOXOXOXOXOXOXOXOXOXOXOXOXOXOXOXOXOXOXOXOXOXOX",
"OXOXOXOXOXOXOXOXOXOXOXOXOXOXOXOXOXOXOXOXOXOXOXOXOXOXOXOXOXOXOXOXOXOXOXOXOXOXOXOXOXOXOXOXoXOXOXOXOXOX",
"OXOXOXOXOXOXOXOXOXOXOXOXOXOXOXOXOXOXOXOXOXOXOXOXOXOXOXOXOXOXOXOXOXOXOXOXOXOXOXOXOXOXOXOXoXOXOXOXOXOX",
"OXOXOXOXOXOXOXOXOXOXOXOXOXOXOXOXOXOXOXOXOXOXOXOXOXOXOXOXOXOXOXOXOXOXOXOXOXOXOXOXOXOXOXOXoXoXoXoXOXOX",
"OXOXOXOXOXOXOXOXoXOXOXOXOXOXOXOXOXOXOXOXOXOXOXOXOXOXOXOXOXOXOXOXOXOXOXOXOXOXOXOXOXOXOXXXXXXXoXoXOXOX",
"OXOXOXOXOXOXOXOXOXOXOXOXOXOXOXOXOXOXOXOXOXOXOXOXOXOXOXOXOXOXOXOXOXOXOXOXoXXXOXOXOXOXOXXXXX XoXoXOXOX",
"OXOXOXOXOXOXOXOXOX.X.XOXOXOXH.6.:.=.z.|.OXOXOXOXOXOXOXOXOXOXOXOX+XOXOXOXOXXXoXOXOXOXXXXX.XoXoXoXOXOX",
"OXOXOXOXOXOXOXOXOXOXOXOX).6.>.r.h.g.3.,. XOXOXOXOXOXOXOXOXOXOXOXOXOXXXOXOXQ.U.).XX.XOXOXoXoXoXoXOXOX",
"OXOXOXOXoXOXoXoXOXOXOXL.*.3.3.3.3.w.j.8.-.'.OXOXOXOXXXoXOXOXOXOXOXOXOX'.y.&.*.*.4.E.OXOXOXoXOXoXOXOX",
"OXOXXXOXXX+XoXOXoXOXP.:.3.<.1.<.1.:.5.w.1.6.OXOXOXOXOXOXOXOXOXOXOXOX_.-.3.>.1.<.3.O.J.OXOXOXoXoXOXOX",
"oX.XXXXXXXXXXX+XOX|.8.:.*.3.1.1.1.1.:.3.:.3.f.+XOXXX.XXXOXOXOXOXOX|.%.3.:.>.>.<.5.5.:.n.OXoXoXoXOXOX",
"oX.XXXXXXXXXXXXXoX_.-.O @ } 3.1.:.:.1.:.1.1.1.P.OXXXOXOXOXOXOXOX|.>.5.>.>.:.3.f.g.w.0.&.`.OX+XXXOXOX",
"oXXXXX X X XXX+XoX_.*.  X X 2 3.1.:.1.:.>.>.3.>.`.XXOXOXOXOXOXOXr.3.:.>.>.3.r.5.3.:.*.1.b.+X X+XOXOX",
"+XXXXX X X XXX XXXOXf.:   X X : 3.1.>.1.>.>.:.1.9.XX[.^..XOXOXx.3.>.>.>.>.3.>.>.O.# O *.b.+XXXXXOXOX",
"XXXXXXXX X XXXXXXXXX'.:.- X X   - 1.1.>.>.3.3.>.@.p.L G ^ D.T.-.>.3.>.>.>.>.<. .O .   O.!. X X XXXOX",
"oXXXXXXXXX X X+XXXXX.X'.i.2 % @   # *.3.>.:.5.3.3.q H H J N #.3.5.3.>.>.>.3.} O o . = j.|. X X XOXOX",
"XX+XXX X X X XXXXXXXXXXXXXR.h.4.4 = # 3 :.:.>.3.3.-.a g l 4 3.5.3.3.>.3.>.< O . O % ,.|.|. X X XOXOX",
"oX.XXX X X XXXXXXXXXXXOXXX'.R.c.6.-.2 2 4 4 4 O.O.3 ;...2 :.O.O.&.O.O.4 #   O $ ; k.'.|.|. X|. XOXOX",
"oXoX.XXXXXXXXXOXOX`.L.i.=.*.:.>.1.3.1.3.3.:.:.:.< >.>.3.2 ....4 3 2 % + + & 7 e.W.|. X X X X XXXOXOX",
"oXoX XXX XXXXXU.h.*.*.3.3.2.1.>.:.3.3.3.3.3.3.3.2 3.>.3.3 3.5.3.3.3.2.:.4 7 f E d.F.{.|. X XXX.XOXOX",
"OXoXoXoX'.v.4.*.3.3.1.1.>.>.>.1.5.3.3.3.3.>.O.X.1 < ;.3 1 X.>.5.3.3.>.>.3.>.;.9 c Y ) B.(. XOXOXOXOX",
"oXoXoXY.#.:.3.3.1.:.1.:.>.>.>.3.>.1.:.O.4  .3 7 a G b d 5 < 3 3 :.5.5.>.>.:.3.2.;.4 v T ) F.OXOXOXOX",
"oX+X|.>.3.1.>.>.>.>.>.>.:.>.>.3.:...4 ..+.4 f E ) Q Q Q K s 4 ;.3 3 >.5.3.>.>.>.2.2.;.q U W OXOXOXOX",
"OX+XT.:.>.>.>.1.:.:.>.1.>.3.:...4 ..1.+.x D Q Q Q Q Q Q Q R g 9 2.O.3 ..3.3.>.>.>.3.w.3.4 A OXOXOXOX",
"OXOXi.3.3.>.>.:.1.8.8.3.:...3 ..>.3...a I Q Q Q Q Q Q Q Q Q Q n 7 >.:.3 3 :.:.:.>.>.5.j.w.X.I.OXOXOX",
"OXOX=.1.:.:.:.r.r.8.3.+.3 ..>.>.<.4 h R Q W ) Q Q Q Q Q Q Q Q Q h ..3.3.O.3 :.3.>.>.:.3.l.3.:.OXOXOX",
"OXOX#.1.:.5.h.w.>.:.9 a e 3.>.>.*.d ` ) R Q Q Q Q Q Q Q Q Q W W Q 5 2.>.3.:.2 O.3.:.>.:.q.w.*.OXOXOX",
"OXOX} 1.q.g.5.<...x V G X.>.>.>.e D ` [ [ ) W ) Q Q Q Q W Q ' s.' s 3.>.:.3.>.* O.3.>.:.3.8...OXOXOX",
"OXOX2 0.q.3.*.y.u.Z H D X.>.>.>.r J Q Q ' m.m.) R Q R _ d.d.s.) W f :.:.>.>.:.6 i X.>.>.:.>.O.OXOXOX",
"OXOX2 0.:.-.H. XA.V D S X.>.>.>.r K Q Q W W ' M.m.` B.B.s.Q R Q Q g 2.:.:.:.3.6 M u O.>.1.>...OXOXOX",
"OXOX3 O.z. XXX XV.F D S X.>.>.>.q P Q Q Q Q Q Q ` S.[ Q R Q Q Q Q g 2.>.>.3.3.z H n , :.1.>.&.OXOXOX",
"OXOX).R.OXOXXXXXA.C L E X.>.>.>.8 P Q Q Q Q Q ) R B.R Q ) Q Q Q Q g 2.>.>.:.>.x E N m > <.1.*.OXOXOX",
"OXOXOXOXOXOXXXXX~.J Q Y ..>.>.3.0 L Q Q Q Q Q Q R m.Q ) Q Q Q Q Q j <.1.>.:.3.z I P n ! q.3.6.OXOXOX",
"OXOXOXOXOXOX.XOXXXG.) ( #.>.>.>.0 V E Q Q Q Q Q Q s.W Q ) W W Q ) g <.1.>.1.1.x Q Q M N.|.&.z.OXOXOX",
"OXOXOXOXOXOXOXOXOXXX/.( t >.>.>.r D L L E Q Q Q Q [ Q Q ) ) _ ] / p <.1.1.:.3.x Q R ` {.OX}.XXOXOXOX",
"OXOXOXOXOXOXXXOXOXXXoX[.u.3.>.>.$.D Q E L P E ) Q ` Q W ( ~ ~ P E c <.1.<.3.2.b Q S.].XXOXOXOXOXOXOX",
"OXOXOXOXOXOXOXOXOXXXOXOX'.&.3.>.&.A ) Q Q L L P E ) I L P I I Q Q x 3.>.>.1...] ^. XXXXXOXOXOXOXOXOX",
"OXOXOXOXOXOXOXOXOXOXOXOXOXR.*.3.+.f Q Q Q Q Q P L L P E Q ) ) Q Q w 1.>.1.3.9. X|. X XXXoXOXOXOXOXOX",
"OXOXOXOXOXOXOXOXOXOXOXOXOXOX_.,.3.5 Q Q Q Q Q Q W ) W Q Q Q W Q I r 3.3.:.7.`.'.|. X X XXX.XOXoXOXOX",
"OXOXOXOXOXOXOXOXOXOXOXoXOXOXOXOXt.< K Q Q ) Q Q Q _ W ) Q Q ) W G -.1.&.v.'.|. X|. X XXXXXXXXXOXOXOX",
"OXOXOXOXOXOXOXOXOXOXOXOXXXOXOXOXOX!.I.d.Q Q Q Q Q s.Q Q Q Q Q Q v  .f._.}.}.'. X X XXXXXXXXX+XXXOXOX",
"OXOXOXOXOXOXOXOXOXOXOXOXOXOXOXOXOXOXOX.XS.) Q Q R m.Q Q Q Q ) C.K.). X X|.|. XXX X XXX+XXX XoXoXOXOX",
"OXOXOXOXOXOXOXOXOXOXOXOXOXOXOXOXOXOXOXOXoX(.s.R R m.R ) ) Z.[.XX.XXXXXXX X XOXXX+X+X+XoXoXoXoXoXOXOX",
"OXOXOXOXOXOXOXOXOXOXOXOXOXOXOXoXOXOX.XXXOXoXXXD.' M._ V.[.OXOXOXoXoXoX+X+X+XOXOXOXOXoXoXoXoXoXOXOXOX",
"OXOXOXOXOXoXOXOXOXOXOXoXXXOXXXOXOXXXOXOXOXOXXXXX X}. X XOXOXOXOXOXOXOXOXOXOXOXOXOXOXOXOXoXoXOXOXOXOX",
"OXOXOXOXoXoXoXoXoXoXoX.XOXXXXXOXOXOXOXOXOXXXOXXX X X X XOXOXOXOXOXOXOXOXOXOXOXOXOXOXOXOXOXOXOXOXOXOX",
"OXOXOXOX+XXXXXXX+XXX XXXXXXX.XOXOXXXOXOXOXOXOXOXOXXXXXOXOXOXOXOXOXOXOXOXOXOXOXOXOXOXOXOXOXOXOXOXOXOX",
"OXOXOXOX+XXXXXXXXXXXXX XXXXXXXOXOXOXOXOXOXOXOXOXOXOXOXOXOXOXOXOXOXOXOXOXOXOXOXOXOXOXOXOXOXOXOXOXOXOX",
"OXOXOXXX.XXXXX.XXXXXXX X XXXoXoXOXOXOXOXOXOXOXOXOXOXOXOXOXOXOXOXOXOXOXOXOXOXOXOXOXOXOXOXOXOXOXOXOXOX",
"OXOXOXXXOXXXXXOX.XXXXXXXXX+XoXoXOXOXOXOXOXOXOXOXOXOXOXOXOXOXOXOXOXOXOXOXOXOXOXOXOXOXOXOXOXOXOXOXXXOX"
};
