/* XPM */
static char *result[] = {
/* columns rows colors chars-per-pixel */
"50 50 230 2 ",
"   c #050506",
".  c #171918",
"X  c #211E15",
"o  c #3B3324",
"O  c #32322A",
"+  c #463828",
"@  c #483E32",
"#  c #44422E",
"$  c #484236",
"%  c #524B3B",
"&  c #594A3D",
"*  c #59533D",
"=  c #604F3B",
"-  c #514D46",
";  c #595547",
":  c #4D4F4F",
">  c #675846",
",  c #675E53",
"<  c #686659",
"1  c #746A58",
"2  c #66614E",
"3  c #5A696E",
"4  c #6D6D60",
"5  c #656B6C",
"6  c #746E63",
"7  c #776B62",
"8  c #74766C",
"9  c #7A7267",
"0  c #767874",
"q  c #676C70",
"w  c #82745E",
"e  c #8C7C6C",
"r  c #857667",
"t  c #857C77",
"y  c #7B807D",
"u  c #94836E",
"i  c #8D847A",
"p  c #888177",
"a  c #938579",
"s  c #968C7C",
"d  c #958874",
"f  c #99907E",
"g  c #A7927A",
"h  c #6C7D88",
"j  c #747F83",
"k  c #79858B",
"l  c #788D94",
"z  c #76929E",
"x  c #6F95AC",
"c  c #7796A7",
"v  c #789DB6",
"b  c #7DA3BA",
"n  c #709CC1",
"m  c #828483",
"M  c #8A8C84",
"N  c #89878A",
"B  c #948C83",
"V  c #9A8E80",
"C  c #9A9387",
"Z  c #848E95",
"A  c #9D9A95",
"S  c #949797",
"D  c #859A9F",
"F  c #A39484",
"G  c #AB9C8C",
"H  c #A79988",
"J  c #A59C93",
"K  c #AA9D92",
"L  c #A9968A",
"P  c #9CA19A",
"I  c #B7A38B",
"U  c #ACA59A",
"Y  c #A7A299",
"T  c #B3A493",
"R  c #B5AC9D",
"E  c #BAAB9B",
"W  c #BBA995",
"Q  c #8E9DA2",
"!  c #879BA9",
"~  c #89A1AA",
"^  c #95A4A8",
"/  c #84A8BE",
"(  c #86A5B7",
")  c #97ACB7",
"_  c #97B3BE",
"`  c #A6A5A2",
"'  c #AAABA7",
"]  c #B3ACA3",
"[  c #BCAEA5",
"{  c #B4AFAA",
"}  c #AEB1A9",
"|  c #BBB3A4",
" . c #B3B3AD",
".. c #BCB3AB",
"X. c #BDBBAF",
"o. c #A6B5BA",
"O. c #B3B2B3",
"+. c #BCBBB5",
"@. c #B7B8BA",
"#. c #AEADB2",
"$. c #C5AD9C",
"%. c #C7B39D",
"&. c #C3BBAD",
"*. c #CBBBAD",
"=. c #C8B5A6",
"-. c #D3BCAA",
";. c #C5BCB5",
":. c #C3BEBA",
">. c #CBBDB1",
",. c #D2BEB2",
"<. c #C9C1AF",
"1. c #D5C1AC",
"2. c #DEC4A9",
"3. c #C3C2BD",
"4. c #CCC4BB",
"5. c #C9C4B8",
"6. c #D5C3B4",
"7. c #D5C9B6",
"8. c #D8C8B9",
"9. c #D3D0BD",
"0. c #E2CDBC",
"q. c #E1D1BB",
"w. c #84ABC3",
"e. c #8AADC3",
"r. c #84A9C6",
"t. c #8DB2C6",
"y. c #8DB3CA",
"u. c #8FB8CE",
"i. c #9BB6C7",
"p. c #91B5CB",
"a. c #94B9CB",
"s. c #97B9C8",
"d. c #95BAD2",
"f. c #9BBDD3",
"g. c #97BAD6",
"h. c #91B2CA",
"j. c #A2BDCA",
"k. c #A6B8C3",
"l. c #B6BEC5",
"z. c #A4BFD0",
"x. c #9DC1D5",
"c. c #9DC4DA",
"v. c #9FC9DE",
"b. c #96C3D8",
"n. c #BCC3C4",
"m. c #BDC6CB",
"M. c #A3C2D5",
"N. c #ABC4D4",
"B. c #A3C6DB",
"V. c #AAC5DA",
"C. c #A5CADE",
"Z. c #ABCBDD",
"A. c #AACAD7",
"S. c #B2CEDD",
"D. c #B6CBD7",
"F. c #BBD1DE",
"G. c #AED0DC",
"H. c #9ECBE4",
"J. c #9CC7E3",
"K. c #9ED1EA",
"L. c #9CCCF0",
"P. c #A3C7E1",
"I. c #A6CCE3",
"U. c #A9CDE4",
"Y. c #A4CEE9",
"T. c #AACEE9",
"R. c #B2CDE2",
"E. c #B8CEE3",
"W. c #A6D0E5",
"Q. c #AAD1E6",
"!. c #A6D1EA",
"~. c #ABD2EA",
"^. c #AED9EA",
"/. c #B3D2E5",
"(. c #BCD5E4",
"). c #B3D5EA",
"_. c #BBD6EB",
"`. c #BCD9EB",
"'. c #B7D8E9",
"]. c #ABD5F2",
"[. c #ADDAF4",
"{. c #A6D4F4",
"}. c #B3DCF3",
"|. c #A5CDF0",
" X c #CCCAC5",
".X c #CCCCCA",
"XX c #C6C7C7",
"oX c #D2CAC4",
"OX c #D5CFC7",
"+X c #CED0CB",
"@X c #DDD4CB",
"#X c #D6D2C8",
"$X c #CACED3",
"%X c #C1CBD1",
"&X c #D5CFD1",
"*X c #CCD3D7",
"=X c #D4D4D6",
"-X c #DAD5D3",
";X c #D3D6DA",
":X c #D2DADD",
">X c #DDDDDC",
",X c #D6DAD4",
"<X c #E2D3C3",
"1X c #E4D5CB",
"2X c #E0DCD9",
"3X c #E6E3DD",
"4X c #C3DCEC",
"5X c #C8DCE8",
"6X c #D5DDE3",
"7X c #DADCE3",
"8X c #D8DDE9",
"9X c #C2DEF3",
"0X c #C9E0EC",
"qX c #DCE4EB",
"wX c #DAE3E7",
"eX c #DAE5F1",
"rX c #DDEAF2",
"tX c #DEEDFA",
"yX c #D5E7F2",
"uX c #DFF0FF",
"iX c #CAE1F1",
"pX c #E2E4ED",
"aX c #E4EBEF",
"sX c #E2EDF5",
"dX c #EAEEF4",
"fX c #E4EEFB",
"gX c #ECF5FD",
"hX c #E6F4F9",
"jX c #FBFDFD",
"kX c #F2EAE7",
/* pixels */
"I.U.U.I.I.I.I.U.U.I.U.U.I.I.T.I.U.U.I.Y.Y.U.U.U.I.U.U.U.P.Y.I.U.I.U.U.U.I.U.U.I.I.I.I.I.I.I.I.I.I.I.",
"U.I.I.U.I.^.C.U.U.I.U.I.I.U.U.I.I.I.I.I.W.I.I.I.U.I.I.I.Q.I.I.I.I.I.P.Y.I.I.I.Q.W.U.U.I.U.I.I.I.I.I.",
"U.I.I.I.I.f.M.U.Q.U.I.I.I.U.I.I.I.I.U.U.C.I.Q.I.I.U.v.W.U.U.I.I.I.U.U.U.U.U.I.P.I.W.I.C.U.B.I.T.I.I.",
"U.I.I.~.e.p.M.Z.).).U.U.U.I.I.U.U.U.U.U.U.C.U.I.I.Y.I.Q.B.M.U.U.U.I.Y.Y.Y.Y.I.U.W.P.d.M././.U.I.I.I.",
"I.U.~.y./ c.M.U.(.4XU.U.I.I.I.I.I.T.P.!.I.!.v.T.Y.Y.U.U.a.x././.I.W.U.I.Q.U.I.I.~.p.t.B.R.9XT.I.I.I.",
"I.I.~./ e.B.U.C.F.iX/.I.I.I.Q.I.I.I.I.I.I.W.}.~.C.U.I.T.e.x./._.U.B.I.U.I.I.U.I.W.w.a.U.Z.9XT.U.I.I.",
"I.I.~./ p.f.U.C.(.9XU.I.I.U.C.U.S.5Xk.^ ^ Q 3 ! D.V.~.Y.f.f./.U.I.~.].Y.J.!.).U.~.y.p.C.R.`.U.I.I.I.",
"U.I.U.g.b P.I.C.`._.U.I.I.U.M./.8XjX1X,.<X@     @.j.W.!.U.U.U.W.{.s.Z m M j c ~.U.I.u.x./.Z.I.I.I.I.",
"I.I.U.Q.p.e.M.R._.I.A.T.C.I.M.B.N.sX-X<.#X.   .XkXm.c ).I.Y.~.I.k e R  X-X@XB D ^.U.U.I.!.I.U.U.I.I.",
"U.I.I.U.W.B.C.Z.I.Y.W.Y.W.Y.W.T.V.D.9.=.&X#.X O.jX Xf t.~.I.J.4 J qXyX&X X@X0.! !.I.U.I.I.I.I.I.I.I.",
"U.U.I.P.W.I.I.W.U.P.I.I.f.Y.B.I.b.(.#X,.` dXjXjXjXB q.U f.U.;  .hX*.] 4.8.7.=.a.].I.U.I.I.U.I.I.I.I.",
"U.I.I.Q.I.I.I.I.I.~.P./.l.B.Q.T.B.F.#X=.*.B #.#.t ..q.8.` : ` gX` @.:XXX>.6.l.I.P.Y.Q.I.I.U.I.Y.I.I.",
"I.I.W.C.C.U.U.I.Y.T.H.o.%Xf.b.T.Y.%X1X$.,.*.T Y >.2X<X#X=.p uX@.=XwXJ W =.m.{.Q.~.U.I.I.U.U.I.I.I.U.",
"C.W.I.t.B././.U.T.Z.P.0 Y o.k.N.f.R.&XW ..&.1.7.1.=X>X6.0. XwXeXyXO.,XoX] ^ _ s.Z.Q.P.I.U.I.P.U.U.U.",
"U.I.J.e.Z.`./.I.I.Q.c.9 u B ] OX-XM.i.E $.| &.*.*.sX:X6.8.<.=XfX8XsX:.R 4.8.,.T ! U.!.I.I.I.W.I.U.I.",
"U.I.Y.d.M./.U.!.Y.Q.g.1 e i u f G A Y T W [ =.%.oXtX-X-.7.7. XtXsX:.3.yX=XOX-Xq.! Z.I.I.T.I.W.U.U.I.",
"U.U.W.B.A.Y.L.l.o.o.e.< w r a d s F H G T R E =.eXfXoX1.6.6.5.wXpXyXqX3.*X;X@X*.M.T.I.I.U.I.I.I.I.I.",
"Y.I.U.T.Q.W.!.3.<X-XS ; 1 9 r t a s V H G K ] >XfX>X*.>.5.6.,.+XfXwX+XaX>X9.@.Y.U.Q.I.U.P.I.Q.I.I.I.",
"I.C.U.!.( ! M.o.*.7X8X4 , < 1 8 e d d f C { 6XtXaX;.E 4.-X*.6.3.sXeX6X*.%.' C.I.Z.I.C.U.!.U.U.T.I.I.",
"U.U.W.f.0 u B } | 8XgXXX> t e 1 9 r a Y XXqXfXsX3.E *.>XoX=.1...5XdX:X*X4...+. Xo.x.!.U.I.I.U.Y.I.I.",
"Z.I.~.x.5 s Y l.8XrXdXwX; < } *X:X6XwXgXgXdX=X{ G T ;.;...=.-.| n.dXqX*XoX<X@X@X[ s.{.U.C.I.I.I.I.I.",
"T.I.I.^._ < M ] n.%Xm.D O % % 8 A O.n.n.{ K a F F U T T .X..-...^ dXaX8X.XOX.X3X[ f.{.U.U.U.I.I.I.I.",
"I.I.Q.H.].V.c z ~ h.x./.3 o - % = * , 7 1 r f i ] +.F E ;X] E >XA sXeXsXsXpX3X6.) T.Y.f.M.U.U.I.I.I.",
"I.!.M.Z.I.U.[.[./.Q.!.Q.d.o # % - 6 < > i p A 3.$XG ] $XX.E oX;XH $XqX7X=X4. ._ K.Q.h.a.B.'.`.I.I.I.",
"U.M.p.Z.`.U.I.C.U.I.U.I.[.~ O + # 6 O.O.' 1 r a d i H F F &.&.[ G y ^ Q ) _ V.!.W.H.w.f.Y./.5XT.I.U.",
"Q.b.e.Z.`.U.I.I.Y.W.C.U.I.).~ O o @ , p 2 2 , A P r p ] F f R W T ~ !.!.!.Q.T.Y.I.U.( f.C.S.5XQ.U.U.",
"Y.B.f.C./.U.I.I.I.I.!.U.Z.Y.[.i.: O + $ ; B @.m.d d  .;.e C *XJ ] S A.!.B.T.Y.Z.Y.Q.c.t.B.(.U.C.U.I.",
"Y.W.U.I.I.I.I.I.U.~.g.p.Z.).Y.~.].l @ + $ ; 9 > t #.O.i ' $X@.L 4.K ) !.!.C.Y.I.I.U.I.I.C.C.I.T.I.I.",
"I.U.U.I.I.I.I.U.T.P.w.x.B.(.4XI.Y.}.M.h : + % 8 * 2 4 8 a d d F G K J k.!.C.Z.T.Z.~.P.Q.I.I.U.I.I.I.",
"I.I.I.U.U.I.I.I.I.c./ P.I.F.0Xv.U.I.I.[.U.! ) hX .> > 1 e U ` d  .P H G ) U.^.{.~.Y.!.I.U.~.U.I.I.I.",
"I.U.I.U.I.I.U.I.I.I.w.d.B.`./.W.U.U.T.H.C.k.qXdXdX+.0 0 1 i 0 F U K K G I M ! k.s.j.j.o.Q ! ~.U.I.I.",
"U.I.I.W.I.I.U.U.I.T.P.f.N.R.Y.I.C.U.P.~.B.) sX8X:X3Xn.f.d.Z 9 6 w C Y +.U r  .:.{ =.>.<X0.y c.Q.I.I.",
"U.I.W.I.I.U.I.U.Y.I.U.U.I.U.U.I.I.I.U.T.a.^ :XXXR <X4.i.^.].Y.^ m 9 C H w m gXrXpXsXeX>X<XS f.U.U.I.",
"U.U.I.U.I.I.U.I.I.I.U.U.U.U.I.U.T.I.C.)._ N +.+.`  X@.P.!.U.I.[.Z.j.h 6 S 6XsX8XoX X X7.2.S v.!.U.I.",
"I.U.I.I.I.U.I.I.U.I.I.I.I.U.~.I.T.I.I.I.M.q U u ) T.B.~.c.z.A.U.Y.].~._ ;XgXyXpXwX>X#X9.{ k.!.Y.I.I.",
"I.W.U.I.U.I.P.W.U.Q.U.U.~.I.P.U.C.T.U.H.}.l 8 g M B.!.d./ P.B.E._.I.W.Y.S 6XyX7XU | ....) Y.U.U.I.I.",
"U.I.U.U.I.I.Q.U.B.x.U.I.I.~.I.I.I.C.U.I.!.Q.k 5 l T.B.v c.f.A.F.5X/.V.}.~ P 6X=X:.Q P.B.U.T.R.I.I.I.",
"I.I.I.I.I.Q.U.y.t.C.Z./.'.Z.I.I.Y.I.W.Z.V.T.).M.I.!.t.w.d.I.U.U.0X4XY.I.B.p 7X .#XA B.~.U.Y.U.U.U.U.",
"U.W.U.I.I.U.t./ W.x.V.S.`.`.I.W.I.Y.Y.Q.S.Y.~.Y.I.^.t.r.M.I.K.Y.4X(.K.!.).k O.+.} ] s.W.U.H.a.G./.U.",
"U.I.I.I.W.B.x B.y.M.Z.F.5X4X).P.Z.U.|.I.B.K.U.U.U.U.B.n x.N.C.R.5XY.U.I.)./ d XXF T t.~.U.u.g.T.`.U.",
"I.I.I.U.~.e.b d.x.!.!.C.4X4X`.C.U.U.I.p.M./.Q.I.U.I.~.d.e.f.V.(.U.U.I.I.Y.M.t R g C i.W.Q.d.d.S.~.U.",
"I.I.W.v.).y.b d.B.Q.I.B.`.4X/.U.U.I.P.t.M.`.).Y.U.B.W.U.B.B.B.Z.Z.I.I.U.U.~.l B d k U.U.I.Y.c.Z.W.I.",
"U.I.I.U.Q.u.v I.a.I.U.A.4X4X/.Y.I.U.Y.p.B.).~.I.Q.I.I.W.I.I.U.U.U.v.T.I.U.T.b.3 5 i.T.C.!.I.U.I.I.I.",
"I.W.I.I.U.W.x y.U.Z.B.S.iXR.U.Y.I.U.Q.B.C.U.I.I.I.U.I.I.I.I.W.C.I.W.U.P.I.U.~.j.N.~.Y.U.I.I.I.I.I.I.",
"I.W.P.W.I.U.B.b p.B.U.`./.Z.I.Y.U.I.I.I.U.U.I.U.I.I.U.U.U.I.I.I.W.c.x./.~.!.C.W.I.W.!.I.Z.I.Y.I.I.I.",
"I.I.U.I.I.I.W.P.f.d.M.U.U.U.I.!.I.I.I.I.U.U.I.U.U.I.U.I.I.U.I.U.C.r.c.(.).H.~.I.I.B.W.I.Z.U.Y.U.I.I.",
"I.I.U.U.I.U.I.I.Q.Q.).I.I.I.U.I.I.U.U.I.Y.I.I.U.I.I.U.I.U.U.I.I.U.w.v.(./.I.Y.U.U.W.I.U.U.I.P.U.I.I.",
"U.I.I.I.U.U.I.U.I.U.v.Y.Y.I.I.C.U.I.I.I.I.I.I.U.I.Y.I.I.I.I.I.U.Y.C.M.I.Z.U.H.U.U.Y.I.U.~.H.Q.I.I.U.",
"I.I.I.I.I.I.I.I.I.I.U.I.U.I.I.I.I.I.I.I.I.U.U.I.I.I.I.I.I.I.U.U.I.I.I.I.I.I.I.I.I.I.I.I.I.I.I.I.I.U.",
"U.I.I.I.I.I.I.I.I.I.U.I.I.I.I.I.I.I.I.I.U.U.I.I.I.I.I.I.I.I.U.I.I.I.I.I.I.I.U.I.I.U.I.I.I.I.I.I.U.U."
};
