/* XPM */
static char *result[] = {
/* columns rows colors chars-per-pixel */
"50 50 210 2 ",
"   c #0D3C6C",
".  c #0A3B68",
"X  c #163D65",
"o  c #143E6C",
"O  c #193E6C",
"+  c #1A3B64",
"@  c #0C3E71",
"#  c #153E72",
"$  c #193C72",
"%  c #173E7F",
"&  c #173A79",
"*  c #213F6C",
"=  c #17406C",
"-  c #1B416D",
";  c #0A4373",
":  c #0E4977",
">  c #0D447B",
",  c #074B7B",
"<  c #0F4A7D",
"1  c #064571",
"2  c #154273",
"3  c #194372",
"4  c #144A74",
"5  c #1B4B75",
"6  c #14457C",
"7  c #19467B",
"8  c #134A7C",
"9  c #1B4A7C",
"0  c #0D517E",
"q  c #14517C",
"w  c #1D517B",
"e  c #22456F",
"r  c #214371",
"t  c #214B75",
"y  c #21547C",
"u  c #2A5679",
"i  c #1B3E80",
"p  c #0B4C83",
"a  c #044980",
"s  c #154682",
"d  c #194482",
"f  c #154B84",
"g  c #1A4C83",
"h  c #164E89",
"j  c #1B4D89",
"k  c #0E5386",
"l  c #0F5B85",
"z  c #0D5B8B",
"x  c #065A89",
"c  c #135584",
"v  c #1A5484",
"b  c #145983",
"n  c #1B5887",
"m  c #15538A",
"M  c #1B548C",
"N  c #145C8D",
"B  c #1C5A8C",
"V  c #155B91",
"C  c #1B5C93",
"Z  c #1E5691",
"A  c #22568C",
"S  c #225B8C",
"D  c #285095",
"F  c #205C93",
"G  c #16618D",
"H  c #0E6191",
"J  c #0F6A97",
"K  c #156393",
"L  c #1B6394",
"P  c #1D6997",
"I  c #14669A",
"U  c #1B659A",
"Y  c #156B9C",
"T  c #1B6B9C",
"R  c #146894",
"E  c #15719E",
"W  c #18709E",
"Q  c #16789F",
"!  c #20648B",
"~  c #226495",
"^  c #216896",
"/  c #21669B",
"(  c #236A9C",
")  c #26709D",
"_  c #146EA1",
"`  c #1C6EA1",
"'  c #0E75A4",
"]  c #0E7BA9",
"[  c #1574A3",
"{  c #1B73A4",
"}  c #1579A4",
"|  c #1A7AA6",
" . c #1A76AA",
".. c #157DAA",
"X. c #1C7CAB",
"o. c #177FB2",
"O. c #226DA2",
"+. c #296AA2",
"@. c #2273A4",
"#. c #2379A6",
"$. c #227CAC",
"%. c #2D7BAB",
"&. c #2C72A3",
"*. c #2F7FB2",
"=. c #1483AD",
"-. c #1C81AD",
";. c #1D84A7",
":. c #1583B1",
">. c #1C85B2",
",. c #1689B4",
"<. c #1C8BB5",
"1. c #1C8CB9",
"2. c #1B87B8",
"3. c #1D91BA",
"4. c #1E98BD",
"5. c #2382AC",
"6. c #2B8FAF",
"7. c #2783A8",
"8. c #2385B2",
"9. c #2985B2",
"0. c #238BB5",
"q. c #2B8AB4",
"w. c #238DBA",
"e. c #2A8DBA",
"r. c #2B87B8",
"t. c #338DB7",
"y. c #328EBA",
"u. c #3A8FB4",
"i. c #2291B7",
"p. c #2492BC",
"a. c #2A94BC",
"s. c #229ABF",
"d. c #2C98BF",
"f. c #3394BC",
"g. c #3C95BA",
"h. c #339ABF",
"j. c #3C99BC",
"k. c #419ABE",
"l. c #499DBB",
"z. c #4396B8",
"x. c #73A8B6",
"c. c #2595C0",
"v. c #2B96C0",
"b. c #269BC1",
"n. c #2D9AC2",
"m. c #3396C3",
"M. c #349BC3",
"N. c #3A9DC4",
"B. c #35A1C7",
"V. c #3DA1C6",
"C. c #37A1C8",
"Z. c #3CA3C9",
"A. c #439EC2",
"S. c #499FC1",
"D. c #419DCC",
"F. c #43A3C6",
"G. c #4AA5C6",
"H. c #4EA9C3",
"J. c #44A5CA",
"K. c #4AA6CA",
"L. c #46A8CA",
"P. c #4CA9CB",
"I. c #52A6C3",
"U. c #52A9C6",
"Y. c #5CA9C3",
"T. c #53ACCC",
"R. c #5AAECC",
"E. c #52A7CC",
"W. c #56B1CF",
"Q. c #5CB1CD",
"!. c #4DACD2",
"~. c #41A9D0",
"^. c #56AED1",
"/. c #56B1D4",
"(. c #5CB2D3",
"). c #54B0D9",
"_. c #62ADC5",
"`. c #61AECA",
"'. c #64B2CD",
"]. c #6AB6CE",
"[. c #77B8CE",
"{. c #79BACD",
"}. c #65B3D1",
"|. c #6AB5D2",
" X c #63B8D7",
".X c #6EB9D3",
"XX c #63BADA",
"oX c #6FBFD8",
"OX c #63B6D8",
"+X c #74BCD5",
"@X c #79BDD5",
"#X c #73BDD9",
"$X c #7CBED8",
"%X c #7BC0D7",
"&X c #7CC2DA",
"*X c #74C3E2",
"=X c #7BC7E2",
"-X c #7FCCE8",
";X c #86BDCB",
":X c #8BC0CB",
">X c #86C2D4",
",X c #82C3DB",
"<X c #8CCBDE",
"1X c #88C6D8",
"2X c #84CAE5",
"3X c #8ACFE9",
"4X c #8ECFE5",
"5X c #91CEE1",
"6X c #96D3E5",
"7X c #97D7EA",
/* pixels */
"8.8.5.8.9.q.q.q.-.q.a.e.w.w.0.>.<.3.i.<.<.<.i.p.q.q.q.q.e.a.c.w.w.w.w.0.w.0.q.q.9.0.q.q.#.! y u t t ",
"X.X.$.$.X.| X.X.-.>.>.-...>.0.p.6.5.;.;.-.>.=.] >.8.8.5.>.>.>.>.>.>.>.-.-.-.-.X.X.X.X.X.P b 5 t 3 3 ",
"[ X.$.#.[ E [ | >...>.0.8.-.>.a.oX}.I.g.q.8.2.2.>.>.>.>.>.>.>.>.>.>.-.-.-.-...X.X...| { P v 5 e - - ",
"} X.$.#.{ { | X.>...-.w.8.X.8.M.>X5X2X}.u.| ..>.>.>.>.2.2.>.8.8.>.>.>.>.>.>.>.8.;.-...X.T B 9 O = = ",
"X.| { { { { | | >...} 5.5.5.f.!.x.>X7X3X}.g.9.9.-...] :.2.>.-.-.>.-.-.-.X.X.X.X.| | X.| { L 8   = = ",
"X.{ Y Y Y [ { [ } -.f.F.F.k.S.T.;X>X<X4X3X2X*X#Xj.7.} ..>.>.X.X.-.......X.| X.X.| | X.| { P c ; = - ",
"| { Y Y Y { $.9.7.j./.XX XR.Y.Y.,X@X[.{.1X5X6X6X#Xl.7...>.>.-.5.>.>.>.X.X.X.X.$.#.X.......#.P l = = ",
"[ [ [ T ` $.y.D.P.(. XR.Y.Y.'.].#X&X,X1X>X:X;X:X7X_.7.} :.:.X.X...X...X.X.X.X.X.#.| [ ' ..5.{ R = = ",
"( I I [  .8.N.).U.R.'.}.}.|.#X#X$X%X%X,X,X,X,X,X<X,X+X}.S.q.X...-.-.X.X.5.5.X.Q  . . .X.{ [ | $.5 = ",
"P K Y [  .X.f.K.U.T.Q.}.}.|..X+X+X+X$X%X%X,X,X,X{.@X&X-X*XP.q.| X.X.X.| } | | |  . .X.X.#.| [ Y 5 = ",
"P K T  . . .9.N.P.T.R.R.}.}..X#X.X+X+X+X$X$X$X$X@X+X+X=X=X XI.z.| | X.| | | | X. .X.X. .#.$.Y x = = ",
"I U ` X. .[ $.y.P.U.T.R.R.}.|.|.]..X.X#X+X+X@X@X&X+X|.]..X|.].'.{ { { X.$.X.X.X.{ X. .[ { $.T z = = ",
"I P { $. .[ X.t.K.K.P.U.R.Q.}.}.].].|..X#X#X+X+X|..X#X#X.X].'._.y.$.{ { X. . . .{ X. .T Y T @.( 5 = ",
"L P { $. .[ $.y.L.K.G.G.T.R.Q.'.'.].].|..X.X.X.X]..X#X.X|.'.'.`./.A.q.5.$.{ { $.{ { { T K K / &.y 3 ",
"K K `  .[ [ 5.j.L.F.F.F.U.T.R.R.Q.Q.'.].}.|.|.|..X.X|.R.R.}.OX(.XXW.G.A.t.#.{ $.{ [ { @.K k N ~ 5 - ",
"G K T { _ [ 5.N.L.F.F.F.P.T.R.R.R.Q.Q.'.].}.}.].'.'.`.R.(. X(.E.H.H.W./.k.#.Y { { W { $.P , , n = o ",
"( U T [ [ -.f.j.N.N.J.L.K.K.P.T.R.Q.Q.(.(.(.Q.Q.}.R.I.l.G.T.(.^.^.P.K.L.J.f.X.E [ [ T L v 4 4 w = = ",
"N K Y [ | 0.h.F.h.N.F.F.F.F.K.P.U.T.T.Q.Q.Q.Q.Q.R.R.R.T.T.(.^.P.E.P.J.J.J.M.5.{ [ { @.~ n 9 5 w = = ",
"c P T [ 9.0.8.M.M.N.V.F.F.F.G.K.U.U.U.T.T.T.T.T.U.R.(.(.^.T.E.G.G.K.F.V.Z.Z.a.| E @.( B w 9 t 3 = = ",
"0 ) { [ e.>.} p.M.N.V.V.F.J.J.K.E.U.U.U.E.E.E.P.T.R.T.G.A.F.K.K.F.K.V.M.V.~.M.| Y @.( c 2 5 5 = = = ",
"1 ~ P Y 9.-.} p.M.M.M.N.F.F.J.F.K.K.K.K.K.P.P.P.U.T.P.A.j.N.F.J.F.L.Z.h.M.Z.M.X.Y O.L >   3 3 o = = ",
"4 S P T X.[ ' 8.a.a.a.h.N.V.V.N.N.F.F.F.J.L.L.!.G.P.K.F.F.F.V.N.F.J.C.n.n.B.v.>.{ ` K 8 2 3 3 - = = ",
"9 S ~ T Y Y [ X.0.0.0.a.M.N.N.N.N.V.N.N.N.V.F.F.F.K.J.J.J.J.V.h.N.N.M.n.n.v.p.p.{ T K c 8 4 = = = = ",
"3 9 F U I _ 9.e.0.0.0.a.M.N.V.N.J.Z.N.M.M.h.h.h.F.F.F.N.V.Z.V.M.N.M.n.n.n.p.p.c.{ Y K n v 4 o = = = ",
"5 2 7 A ~ Y } <.X.<.s.b.v.m.N.M.N.N.N.C.C.V.N.M.d.a.a.a.n.M.C.C.N.m.p.p.b.v.p.8.*.U p > 6 3 2 2 = = ",
"3 2 4 n N K Y X.{ >.3.p.a.m.M.v.M.M.N.N.N.N.M.M.M.d.a.i.a.a.a.a.m.v.a.p.p.p.0.>.%.U m s s 7 2 o = = ",
"3 2 : b z z N / T | >.0.a.m.n.s.M.M.M.M.M.M.M.M.M.n.a.p.0.0.0.8.e.e.p.p.w.2.>.-.U C m j g 7 # o = = ",
"O 2 q l z k f j V P | -.e.v.v.4.d.n.n.n.n.n.n.n.n.d.a.p.p.p.i.0.8.8.<.8.0.8.-.X.k p f g 9 2 O = = = ",
"O 2 c G N m d i f V Y | 8.e.p.4.p.a.c.c.v.v.c.c.v.a.p.p.p.p.p.p.0.>.-.8.9.9.8.X.f < 6 7 2 # = 3 = = ",
"O 3 v n n f d i s m Y [ X.8.p.p.p.p.p.c.c.c.c.c.c.p.p.p.p.p.1.<.w.0.8.8.9.9.8.$.M g 6 2 2 O = 3 = = ",
"= 3 9 7 7 d d s s V T [ [ X.8.p.1.3.3.p.p.p.p.p.c.p.p.p.p.w.<.<.0.w.q.$.{ { #.$.A g 7 2 3 O o - = = ",
"2 2 $ $ & 6 f m s C ` E Y [ -.0.1.1.3.3.3.p.p.p.p.p.p.p.p.c.p.w.<.w.e.$.I H Y $.M 6 # $ 3 O o = = = ",
"+ - r 3 2 2 2 7 % h K Y ` { #.>.8.0.w.3.3.3.3.3.1.<.1.p.p.w.2.2.i.<.8.8.` p s D = = = = = = = = = = ",
"O - - 2 2 2 7 v d m I Y T T [ | X.>.0.1.3.3.1.1.<.<.<.1.1.1.2.1.0.-.8.e.@.m > d = = = O = = = = = = ",
"O = 2 # 2 6 j A h V T ` T U T [ [ ..>.<.<.<.<.<.<.<.<.<.,.<.1.1.w...| $.( v # $ = O O O = = = = = = ",
"O 2 2 2 6 s h M V U { { / C U Y _  .-.2.2.2.>.>.>.2.<.,.,.,.<.<.r.[ H N n 9 3 r = = O O = = = = = = ",
"O 2 3 7 6 s f f V U T / F Z V K Y { X.>.>.>.>.>.>.2.2.,.=.<.-.| @.N , ; 2 - - e = = = = = = = = = = ",
"O 3 3 9 7 6 s 6 h M C Z j j m V I `  .X.>.>.X.X.2.2.<.=.-.5.#.K c :   = 3 - O = = = = = = = = = = = ",
"O - - 3 3 7 6 6 d f h g d d h V U T { X.| | | X.:.>.:.=.-.7.^ < = o O - - O o = = = = = = = = = = = ",
"- - O O 3 3 7 7 % d s d i d M V U T ` { [ [  .X.o.>.=...5.%.S . X O * * O o = 4 = = = = = = = = = = ",
"3 3 3 3 3 3 3 3 7 7 d d d s s f B ( @.| } }  . .| | X.X.X.T z a 8 4 o O - - = . = = = = = = = = = = ",
"3 3 3 - 3 3 3 3 7 7 7 d d s s f f C @.{ [ [ { ` [ [ | X.#.@.T K C v 4 = O - = = = = = = = = = = = = ",
"3 3 - - 3 3 3 3 2 2 7 6 7 d g g > M T { { { { ` [ [ [ | X.#.@.@.@.L q = X O - = = = = = = = = = = = ",
"= = = = = = 2 2 # # 2 7 7 7 s s 8 n ~ P P O.@.O.[ [ [ [ [ { { @.$.P c = X o - 3 = = = = = = = = = = ",
"= = = = 2 = = 2 O O 2 2 3 7 7 7 v M B m m C ( +.` { [ [ E [ [ { [ R b 4 = O - 3 = = = = = = = = = = ",
"= = = = = = = = O O # 2 3 7 7 7 g v g > > f Z F K U T [ [ [ { { J H b 4 = O - 3 = = = = = = = = = = ",
"= = = = = = = = O O = - 3 2 3 2 6 8 7 6 6 s j j h V U O.{ { ` ` Y K n 9 3 O $ 2 = = = = = = = = = = ",
"= = = = = = = = O - - - = 2 2 2 @ 2 7 7 7 s d 6 > h C O.` T Y I T P B 9 3 O O 2 = = = = = = = = = = ",
"= = = = = = = = = = = = = = = = = 2 2 2 6 6 d d d d M F ( O.` Y P U V M j 9 2 = = = O O = = = = = = ",
"= = = = = = = = = = = = = = = = = 2 2 2 6 6 d d d 6 s m C U T Y P U V M j 9 2 = = = - - = = = = = = "
};
