/* XPM */
static char *result[] = {
/* columns rows colors chars-per-pixel */
"50 50 216 2 ",
"   c #391D1C",
".  c #3F211E",
"X  c #3E2521",
"o  c #3F2C26",
"O  c #37363B",
"+  c #412C26",
"@  c #442E29",
"#  c #4B2D2C",
"$  c #46312C",
"%  c #49312C",
"&  c #58352A",
"*  c #58382D",
"=  c #4D3632",
"-  c #4F3B39",
";  c #4F3A37",
":  c #523B35",
">  c #5D3A31",
",  c #543D3A",
"<  c #5B3C3A",
"1  c #533535",
"2  c #532E25",
"3  c #613E34",
"4  c #55413C",
"5  c #5C423E",
"6  c #7F402E",
"7  c #624035",
"8  c #64433A",
"9  c #6B4A3E",
"0  c #68463D",
"q  c #79483A",
"w  c #3E3C41",
"e  c #454449",
"r  c #48474C",
"t  c #4C4B4E",
"y  c #434247",
"u  c #5B4542",
"i  c #5E4945",
"p  c #5F4D4A",
"a  c #544240",
"s  c #4F4D53",
"d  c #525156",
"f  c #56555A",
"g  c #5A595E",
"h  c #59575C",
"j  c #634543",
"k  c #634B46",
"l  c #6D4B42",
"z  c #644D4B",
"x  c #694B4A",
"c  c #714E45",
"v  c #6C534B",
"b  c #725147",
"n  c #7F5645",
"m  c #75544A",
"M  c #79594E",
"N  c #79564D",
"B  c #6A5552",
"V  c #6C5856",
"C  c #6C5957",
"Z  c #7C5B51",
"A  c #7B5D59",
"S  c #755A56",
"D  c #7D635E",
"F  c #5D5C62",
"G  c #605E63",
"H  c #626167",
"J  c #7E6661",
"K  c #903E26",
"L  c #93442C",
"P  c #8D4E3C",
"I  c #954D34",
"U  c #9B4D35",
"Y  c #9C4C38",
"T  c #954B37",
"R  c #8F523F",
"E  c #9C5337",
"W  c #9D543C",
"Q  c #9D583D",
"!  c #955037",
"~  c #8D462A",
"^  c #A34E39",
"/  c #A04B36",
"(  c #A3543D",
")  c #AB553D",
"_  c #A4593E",
"`  c #AC5B3E",
"'  c #8C5C4C",
"]  c #855846",
"[  c #935342",
"{  c #9A5543",
"}  c #945A45",
"|  c #9C5C46",
" . c #935C4C",
".. c #9B5D4B",
"X. c #885E50",
"o. c #915F50",
"O. c #985D52",
"+. c #A55642",
"@. c #AA5641",
"#. c #A45B43",
"$. c #AB5C45",
"%. c #A25E4A",
"&. c #AC5E49",
"*. c #B15C46",
"=. c #B35E49",
"-. c #A75F50",
";. c #89604E",
":. c #9D614B",
">. c #986248",
",. c #8E6354",
"<. c #82645A",
"1. c #946454",
"2. c #9C6554",
"3. c #9B6A55",
"4. c #93665A",
"5. c #996759",
"6. c #956A5C",
"7. c #9B6B5B",
"8. c #926852",
"9. c #A56145",
"0. c #AB6146",
"q. c #A4634C",
"w. c #AD634B",
"e. c #A6694E",
"r. c #AD694D",
"t. c #B16146",
"y. c #B3644C",
"u. c #B9644E",
"i. c #B36A4E",
"p. c #B96A4E",
"a. c #A36352",
"s. c #AB6552",
"d. c #A46955",
"f. c #AD6B53",
"g. c #A46B5A",
"h. c #AB6C5B",
"j. c #A16658",
"k. c #B46751",
"l. c #BA6651",
"z. c #B56B53",
"x. c #BB6C54",
"c. c #B46F5A",
"v. c #BC6E59",
"b. c #A3705E",
"n. c #AB715D",
"m. c #AC7356",
"M. c #B57155",
"N. c #BB7155",
"B. c #B5735B",
"V. c #BC735B",
"C. c #BD795D",
"Z. c #846462",
"A. c #846A65",
"S. c #8A6D66",
"D. c #8C6C69",
"F. c #886B68",
"G. c #976B60",
"H. c #9B6D61",
"J. c #906E6C",
"K. c #8D736D",
"L. c #9D7263",
"P. c #91736C",
"I. c #917067",
"U. c #8E7570",
"Y. c #937572",
"T. c #967976",
"R. c #9B7C79",
"E. c #9A7975",
"W. c #A26E60",
"Q. c #B76F60",
"!. c #A37364",
"~. c #AC7564",
"^. c #A27967",
"/. c #A37569",
"(. c #A67A6B",
"). c #AA7C6C",
"_. c #AC7768",
"`. c #B27563",
"'. c #BA7762",
"]. c #B47965",
"[. c #BC7B63",
"{. c #B37B6C",
"}. c #BC7D6C",
"|. c #B57768",
" X c #AD7E71",
".X c #BE7E71",
"XX c #C16C56",
"oX c #C26E59",
"OX c #C17157",
"+X c #C2745C",
"@X c #CA755D",
"#X c #C3795E",
"$X c #CA795F",
"%X c #C47761",
"&X c #CA7762",
"*X c #C47B62",
"=X c #CB7C63",
"-X c #CC7F68",
";X c #D17A64",
":X c #D17F6B",
">X c #D07560",
",X c #BD806E",
"<X c #AE8273",
"1X c #B18274",
"2X c #B68679",
"3X c #B7897C",
"4X c #C68165",
"5X c #CB8166",
"6X c #C5836B",
"7X c #CB836A",
"8X c #D2856B",
"9X c #D2886E",
"0X c #D8886D",
"qX c #C28472",
"wX c #D18973",
"eX c #A18280",
/* pixels */
"Q #.#.#.&.&.&.y.y.l.+.@.&.@.( k.l.y.y.k.w.z.#.#.q.Q #.y.+X=Xx.+XV.+X+X+.w.w.k.#.=Xk.y.w.w.k.U I t.t.",
"r.z.z.v.V.x.y.y.l.x.$.x.@.l.&.@Xt.t.x.v.z.z.0.#.#.#.0.k.=X=X+X&X*X=X%Xk.l.v.x.k.+Xw.y.k.l.v.Y U y.y.",
"N.V.+X*X=X+Xl.t.*.*.=.u.y.=.y.x.y.t.x.y.w.&.w.0.k.v.w.t.x.u.p.@Xt.y.y.y.y.=X+X=X=Xx.x.V.x.+Xl.V.x.N.",
"i.p.N.V.V.x.p.&.y.y.l.y.+Xt.l.x.p.y.p._ _ 0.r.0.r.z.( _ t.( ` y.( #.#.( #.+Xk.+XV.V.+X+Xk.+XV.=X+X+X",
"r.i.N.C.N.N.N.z.N.#Xw.w.i.z.w.#XN.N.N.i.r.*XB.r.r.M.w.M.4XV.+X#XC.V.V.9.w.z.i.r.9.M.#X*XN.C.z.i.p.p.",
"_ 9.i.M.w.i.N.i.i.N.$.( #.#.E w.0._ Q Q E r.9.Q #.Q Q w.N.x.l.i.i.r.r.I _ I Q ! #.i.z.V.M.V.9.! _ _ ",
"$.t.l.x.y.XX&X@X8X;X;X@XXXu.l.l.@Xx.V.+X+X=X=X=X=Xl.x.+X+X+XXXl.&X-X-X+X=X@.+X+X+X@Xv.=X@X=Xx.y.x.x.",
") ) @.) ( =.@X+X@XoXXX&XU @.*.@.$.^ l.@X:X@X&X-XoX@.t.u.=.=.) / oX+XoXoXXXL @.&.=.t.*.l.y.t.=.u.y.y.",
"=X=X$X$X$X@X@X=X@X@.+Xx.@.oXu.&Xx.y.+X+XV.+Xv.v.l.x.l.x.l.y.y.*.x.y.y.-X&Xy.+X+X=Xl.+Xx.+X+X+X;X;X>X",
"'.B.h.d.a.h.n.h.a.6 [ ..[ { %.h...} :.} } d...[ [ } } ..a.} [ [ [ R P ].}.].}.qXg.} ..} ....h.[.c.Q.",
"A.A.S.S.A.K.K.D A.A.Z.D Y.A A Y.J A.K.D D K.A.D Y.K.Z.A.A.A A Z.A.A.B U.D.A.A D Y.A.D.F.Z.A Y.Y.K.K.",
"% $ : 4 : 4 4 + o k $ @ z , : = = 4 B u : i 5 4 i 5 = : , % : z k i # , : = + @ z 4 5 u : + u 4 : 4 ",
"!.7.b.!.7.7.L.7.7.!.' 1.7./._.q ' 1./.7.' 3.1.3.3.3.2.7.W.1.5._.2.5.' 1.7.7.7.!.7.o.o.1.' ] !.7.2.g.",
"f.q.w.f.q.:.e.e.h.B.| s...%.%.P f.q.f.e.#.w.9.w.#.9.%.q.| P [ { %.q.q.q.s.f.s.s.w.| q.q.%.q.V.f.s.z.",
"V.+X*X*X*X*X[.V.z.*X[.V.*Xc.z.6X*XV.*X*XV.*X#X*XN.N.V.*XV.V.%Xz.z.z.z.N.v.*XV.N.%XV.*Xz.z.c.V.z.v.V.",
"w.k.k.y.k.z.w.#.9.#.r.#.k.w.( &.0.0.V.N.k.V.x.N.y.i.V.=X@X*X*X#.Q ( Q 0._ V.v.k.v.z.v.U I E E E ( #.",
"V.V.=X+Xx.#XC.p.N.*X+XN.#Xi.N.N.x.#X5X5X=X5X8X*X9X7X*X7X5X=X=Xi.z.M.9.#XV.*X#XV.#X*X*X#.w.z.*Xi.y.k.",
"l.y.y.( U ( E I I V.x.i.x.+Xp.E $.w.k.z.r.k.V.z.y.k.z.y.( E &.( #.E ~ w.w.i.r.V.v._ x.M.z.i.*Xz.y.k.",
"%X%X&Xv.x.V.z.z.y.*XV.+X=X=X=Xy.@X%X=X*XV.+X*X+X-X%X*XV.k.l.v.*XV.v.k.*X*X9X*X*X7X*X=XV.7X=X9X7X+X+X",
"Y +.&.@.&.y.+.#.&.( ( ( l.Y &.@.+.@.y.k.k.v.v.z.V.#.#.#.#.+.+.x.&.y.k.y.w.V.&.#.( w.w._ +X+XV.V.+X+X",
"l.v.+Xx.v.v.&.w.w.k.l.t.+Xt.+Xl.u.y.@X#X=X7X=X#X+Xy.i.y.y.p.y.=X+Xx.+X+XOX+Xp.+XOXy.x.+X=X=X0X8X-X:X",
"s.-.%.{ { { [ [ { c.%.q.s.s.f.V.'.B.[.B.B.[.B.f.f.f.f.e.c.[.V.V.V.V.*X*X[.*XC.[.B.M.B.B.B.B.z.q.%.a.",
"/.6.6.4.6.H.G.G.4. X,.L.H.6.4.2X1X).<X/.(.3X).L.L./.L./. X X).(./.1X1X X1X2X3X X,.!.).).1X).1.] 7.7.",
"0 > 7 0 0 l 7 > 7 Z 7 0 l > & c M c m 8 0 M 0 * 7 b c Z b & > c 8 > 2 > 8 3 l l m > 8 m 8 > 8 > & > ",
"b 0 l Z M m m 7 l Z b 9 7 7 3 m Z M A Z b A 0 > l <.m <.Z > c N l c > b l m N Z Z l l 0 l 8 b M 7 9 ",
").L.1X).L.(.L.^.^.^.!.!.!./.H.1.7.!.!.L.6.L.4.,.6.6.X.L.1XL.).!. X).7.H.!.7.!.6.(.!. X).<X).<X)./.).",
"C.V.6XB.f.B.r.B.f.9.f.z.M.B.M.Q %.c.f.B.'.B.s.e.%.| | f.[.B.[.B.V.z.#.%.q.z.f.w.[.V.'.z.B.[.6X[.V.V.",
"$.x.p.p.x.N.N.i.N.i.V.+X=X#X-X+Xx.x.E #.z.z.y.y.&.#.k.k.x.y.v.v.t.y.U *._ =X+X#X=XV.x.w.k.+X5X=X=X$X",
"( y.l.k.v.V.V.z.k.k.z.k.+Xz.v.-X%XV.Y W w.k.w.r.&.+.r.&.w.&.w.&._ &.( &._ +Xx.V.*XV.+XV.*X*X-X*X+XN.",
"x.v.-Xz.0.z.&.r.k.k.w.&.v.k.s.'.l.z.#.w.k.z.z.z.V.z.V.v.k.v.v.k.z.v.@Xv.V.+XV.N.6Xv.z.z.z.r.N.N.#XN.",
"v.y.V.0.I Q ! Q #.#.Q Q W +.W { #.#.Q Q ! q.0.M.r.f.r.r.I #.&._ &.&.v.w.k.w.0.#.N.9.Q E Q E 0.r.i.i.",
"N.z.k.z.r.z.*XN.v.N.V.v.#.z.v.r.z.z.N.N.z.*XV.C.4X6XV.*X0.V.#Xz.v.k.+Xx.v.V.z.N.V.z.V.C.4X*X6X5X=X5X",
"0._ 0.0._ y.N.y.l.y.l.y.U ( +.#.Q 9.w.w.w.z.z.#.z.V.0.z.B.0.V.B.&.&.w.&.w.i.r.z.z.z.w.k.=X+X*X7X=X-X",
"N.V.#X#X+XV.+X+X+X+Xv.v.w.k.w.V.*XC.[.6X6XV.N.*X*X*X4Xf.c.6X*X6X*XwX*Xz.z.c.V.f.q.z.B.z.V.N.*XV.+X+X",
"m.f.>.>.e.e.q.e.e.f.:.a...a.} `.[.B.[.[.[.h.q.[.'.'.6X:.q.qX'.].].].g...} } } } >.:.q.:.q.:.B.e.q.r.",
"7.8.] ] 8.7.7.7.5.7.' ' ] 1.' /.,.' !.1. .7.1.2.5./.7.1.4.!.!.1.L.,.L.n n 6.n ,.(.;.' 4.6.1.!.2.3.7.",
"+ % : : @ : k j x 5 1 #   , u z X . < # . 5 5 # < j 1 j x u j 1 = , z X + B 4 , B % % k x < j < 1 : ",
"P.P.E.P.A A.E.D.D.Z.F.Z.A Y.R.T.A S D.Z.A Y.E.Z.Y.J.D.T.eXR.Y.T.A.T.U.D A.T.T.A.R.A.D.Y.Y.D.R.P.D.P.",
"`.n.d...[ | ..[ [ [ -.-.g.h.h.d.2.2.d.2.2.d.g.2.j.:.2.2.g.g.2.h.~.].d.g.n.d.g.d.n.d.d.d.a...`.h.`.'.",
"#X=X#XN.OXx.l.l.y.l.oXl.-X@Xv.+Xv.*XN.z.V.M.z.M.z.C.[.V.V.V.V.C.7X5X*XV.+X#XN.V.*Xv.v.+X+Xl.@X+X@X*X",
"0.0.y.y.*.u.l./ ^ ^ ( @.l.@.$.&.w.w.z.#.r.#.#.#.0.N.z.V.V.f.w.I N.i.z.k.i.+X( _ _ &.( x.@.y.( y.@.w.",
"-X#X+X+X@X;X&Xx.&X=.l.x.oXl.x.+X@X+X-XV.*Xk.k.N.*X6X=XV.+X-X*Xk.5X=X*X#X#X=Xy.y.%Xx.oXx.x.+X=Xv.+X*X",
"0.$.&.0.+X-X+X-Xl.K ( _ _ $.&.l.l.y.OXp.x._ _ i.y.r.y.W #.+X+XV.N.p.#._ _ $._ _ y.L ( ( ( E v.y.#.w.",
"N.V.*X#X9X=Xi.9X+X_ l.N.+XV.+X=X+Xx.@X+X+Xy.y.V.=X+X+Xk.v.=X=X7X4X4XM.i.z.N.+X+XN.w.k.+Xw.0.N.V.N.'.",
"#X#X5X*X=Xz.I k.N.N.+XV.+Xi.y.i.y.y.x.y.p.t.&.w.z.0.&.0.0.#.w.v.r.M.i.i.v.x.l.y.w.V.z.r.I #.Q Q { #.",
"=X#X5X5X9X*Xi.#X+X-X=X#X-Xx.v.N.OX+X@Xx.+X+XN.M.N.z.f.z.z.i.V.7XN.#X=X#X=X*X@Xv.*X*XV.r.z.z.z.z.0.f.",
"V.x.V.*X%X+XoX+XXXl.+X+X@XXX+X@Xx.x.N.k.v.N.z.f.f.r.f.#.Q 0.0.y.0.y.x.&.y.l.=.=.+X+.+.+.&.{ k.c.z.v.",
"h.n.}.qX|.|.qX.X}.a.}.}.}.}.}.qX`.`.].~.~._.b.!.7.7._.' ' {.g.g.d.h.,Xh.`.|.g.h..Xj.g.j.O.O.{.{.~.|.",
"5 4 i 4 = u B B z z - , ; i B u u 4 V 4 $ z p - p z a p C p C C , u A z B : i i B i i u u u V z u z ",
"d t f t w r d s h g e r y d g e e y g e O f d y d f r d H d H F O e G d f w r t d e r e e e g f s h "
};
