/* XPM */
static char *arvores1702681996[] = {
/* columns rows colors chars-per-pixel */
"50 50 223 2 ",
"   c #1D6533",
".  c #1E6835",
"X  c #17622F",
"o  c #216736",
"O  c #226937",
"+  c #256A39",
"@  c #2B6D3D",
"#  c #226738",
"$  c #2C703E",
"%  c #2D6E40",
"&  c #346F44",
"*  c #2E7141",
"=  c #337243",
"-  c #3A7546",
";  c #3C7549",
":  c #3D794B",
">  c #387649",
",  c #3F7C51",
"<  c #437B4D",
"1  c #4A7E4F",
"2  c #437751",
"3  c #457D51",
"4  c #4A7E52",
"5  c #4C7C59",
"6  c #78795C",
"7  c #7F6853",
"8  c #8F4D48",
"9  c #8D4D47",
"0  c #8D534A",
"q  c #8C544B",
"w  c #90534C",
"e  c #895E51",
"r  c #945753",
"t  c #945C53",
"y  c #914F48",
"u  c #846654",
"i  c #8A6A59",
"p  c #956259",
"a  c #98665C",
"s  c #9D6B64",
"d  c #8B7464",
"f  c #8A7C67",
"g  c #907365",
"h  c #A47A73",
"j  c #A77974",
"k  c #A66F68",
"l  c #468152",
"z  c #4B8154",
"x  c #4D835A",
"c  c #4D8C58",
"v  c #528356",
"b  c #54855A",
"n  c #59865B",
"m  c #56895B",
"M  c #5C895E",
"N  c #64865E",
"B  c #548562",
"V  c #5B8664",
"C  c #558B63",
"Z  c #5D8B62",
"A  c #5D8E69",
"S  c #5B876A",
"D  c #5C9363",
"F  c #6D8662",
"G  c #638D63",
"H  c #6B8D65",
"J  c #648E6C",
"K  c #678B68",
"L  c #758666",
"P  c #659165",
"I  c #6A9167",
"U  c #64936B",
"Y  c #6C936A",
"T  c #67996D",
"R  c #71956D",
"E  c #71986F",
"W  c #668D71",
"Q  c #6C9674",
"!  c #6C9A74",
"~  c #6E9A79",
"^  c #679373",
"/  c #749473",
"(  c #7E9573",
")  c #749A73",
"_  c #799C76",
"`  c #749B7B",
"'  c #7C9D7C",
"]  c #74957B",
"[  c #768F72",
"{  c #76A27D",
"}  c #7CA27C",
"|  c #76A376",
" . c #8C8B73",
".. c #918670",
"X. c #839B7B",
"o. c #8B9378",
"O. c #8D8970",
"+. c #A7867E",
"@. c #81A17F",
"#. c #7C9C82",
"$. c #779881",
"%. c #7CA283",
"&. c #7EA983",
"*. c #849E82",
"=. c #899B86",
"-. c #A49C8D",
";. c #A9968B",
":. c #B89894",
">. c #A59E91",
",. c #85A583",
"<. c #88A686",
"1. c #86A984",
"2. c #8AA986",
"3. c #84A58B",
"4. c #8CA58B",
"5. c #8DAB8B",
"6. c #92AC8D",
"7. c #91A38A",
"8. c #89B48A",
"9. c #93B18E",
"0. c #8BA591",
"q. c #8DAB92",
"w. c #87AA91",
"e. c #93AC92",
"r. c #9AAD96",
"t. c #94AD9A",
"y. c #9AAB9B",
"u. c #8CB593",
"i. c #94B394",
"p. c #9BB195",
"a. c #95B39A",
"s. c #9CB49B",
"d. c #9DBB9D",
"f. c #98BA98",
"g. c #A5A997",
"h. c #B9A29C",
"j. c #A2B49C",
"k. c #A8B59E",
"l. c #9EB4A3",
"z. c #9EBAA3",
"x. c #BBACA3",
"c. c #A3B4A2",
"v. c #A3BBA4",
"b. c #A9BAA5",
"n. c #A5B5A9",
"m. c #A4BCA9",
"M. c #ACBCAC",
"N. c #ABB4A4",
"B. c #B3B8A8",
"V. c #AEBDB2",
"C. c #B3BEB4",
"Z. c #C8A19B",
"A. c #C8ADAB",
"S. c #C2B3AD",
"D. c #CBB2AE",
"F. c #C8B7B4",
"G. c #D5B8B4",
"H. c #9DC09C",
"J. c #A0C09F",
"K. c #9DC0A1",
"L. c #A5C4A6",
"P. c #A5C3A9",
"I. c #ACC2AC",
"U. c #A9C7A7",
"Y. c #B6C6AF",
"T. c #ADC3B2",
"R. c #B3C3B5",
"E. c #B4CBB5",
"W. c #B5C6B9",
"Q. c #BBC5BB",
"!. c #B5C9B8",
"~. c #BCCBBC",
"^. c #BCC6B6",
"/. c #B9D3BC",
"(. c #C3C4B7",
"). c #C7C7BC",
"_. c #D5C2BE",
"`. c #C2D7BD",
"'. c #BDCCC1",
"]. c #BDC6C0",
"[. c #BED1C0",
"{. c #C3CDC3",
"}. c #C9CDC8",
"|. c #C9CAC4",
" X c #D7C9C6",
".X c #C4D3C4",
"XX c #C4DAC4",
"oX c #C7D4C9",
"OX c #CBD4CB",
"+X c #CCDACC",
"@X c #C8D5C7",
"#X c #D4D4CD",
"$X c #CEDBD0",
"%X c #D2D7D1",
"&X c #DAD5D2",
"*X c #D3DBD3",
"=X c #D9DDD9",
"-X c #D8DDD7",
";X c #E3DBDA",
":X c #D3E1D3",
">X c #D7E1D9",
",X c #DCE3DC",
"<X c #DBE7D9",
"1X c #D0E2CF",
"2X c #E2E3DD",
"3X c #E8E0DA",
"4X c #DFE5E1",
"5X c #E3E5E2",
"6X c #EAE4E3",
"7X c #E5EAE4",
"8X c #E9EBE7",
"9X c #EBEDEB",
"0X c #E7EBE8",
"qX c #F0EDED",
"wX c #F2E7E5",
"eX c #EDF2ED",
"rX c #E9F0E6",
"tX c #F1F2EE",
"yX c #EFF6F0",
"uX c #F4F4F4",
"iX c #F6F9F6",
"pX c #FCFCFC",
"aX c #F9F7F7",
/* pixels */
"Q #.pX7X} iX.X5.pX~.d.pXA 5.pX2.<XC c.*XOXpXtX' *XpXpXpX` *.s.7XiXl ^.iXE.pX@Xl iXY.+XpXl T.iXT W.pX",
"< x eXi.N p.pXpXpXB < :X/ 5.@XY 6.N.~.{ Y pXm.% U pX<Xa.*XY.I v.[.3 w.M.l ,X*Xg.0X} 6.*XG 5.^.< ` pX",
"B.F.+X;   l %XpXOXm m ~.aXiX&.Y Y ,XuX: l >XU 4 3 >Xz.l tX<.$ < M._.*XT l t.pXpXXXY Y ).6XtX8.2 P uX",
"pXpXz.@ = % #.iXf.- = u.pXg.3 ; < _ v.X.X.K.P n G +X*X(.,X3 O O $.pX5Xz < %.pX5XY b b E 5X-X< < > m.",
"pXeX) I Y I d.>XD n v l OXe.o     z .XaXpXv.+ + O #.pXpXu.4 K n T $Xu.: : = [.I.-     < a.@XP...j.E.",
"pXOXT v : n ' >X+Xx.;.%X=X3 o + O . $.pX<X2 n Z l - T.pXu.I n G X.7Xz.p...j.~.M.        %.aXaX;XpXpX",
"pXI.@ o     - ~.pXiXqX,XA : v G n 4 x 3.<Xv.b.i g.d.).*X4 @ o @ > d.pXuX_.iXT.% = v 4 = @ ] eXaX%XpX",
"5XB = < x @ + J tXpXpX5Xd.R I H I R E.9XpXpXpX:.8XpXpXR.@ @ ; +   J iXpXpX5Xa.Y P Y Y H i.!.7X-Xm 7X",
"0.m Y P F P N x q.pXpX=X) M G < N M Y %XpXa.U.pXj.uX{.= Z Z H M l ; %.uXpXpXv.I I n M H / ,XpXa., W.",
".Xb.Y.k.q N.U.U.^.pX7XX.z - $ o + = : } >X,.s.1X= z.+X1.<.2.i o.,.1.<.tXpXV.Y : z + = 1 < ) +Xe.L i.",
"iXpXaX Xw ;XiXpXaXpX9Xt.+     + O   o #.2XpXaXw.n ' eXuXpXqX9 h.pXpXuXpXuXc.z   o     o O J C.iX8XpX",
"iX8.+XuX6XiXM.5XaXpXOX* $ $ - b $ o   o n.pXeXx = : 0X1X+XpXD.;X5X4XpXpXpX0.. + @ - = X   @ V.pXpXpX",
"*X; { iXuX9XE v.aX{.* < G b Z I M z < -   L.I.A N Z t.Q T iXpXpXi.f.pXpX4.O v 1 v G n - $ * o M.pXpX",
"j.4 U uXeXu.4 Z '.l.` Y I I P 6 H R H I b ~ OX9X:.2X$Xb b 7XpX<XP G OXR.C M I G I H I Y N G 3 z '.pX",
"V 4 : R.eXx X   t.4Xw.y.6.s.-.0 d M.1.j.<.r.,X9XaXaXj.: > n.pXu.. + ' 6Xe./ X.) X.u u @.R ) ) } %XpX",
".X;.B.OXy.= 4 < 3 W.eXiXuXiXD.q s pXpXaXiXeXc.#.aXuXs.=.o.a.4Xb * % > !.{.4X*X-X=Xw w ;X>X5X,X@X,XpX",
"aXtXaXuX8.R I Y ,.,XiX*X~.pXD.t h pXpXaXaXuXD 3 tXaXpX6X6XpXE.C Y Y Y M.9XR.OXqX Xq 0 &XuXuXiX.X2.pX",
"aXiXaX%XY 4 $ < x N.iX<.C pX,X#XaXpXpX9X9X*XQ F m.7XpXpXpXpXH.P 4 v G n.7Xb w.=X=XA.F.5X!.aXuX%.3 <X",
"pXaXaX!.=   O     ' uXOX).pXj.5.pXpXpXs.3.tX6X6Xi.j.pXw.rX7XV +   o + I $XN.Q.` $.tXuX@X_ 9X7X4 : I.",
"!.7X5Xb : < n < @ % R.pXpX-Xl 4 C.pXtXb 4 ,XuX0X) R 7X(.0X~.= @ < >   @ R.9X4Xz V qXuX*.Y d.[./ L { ",
"5 P.M.x R I L H G Z b <XpXT.    ^ uX}.l z {.tX,.n n 1.pX*X3 Z G J G n x - .Xc.< - %XQ.> = v ).9X XpX",
"(.-X<XR.E.^.q -.~.~.^.uX9XD G Z T $X` 4 : / OXb     2 .XrX5.9.5.f d q.2.,.}.c.[ X.v.s.  X + t.pXpXpX",
"iXpXpXpXpXpXr Z.pXpXpXpX}.R b b R +X~.>.-.Q.W.@ O O . 0.aXiXpXiXs t uXuXtXuXiX;X2X~.> < v - : C.pXpX",
"pXpXpXpXpXpXtXaXpX+XpXpXs.+     + q.iX9X9XoXx < M n 4 5 l.pXiX7X XG.tX~.iXaXiXaXpXR.R Y Y R e.4XpXpX",
"pX.X8XpXpX<X`.pXW.x uX-X5 : z l @ ; {.uXuX-X@.R I I R L.qXpX+X) uXuX*X/ 2XiXpXpXtX2.n b ; n Z .XpXpX",
"iXz w.pXpXv./ pX}.N.7Xl.P T L F P A $.9XtXc.M n < < b G Q.aXu.l %XiXi.Y <.pXpXpXOXM + # X O @ <.9XpX",
".Xl ~ pX+XP H i.aXiXuX*X+X%X+.a *XOXOX9X}./ $ @   o + & <.*Xm < u.~.: @ l M.pXpX].= # = <     B eXpX",
") l : @X4.@ # z -XqXtX9X}.9XS.Z.;X=X6X0X=Xx   # = @ X o ^ 9X}.S.*Xv.o   . 3.pX].= n n M G v < - B ,X",
"^.-.B..XV + + + y.9X9X=Xx z.0X0Xc.4.6X*X5 > 4 4 M n - & @ J iXpXoX2 < n < 4 P.T.Y ) I L 7 R I I Z R.",
"pXpXpXi.< M G v U Q.9XP.5 *.9X+XJ Z Q.q.b I Y Y H H Y G N : q.iXoX) R I R 8.eX2X.X$X2Xx.y ).:X>X~.uX",
"rXiXpXv.R H G R b.9X6XW 3 4 >XR.O   ] %X1.6.<.r.i u s.' 5.%.^.tX7.n x = v n M.pXpXpXpXh.t  XpX/.pXpX",
"^ M.*XP < = @ < m M.0XQ.;.^.OXA 3 4 5 W.8XqX8XuXr 9 uXaXpXuXuX,XG O o     + %.9XpXpXpXiXwXpX$Xl ).pX",
"4.M.+X>   o #   @ j.uXtXuXuX0XI H I _ =XaXuXuX#Xj j uX*X5XaXaXC.= @ = 4 # o : *XpXpXrXqXpXpX&.3 ~ aX",
"pXiXS = ; 4 z @ + ; %XiXuXaXd.2 $ $ < e.uXuX{.Z 9XpXpX1.r.iX].: V Z G I M 1 < < OXpX9.E.pXeXP x W yX",
"aXw.4 I G H H G M x C 5XpXuX! # $ $ X C eXaX0.l oXpXXXP I +X$X_ _ ) ( 7 ) ) / J [.eXY } pXM.- = @ R.",
"pXE.2.e.i...e s.<.5.<..XiXa.4 Z G G v < ~ ,Xb : 3.iX| O $ ` 4X*XeX7XS.y F.0X0X-XeXL.Y Y c.a.<.L ` } ",
"pXtXaXeXpXh 8 qXpXpXuX6.$X[.e.p.O.d t.e.v.oX4. .s.,X2 O   > $XaXeXiXC.k G.aXiXuX~.z - ; G ~.aX:.aXpX",
"pXpX0Xp.pXx.:.tXpXpX,XI ,.pXpXpX:.k pXiXuXpXaX6XyX$.4 M m b #.9X` M.aX;X%XaXuX9Xb.@ X   = b.aXpXpXpX",
"pXpXq.C B.pXpXpXpXeX} z n c.pXpXyXwXpXP.I.aXaXaXuX4.R G Y R {.iX' a.uXi.^ 9XuX9XW O + +   C 2XpXpXpX",
"pXuX<   Z tXpXpXpX:X& X   Q 7XpXE.pX9XP J =XuXuXM.m < @ = < Y OX9XtX0Xb z }.4X$.: 1 G M 3 x C 7XpXpX",
"pXL.4 n C '.pXpXpXt.+ & @ % n.yXG *XQ.+ + t.iXuXn.+   +     2 +XuXiXW.< ; V.9XP./ I I I Y 9.7XeXs.>X",
"iXe.Z n Y .XpXpX.XZ M I G G 3.,X2X9X` m G $.9XOX; < < n 4 @ + V 7XiX/ b 1 Z =X*.N G 1 b N P M.pXm v.",
"5X3 +   + ' pXpX,X_ Y n H Y !.pXpX,XE l l / *X3.b Y I H H G G < 0.*X*XN.:.@X2.Z = -   O - = Y I.=X8X",
"=.: 4 x = = [.9X*.4 < + - : P {.pXM.$ + o @ ~.~.j.j.j.g g b.s.d.M.' :XiXuXiXT.>     + o     V .XpXpX",
"` ` _ 6 ) Y #.7X` o   #     : '.5X3 b N b l 2 *XuX4XtXr s pXpXpXE.+ Q iXpX9Xx + @ = z -   o   #.pXpX",
"9XyX Xw 5X9X8XY.@ ; - n - + O V *Xz.v. ...c.e.+XuX| M.F. XpXpXpXQ n Z <X7X5 = G b M P G v ; < O $.uX",
"pXiXqX_.pXaX'.: M H G I I n n : Q yXpX:.:.pXpXpX1X4 ` pXpXpXpX2XA < B XXE.` H H P I L F Y P Y n B W.",
"+X<.pXpX+X>X>X,.,._ } 7 f &._ _ %.eX:XpXpXpXpXpXa.: z tXyXU.pXy.$ = + ` tX6.i.f.2.j.w u c.,.6.2.<.=X",
"v.K 9XiXA q.uX,XeX7X=X9 h uX9X9X5X:Xb 7XpXpXpXuX) N G T.T.l $XU T L P v W.tX2XuXpX3X0 w tXpXpXpXiXpX",
"uX8XiXiXN.Y.iXpXpXiX;Xa +.pXaXpXpX-X=.:XpXpXpXpXuXG.;XuX+Xg.4X7X8Xj #X7XtXaXb.pXpX&Xp p 3XpXpXpXiXiX"
};
