/* XPM */
static char *result[] = {
/* columns rows colors chars-per-pixel */
"50 50 187 2 ",
"   c #345315",
".  c #375518",
"X  c #39571B",
"o  c #3B591D",
"O  c #3E5C22",
"+  c #415F27",
"@  c #43622B",
"#  c #486631",
"$  c #4C6A36",
"%  c #58693A",
"&  c #52703F",
"*  c #65653C",
"=  c #70643F",
"-  c #4E7644",
";  c #567344",
":  c #567748",
">  c #5B7749",
",  c #547B4D",
"<  c #5C7A4D",
"1  c #5C7446",
"2  c #5E7E52",
"3  c #6D6C45",
"4  c #736944",
"5  c #786845",
"6  c #64734A",
"7  c #67754C",
"8  c #73734E",
"9  c #6E7750",
"0  c #617E53",
"q  c #6B7D55",
"w  c #6C7F58",
"e  c #787B57",
"r  c #8D583D",
"t  c #8A5F43",
"y  c #9B5B43",
"u  c #B94F48",
"i  c #A55C4A",
"p  c #A75545",
"a  c #BB534B",
"s  c #B25B4D",
"d  c #B7574D",
"f  c #BD5C52",
"g  c #B45E51",
"h  c #836645",
"j  c #8C6146",
"k  c #846649",
"l  c #8E6449",
"z  c #8A6C4E",
"x  c #96634A",
"c  c #95654C",
"v  c #9D6851",
"b  c #93785C",
"n  c #A4624E",
"m  c #A46753",
"M  c #AF6150",
"N  c #BC6356",
"B  c #B26857",
"V  c #BA7A6D",
"C  c #C4544E",
"Z  c #C9544E",
"A  c #CA5651",
"S  c #C65953",
"D  c #CB5D59",
"F  c #CB5C56",
"G  c #D55955",
"H  c #D55B59",
"J  c #DC5E5D",
"K  c #D55150",
"L  c #E75A5C",
"P  c #C66259",
"I  c #CB645C",
"U  c #C4685C",
"Y  c #D4625E",
"T  c #EE5E62",
"R  c #F55D64",
"E  c #CE6560",
"W  c #D56662",
"Q  c #DC6362",
"!  c #DA6A66",
"~  c #DC726E",
"^  c #E26565",
"/  c #EC6266",
"(  c #E56768",
")  c #EE656A",
"_  c #EF696D",
"`  c #E76869",
"'  c #F4666C",
"]  c #F9646C",
"[  c #F16A6E",
"{  c #FA686F",
"}  c #EF6C70",
"|  c #F36C71",
" . c #F96A71",
".. c #EC7779",
"X. c #F27276",
"o. c #F27679",
"O. c #F37B7E",
"+. c #F9797E",
"@. c #5D8155",
"#. c #628156",
"$. c #64845B",
"%. c #69855D",
"&. c #63885E",
"*. c #678760",
"=. c #648D64",
"-. c #6C8B65",
";. c #6F8D68",
":. c #6B8760",
">. c #718C65",
",. c #718E69",
"<. c #6C916B",
"1. c #679068",
"2. c #73916D",
"3. c #7A916D",
"4. c #769370",
"5. c #7B9573",
"6. c #7F9778",
"7. c #7F9A7A",
"8. c #829976",
"9. c #859B7C",
"0. c #889D7C",
"q. c #809772",
"w. c #8BA07F",
"e. c #F27F82",
"r. c #FC7B81",
"t. c #8A9E83",
"y. c #879D80",
"u. c #8DA184",
"i. c #91A486",
"p. c #92A38B",
"a. c #9AAB8F",
"s. c #9EAF93",
"d. c #9FB097",
"f. c #ACAC95",
"g. c #A3B399",
"h. c #A9B89F",
"j. c #ADBAA4",
"k. c #E18D8C",
"l. c #F48385",
"z. c #F48A8C",
"x. c #FF828C",
"c. c #F79394",
"v. c #F79E9E",
"b. c #F9999B",
"n. c #EAA09F",
"m. c #DEADA8",
"M. c #D0BAAF",
"N. c #E4A9A7",
"B. c #F9A5A5",
"V. c #ECB6B5",
"C. c #F7BBBD",
"Z. c #B4C2AD",
"A. c #B8C4AF",
"S. c #BBC6B3",
"D. c #BAC7B4",
"F. c #C3CDBC",
"G. c #FEBBC1",
"H. c #C7CEC0",
"J. c #CBD2C3",
"K. c #D3DACD",
"L. c #D5DAD1",
"P. c #DADED5",
"I. c #F7CFCF",
"U. c #FACDCE",
"Y. c #F7C3C3",
"T. c #FACFD0",
"R. c #F1DCDB",
"E. c #F9D4D5",
"W. c #DEE3DA",
"Q. c #D7E2D8",
"!. c #E2E6DE",
"~. c #E9EBE6",
"^. c #EDEDEC",
"/. c #E5E8E2",
"(. c #FBE5E6",
"). c #F9ECEB",
"_. c #EFF0EE",
"`. c #F1F2EF",
"'. c #F9F0EF",
"]. c #EFEDF0",
"[. c #F0EFF0",
"{. c #F4F5F4",
"}. c #F9F6F6",
"|. c #F8F7F8",
" X c #F3FBFA",
".X c #FDFDFD",
"XX c #F7F8F8",
/* pixels */
".X.X.X.X.X.X.X.X.X.X.X.X.X.X.X.X.X.X.X.X.X.X.X.X.X.X.X.X.X.X.X.X.X.X.X.X.X.X.X.X.X.X.X.X.X{..X.X{..X",
".X.X.X.X.X.X.X.X.X.X.X.X.X.X.X.X.X.X.X.X.X.X.X.X.X.X.X.X.X.X.X.X.X.X.X.X.X.X.X.X.X.X.X.X{.XX{.XX{..X",
".X.X.X.X.X.X.X.X.X.X.X.X.X.X.X.X.X.X.X.X.X.X.X.X.X.X.X.X.X.X.X.X.X.X.X.X.X.X.X.X.X.X.X.X^.|..X{..X.X",
".X.X.X.X.X.X.X.X.X.X.X.X.X.X.X.X{..X.X.X.X.X.X.X.X.X.X.X.X.X.X.X.X{.{..X.X.X.X.X.X.X.X{..X.X.X.X.X{.",
".X.X.X.X.X.X.X.X.X.X.X.X.X~.g.,.:.8.H..X.X.X.X.X.X.X.X.X.X.X.X.X.X.X.X{.~.^.{..X.X|.^.{..X{..X.X.X{.",
".X.X.X.X.X.X.X.X.X.X.X.XS.:.>.9.0.2.2 a..X.X.X.X.X.X.X.X.X.X.X.X.X.X.X.X{..X.X/.!..X.X{.{.{.{..X.X.X",
".X.X.X.X.X.X.X.XXX.X~.9.#.;.4.5.9.a.p.2 i..X.X.X.X.X.X.X.X.X.X.X.X.X.X.X.XL.8.:.%.5.S..X.X.X{.{.^.[.",
".X.X.X.X.X.X.X.X|.^.5.%.4.,.;.;.-.;.y.y.@.g..X.X.X.X.X.X.X.X.X.X.X.X.X.XA.2 *.2.,.-.#.8.`..X{..X{.^.",
".X.X.X.X.X.X.X|..Xa.*.5.;.;.;.,.,.,.;.5.4.#.F..X.X.X.X.X.X.X|..X.X.X.XA.2 2.2.,.;.-.2.$.:.`..X.X.X{.",
".X.X.X.X.X.X.X|.~.-.> ; -.2.;.,.,.;.,.;.,.,.$.!..X.X|..X.X.XXX.X.X.XF.#.2.,.,.-.;.9.y.y.:.8..X.X{..X",
".X.X{.^.].{.{..XW.#.o   + %.2.-.;.,.,.;.;.2.:.8..X.X~.{.}..X.X{..X!.$.,.,.,.-.2.u.t.5.6.9.@.J..X.X.X",
".X{.^.^.{..X^.^.^.,.@ o o O %.4.;.,.,.,.,.-.2.#.j..X{..X.X.X.X.X}.>.-.,.,.,.,.6.5.-.,.#.2 $.g..X{..X",
"{.{.{.{.{.{.{.{..XA.: O o o O 0 2.;.;.,.,.2.,.2.q K.(.N.V.'..X.X0.%.,.,.,.,.,.,.;.4.- X o ; Z..X^..X",
"{..X.X.X{.{.{..X.X{.d.: + o X o < 4.2.;.;.2.4.,.-.>.Y Z S E V.s.#.2.4.,.;.,.;.,.;.$ . o O < ~.{.^.{.",
".X.X.X.X.X.X{..X{.{..XZ.$.$ O o   $ -.2.,.;.2.3.2.$.s Q Y H r #.2.4.2.;.,.;.2.;.# . o o # j..X].{..X",
".X.X{.|.{.{.{.{.{..XXX.X!.j.y.,.0 $ # #.;.,.,.2.,.<.5 n f c *.4.4.2.,.,.,.4.%.+ . o O # u.|.].{.{..X",
".X.X|..X.X.X.X.XXX.X.X.X{.~.F.s.q.>.< ; 0 0 #.$.-.0 #.=.1 @.2.:.:.-.-.-.:.; X . O + & g..X{.^.^..X.X",
".X.X.X|.^.^.XX.X.XP.j.u.,.#.#.:.:.;.2.2.,.>.-.:.2 0 4.2.;.; #.0 2 2 ; $ O X @ & 1 0.Q..X{.{.~.~.{..X",
".X{.~.~.].|.!.j.4.%.#.:.>.2.2.,.,.,.2.2.2.2.,.4.%.%.2.-.,.> 2.2.2.,.,.;.:.#.; h Y x.G.R.[. X{..X.X{.",
".X{..XXXH.u.%.$.-.,.2.2.,.,.,.,.2.3.2.2.4.2.,.-.#.- <.<.@.> 2.4.5.,.,.,.2.2.,.:.9 x G { z.Y.}..X.X.X",
".X.XJ.3.#.*.2.2.,.,.,.;.,.;.,.2.2.,.2.,.%.0 0 , 1 h z 4 % @.0 0 -.4.5.2.,.,.,.,.<.=.#.c Y R o.T..X.X",
".XK.2 -.2.2.;.;.,.,.,.,.,.,.,.,.2.-.$.< $.&.0 v Q  .[ ' J t 2 %.< < -.4.4.,.;.,.;.,.2.=.0 N  .o.)..X",
".X8.*.2.,.;.,.,.,.,.-.,.;.,.2.-.0 2 $.2.$.h H  . ._ _ _ | ) p 6 1.:.> 0 ,.4.2.,.;.;.-.2.5.@.z / (..X",
"W.%.2.;.,.,.,.-.-.2.2.;.2.,.0 2 %.2.<.6 i / | _ _ _ _ _ _ _ { S 4 ;.2.#.< :.4.,.2.;.2.2.u.y.=.4 R..X",
"S.#.2.;.,.;.;.5.9.6.2.,.#.2 %.,.2.-.4 S { _ _ _ _ _ _ _ _ _ _ [ H 4 *.4.;.< 0 ,.,.,.,.;.;.u.p.&.8..X",
"g.%.2.;.;.5.u.y.4.<.$.> $.,.,.,.1.5 G [ _ _ _ _ _ _ _ [ _ [ _ _ } S 6 ;.,.,.0 < ;.,.;.;.,.-.p.y.#.J.",
"d.*.2.;.t.p.5.;.=.9 y 9 4.,.>.<.9 Y +._ ` [ _ [ _ [ _ _ _ [ _ ) _ } z 1.,.;.4.*.< ;.,.;.,.;.5.p.$.j.",
"a.$.4.u.9.,.*.0 l F F q <.,.,.<.5 / o.l.l._ / [ _ _ _ _ ) / _ O.l.r.n *.2.;.;.4.q % ;.,.;.,.,.q.%.i.",
"i.-.y.6.*.2 u.V A W f w 4.>.,.1.x ) ' _ O.c.l.} / _ ' / o.z.c.e.} ' g $.,.;.;.,.%.y 5 *.2.-.2.<.%.9.",
"0.2.2.2 3.H..Xk.u D d w ;.,.,.=.t ' _ _ / [ O.b.z._ O.b.b.l.[ / _  .N @.4.,.,.4.*.i C 3 <.>.>.2.:.u.",
"w.2 $.j..X.X.Xk.A D s w 4.;.;.1.x ' _ _ _ _ / [ O.B.B.o.) / [ _ _  .P $.2.,.;.,.*.N D a 6 <.>.2.&.s.",
"P.u.W..X.X.X.Xk.S Y I %.;.;.;.1.y ' _ _ _ _ [ [ / z.o./ [ _ _ [ _  .P #.,.;.;.;.*.U Q d p 6 2.2.&.j.",
".X.X.X.X.X{..XN.Z ) ( w 2.,.,.*.x ] [ _ _ _ _ } ) e.o.' [ _ _ _ _  .P #.2.,.,.,.*.M Q f C m $.4.%.J.",
".X.X.X.X.X.X.X).O./ ` e <.;.2.=.t ` [ [ _ _ _ _ ) e.X.) _ _ _ _ )  .I $.,.,.,.2.&.N  ._ u k.D., :.`.",
".X.X.X.X.X.X.X.X).e.T e <.,.,.;.j H Q ` [ ' _ _ ) e.} _ _ _ ) _ X.X.N @.2.,.;.2.%.I | | K N..Xj.Z..X",
".X.X.X.X{..X.X[.|.}.b.x 1.,.,.1.k ^ Q Y Q _ _ } ) O.} _ [ } X...~ Q M =.,.;.,.2.$.W ' / B..X.X.X.X.X",
".X.X.X.X.X.X.X.X.X.X.XM.#.2.,.<.5 ^  .^ Y Y ^ _ [ X.[ _ ` ! W Q Q ] B *.,.;.,.2.9 L l.I..X.X.X.X.X.X",
".X.X.X.X{..X.X.X.X.X.X.Xs.@.2.2.9 Y | _ _ ^ Y Y ( ` Q Y Y ^ ` [ [  .v =.2.;.,.1.b G.[. X{..XXX{..X.X",
".X.X.X.X.X.X.X.X.X.X.X}..Xi.@.4.#.f | _ _ [ _ ^ Y Y Q ` _ [ [ _ _ ' z 1.,.2.;.0 L..X_.{.{..X|.{.{..X",
".X.X.X.X.X.X.X.X.X.X.X{..X.Xj.$.=.m  ._ _ _ _ | [ ) [ [ _ [ _ _ [ ` 8 2.2.:.#.S..X{.{.XX.X.XXXXX.X.X",
".X.X.X.X.X.X.X.X.X.X.X.X.X.X.XJ.<.* L [ [ _ _ _ _ X.[ ) _ _ _ _ | Y $.;.0 9.P..X{..X.X.X.X^.^..X.X.X",
".X.X.X.X.X.X.X.X.X.X.X.X.X.X.X.X{.A.m.| / } _ _ ) l.| _ _ [ _ [ ] y , 3.J..X.XXX.X.X.X.X.X{..X.X.X.X",
".X.X.X.X.X.X.X.X{..X.X.X.X.X.X.X.X.X.X(.z.T _ _ ) l.} _ _ | / / z.f.H.{..X.X.X.X.X.X.X.X.X^.{..X.X.X",
".X{..X.X{.{.{.{.^..X.X{..X.X.X.XXX{.XX.X.XC._ / _ l.X._ / / z.T..X.X.X.X{..X.X.X.X.X.X.X{.{..X.X.X.X",
".X.X.X.X.X.X.X.X.X.X.X~.~.{.{.{..X{.XX.X{..X(.z.T O.[ L z.E..X.X.X.X.X.X.X.X.X.X.X{..X.X.X.X.X.X.X.X",
".X.X.X.X.X.X.X{.{.|.{.{.{.|.{..X}..X.X{..X.X.X.XY.v.v.U..X.X.X.X.X.X.X.X.X.X.X.X.X.X.X.X.X.X.X.X.X.X",
".X.X.X.X.XXX|.{.|.{.^.{.|..X{.|.{..X.X.X.X.X.X.X.X.X.X.X.X.X.X.X.X.X.X.X.X.X.X.X.X.X.X.X.X.X.X.X.X.X",
".X.X.X.X{.{.{..X{..XXX.X.X.X^..X.X.X.X.X.X.X.X.X.X.X.X.X.X.X.X.X.X.X.X.X.X.X.X.X.X.X.X.X.X.X.X.X.X.X",
".X.X.X{.{..X.X.X}..X.X.X.X{.{..X{..X.X.X.X.X.X.X.X.X.X.X.X.X.X.X.X.X.X.X.X.X.X.X.X.X.X.X.X.X.X.X.X.X",
"{.{..X.X.X.X.X.X.X.X{..X{..X.XXX.X.X.X.X.X{..X.X.X.X.X.X.X.X.X.X.X.X.X.X.X.X.X.X.X.X.X.X.X.X.X.X.X.X"
};
