/* XPM */
static char *eb0834ca33f24ef3e684b925861a29faSOXwbcaYBP0iIxfA[] = {
/* columns rows colors chars-per-pixel */
"50 50 213 2 ",
"   c #030105",
".  c #131213",
"X  c #1D2619",
"o  c #172C0C",
"O  c #222A1D",
"+  c #25371C",
"@  c #261D2B",
"#  c #2C3C24",
"$  c #2A3326",
"%  c #343B2F",
"&  c #520414",
"*  c #6B0B1C",
"=  c #780B1D",
"-  c #7D000A",
";  c #5E1B29",
":  c #7B1626",
">  c #6B1222",
",  c #592E3A",
"<  c #53222F",
"1  c #6A2A37",
"2  c #752736",
"3  c #76313E",
"4  c #6F2937",
"5  c #2C431F",
"6  c #2F4623",
"7  c #334529",
"8  c #364C2A",
"9  c #3A532C",
"0  c #395829",
"q  c #3F443D",
"w  c #3E5931",
"e  c #3F612D",
"r  c #435D35",
"t  c #45563B",
"y  c #424C3E",
"u  c #40632E",
"i  c #4B6C39",
"p  c #476736",
"a  c #4D7936",
"s  c #527B3D",
"d  c #44712C",
"f  c #3B3041",
"g  c #463B4C",
"h  c #6E3B46",
"j  c #4A4A4B",
"k  c #4C5647",
"l  c #584F5D",
"z  c #535551",
"x  c #66424D",
"c  c #6F4B55",
"v  c #4D6242",
"b  c #55694B",
"n  c #5B6D51",
"m  c #5E665B",
"M  c #5F7354",
"N  c #667B5A",
"B  c #617556",
"V  c #62685F",
"C  c #5F5A62",
"Z  c #625D65",
"A  c #755A62",
"S  c #6A656C",
"D  c #676569",
"F  c #6E6A70",
"G  c #656D73",
"H  c #726C75",
"J  c #766B78",
"K  c #757077",
"L  c #767278",
"P  c #79747C",
"I  c #7C787F",
"U  c #777E74",
"Y  c #6F736A",
"T  c #860519",
"R  c #9B071B",
"E  c #8E000C",
"W  c #A4071D",
"Q  c #B8051C",
"!  c #980D21",
"~  c #8A1426",
"^  c #931629",
"/  c #B80C22",
"(  c #A7192D",
")  c #C50D24",
"_  c #DC162E",
"`  c #D3132B",
"'  c #D61C32",
"]  c #C8172D",
"[  c #EA1C34",
"{  c #E71A32",
"}  c #F61D36",
"|  c #E3172F",
" . c #DF2137",
".. c #E12137",
"X. c #E32138",
"o. c #EC243B",
"O. c #F3243C",
"+. c #F9273F",
"@. c #84757C",
"#. c #578A3C",
"$. c #578141",
"%. c #5B8943",
"&. c #5E9442",
"*. c #699C4F",
"=. c #65984A",
"-. c #6A845C",
";. c #608E48",
":. c #6AA64B",
">. c #6DA251",
",. c #6FA951",
"<. c #73AE54",
"1. c #73A857",
"2. c #75B255",
"3. c #79B65A",
"4. c #7CBB5C",
"5. c #7ABC57",
"6. c #6E8661",
"7. c #718B63",
"8. c #789669",
"9. c #7A966A",
"0. c #7F9C70",
"q. c #7CA467",
"w. c #7EC05C",
"e. c #80BF5E",
"r. c #809F70",
"t. c #82BB64",
"y. c #87A975",
"u. c #92B77D",
"i. c #87A975",
"p. c #82C45F",
"a. c #83C462",
"s. c #89CB66",
"d. c #8CD267",
"f. c #97CE7A",
"g. c #9BD87A",
"h. c #8EC770",
"j. c #7F7B81",
"k. c #827C83",
"l. c #857F88",
"z. c #848186",
"x. c #868289",
"c. c #8A858C",
"v. c #8B888D",
"b. c #96868D",
"n. c #8F8B91",
"m. c #928D94",
"M. c #969398",
"N. c #989499",
"B. c #8E9397",
"V. c #A09297",
"C. c #96BA83",
"Z. c #9E9AA2",
"A. c #949FA2",
"S. c #A39DA2",
"D. c #9EACAE",
"F. c #A6A3A9",
"G. c #A9A6AA",
"H. c #A9A6AA",
"J. c #AAACB1",
"K. c #B1AEB3",
"L. c #B4ACB9",
"P. c #ADB4B7",
"I. c #B4B3B6",
"U. c #BABABC",
"Y. c #B6B6BA",
"T. c #9EC788",
"R. c #A3D886",
"E. c #A6D28E",
"W. c #B6EB9A",
"Q. c #BAF899",
"!. c #AFEF8E",
"~. c #BCEFA1",
"^. c #BEF4A2",
"/. c #C1F6A5",
"(. c #C3F9A6",
"). c #C7FDA9",
"_. c #CBFFAD",
"`. c #CFFFB0",
"'. c #D2FFB3",
"]. c #D9FFB8",
"[. c #BEB9C0",
"{. c #C1BFC2",
"}. c #BAC6C7",
"|. c #C4C2C5",
" X c #CAC6CB",
".X c #CBCACC",
"XX c #C3CECF",
"oX c #CFCDD0",
"OX c #D1CCD4",
"+X c #CBD8D8",
"@X c #D4D3D5",
"#X c #DCDBDD",
"$X c #D6D7DA",
"%X c #DFDAE1",
"&X c #E2DFE3",
"*X c #DCE9E9",
"=X c #E4E4E5",
"-X c #EDECED",
";X c #E8E4EA",
":X c #EFEEF0",
">X c #F0EDF1",
",X c #EBF6F6",
"<X c #F5F4F4",
"1X c gray99",
"2X c #FDFDFD",
"3X c #FDFDFD",
"4X c #FEFEFE",
"5X c white",
"6X c #FFFEFE",
"7X c #FEFDFD",
"8X c #FDFDFD",
"9X c #F8F9FA",
"0X c #EFF0EF",
/* pixels */
"4X4X4X4X4X4X4X4X4X4X4X4X4X4X4X4X4X4X4X4X4X4X4X4X4X4X4X4X4X9X1X1X4X4X4X4X4X4X4X4X4X4X4X4X9X9X9X4X9X4X",
"4X4X4X4X4X4X4X4X4X4X4X4X4X4X4X4X4X4X4X4X4X4X4X4X4X4X9X4X4X4X4X3X,X,X4X4X4X4X4X4X4X4X4X4X<X9X9X9X<X4X",
"4X4X4X4X4X4X4X4X4X4X4X4X4X4X4X4X4X4X4X4X4X4X4X4X9X4X4X,X}.c.A h 3 3 x $X4X4X4X4X4X4X4X9X-X9X4X9X9X9X",
"4X4X4X4X4X4X4X4X9X4X4X4X4X4X4X4X9X4X4X4X4X4X4X1X4X,Xv.3 ! / ` | [ } Q A 4X1X4X4X4X4X4X9X9X4X4X4X9X<X",
"4X4X4X4X4X4X4X9X9X4X4X4X4X9X9X<X<X9X1X4X4X4X4X4XP.1 Q [ O.o.o.X.X.X.O.2 +X<X<X<X<X<X<X<X9X9X9X9X9X<X",
"4X4X4X4X4X4X4X4X4X4X9X9X4X9X4X9X4X9X4X4X4X4X4Xk.T [ O.X... .X.X.X.X.o./ H 4X<X9X9X9X<X-X<X<X<X9X4X4X",
"4X4X4X4X4X4X4X4X9X9X<X<X4X4X4X<X9X9X4X4X4X4XH R +.X...o.' ~ o...X.X.X.O.= D.4X1X4X4X4X4X4X9X<X<X<X<X",
"4X9X4X4X4X4X4X9X<X<X9X9X4X9X4X4X4X4X4X4X4XK W +.X.X.X.X.X.* X.X.X.X.X.X.o.= A.4X4X9X4X4X4X<X9X9X<X-X",
"4X4X9X4X4X4X4X9X9X4X9X9X9X9X4X4X4X4X1X4Xj.R O...X.X.X.X.O.( : O.o.X.X...X.O.T S ,X4X9X4X9X4X4X4X9X9X",
"9X4X4X4X4X9X4X<X4X4X4X4X4X4X4X9X4X1X4XB.T O.X.X.X.X.X.X.X.O.^ * ) } O.o.X.X.O./ , +X4X<X9X4X4X4X9X9X",
"4X9X<X-X-X<X<X<X4X4X4X4X4X4X4X9X9X4XJ.= O.X.X.X.X.X.X.o.] ( } x @.2 ! ) [ O.X.O._ ; }.4X<X9X4X4X9X4X",
"4X<X-X-X9X9X<X-X<X<X9X4X9X9X<X<X4XXX> O.X.X.X.X.X.X.X.X.X.: T V.4X*XP.@.3 R { o.o.{ ; *X1X<X<X9X<X4X",
"9X<X<X<X<X<X<X<X<X9X4X4X4X9X4X9X3Xh _ X.X.X.X.X.X.X.X.X.o.X.& U.4X4X4X4X,XJ.1 ) o.o./ F 4X<X9X9X<X4X",
"<X9X4X4X<X<X9X4X9X1X|.U.z.F  X4XD - O.X...X.X.X.X.X.X.X.X.O.^ +X4X9X9X<X9X4X,Xc ) o.[ 2 *X1X9X<X-X9X",
"4X4X4X4X4X4X9X9X4Xv.x.n.@X<XD L F.F.3 ` o...X.X.X.X.X.X.X.O.~ +X4X4X4X9X<X-X1X,Xh _ O.~ +X1X<X<X<X4X",
"4X9X9X9X<X<X<X4X{.z.4X4X4X4X9X4X4X4X*X4 o.o...X.X.X.X.X.X.O.~ XX4X9X1X4X-X@X#X<X}.: } 1 ,X<X-X<X<X4X",
"4X4X9X4X4X4X9X4Xm.oX4X9X4X4X4X4X9X<X4XN.E _ o.o.o.X.X.X. .O.W Z.4X<X4X4X4X<X=X=X4Xm.E b.4X-X-X-X9X4X",
"4X4X4X9X<X<X<X4XK.m.4X4X4X4X4X4X4X4X4X=XJ c ) ) ) [ X.o.O.O._ c 4X4X|.F.J.G.-X-X<XJ.. z.4X<X-X-X<X9X",
"4X<X-X-X=X-X9X9X4XF #X4X4X4X4X4X4X4X4X4X4XU., b.k.2 [ / ~ ! [ * G P j.J.H.D  X4X#XK 4Xj.D U.4X<X4X9X",
"9X<X<X<X<X<X4X4X9XI 4X4X4X4X4X4X<X4X4X4X4X9X2X4X4XP.& b.+XY.< S.4XF.-X4X<XS -X<X-XH 4X4XI.I 4X9X4X4X",
"4X9X<X4X4X4X4X4X4Xc.N.j.OXI.4X4Xj x.4X4X4X4X4X1X1X1X$X4X4X4X,X4X4X4X4X4X4XH =X4X.Xz.4X4XZ #X4X4X4X4X",
"4X9X<X9X9X4X4X4X4X9X[.Y.m.H J l   . P >X4X4X=X4X4X9X4X4X9X4X4X4X4X4X4XK.k.M.4X9X<Xv.F x.j.4X4X4X4X4X",
"4X9X9X4X4X4X4X4X4X4X4X4X XY u 0 X # + $ z j   Z.4X4X4X<X4X{.<X9Xg Z.H l.#X4X4X9X<X4X4X X-X4X4X4X4X4X",
"4X4X4X4X4X4X4X4X4X9X4XK.0 a *.d.<.# 7 p 0 9 8 O m.L.Y q P + % z 6 u u k |.9X-X-X<X4X4X4X4X4X4X4X4X4X",
"4X4X4X4X4X4X4X4X4X4X4Xj X 7 >.3.4.4.8 O 9 p i 9 X %.a + 5 7 6 :.s.a.p.o l 4X<X<X9X4X4X4X4X4X4X4X4X4X",
"4X4X4X4X4X4X4X4X4X4X4XJ.r a.4.3.3.3.4.;.9 $ # p 7 4.7 # 7 i e.4.e.s j k j 4X4X9X4X4X4X4X4X4X4X4X4X4X",
"4X4X4X4X4X4X4X<X<X<X-Xn #.1.4.3.4.<.$.a.a.>.r $ # *.# i <.a.*.,.2.<.k L.G.9X4X1X4X4X4X4X4X4X4X4X4X4X",
"4X4X4X4X4X4X4X9X<X4X Xw + <.a.^.).!.1.a <.4.a.;.# >.*.2.>.$.=.!.Q.h.:.D 4X4X4X1X9X4X9X4X4X4X4X4X4X4X",
"4X4X4X4X4X4X9X<X-X<XY.. y 2.R.C.N 6.i.t.$.s s ,.p 8 i $.%.,.g.0.0.R.5.v -X4X4X4X4X4X4X4X4X4X4X4X4X4X",
"4X4X4X4X4X4X9X9X<X-X@XZ.Y =.R./.r.8.y.T.Q.h.s.i . 6 O >.s.f.7.n -.W.p.v ;X4X4X4X4X4X4X4X4X4X4X4X4X4X",
"4X4X4X4X4X4X4X4X9X0X0X4XM.a f.'.T.r.]./.).).(.^.u.t t W./.~.^.T.y._.4.v >X4X4X4X4X4X4X4X4X4X4X4X4X4X",
"4X4X4X4X4X4X4X4X1X<X<X<X%Xt 5.W.^.B (./.(.(.(.(.'.W.7.`./.(.'.u.i.).,.m 4X1X4X4X4X4X4X9X4X4X4X4X4X4X",
"4X4X4X4X4X9X<X9X4X4X4X<X4Xm.a g.'.9.i.'.^.(.(.(./.(.N ~.(./.`.8.T.Q.a M.4X9X4X4X4X4X9X9X9X4X4X4X4X4X",
"4X4X4X4X4X9X9X4X4X4X9X4X4X4Xk :.W._.n T.'.^.(.(./._.-.W.).(.(.M /.s.t ;X4X9X4X<X<X1X9X4X4X4X4X4X4X4X",
"4X4X9X4X4X4X4X9X4X9X4XY.L U.$Xt 2././.n u.'.)././._.7.E.(.'.9.y.Q.0 F.4X<X4X9X-X9X4X9X4X4X4X4X4X4X4X",
"4X4X9X9X9X4X4X<X<X4X9XZ =XM.v.[.v 4.Q._.6.-.W.'./._.7.E.].u.N Q.d P 4X9X<X9X9X<X9X9X<X-X<X4X4X4X9X4X",
"4X4X4X9X9X4X4X9X4X@XS F.4X4X Xz.J r p.R.'.T.n i.(.].8.W.C.B !.s P 4X9X9X<X9X<X9X<X-X-X<X<X4X4X4X4X9X",
"4X4X4X4X9X4X9X9X<XL 9X4X4X4X4X4XU.f 5 w.t.!.^.r.N y.k N -.t.5 @ m.<X1X<X-X-X-X-X-X<X<X<X<X4X9X<X9X4X",
"4X4X4X4X9X4X4X4X-XH =X$X=X9X4X4X4X-Xg 6 p.<.t.g.f.q.q.=.s q m.4Xm.D @X1X#X-X<X-X-X<X<X9X9X4X<X<X9X4X",
"4X4X4X4X4X4X4X4X4X Xj.v.z.S -X4X-X4X4XH p s.2.<.4.4.r U L.4X4X4X<X.XI |.<X<X<X-X<X<X<X9X9X9X<X9X9X4X",
"4X4X4X4X4X4X4X4X4X4X4X4X4X.XK Z m.4X9X4XC #.s.4.4.&.P 4X<X4X9X4X4X4Xv.K.4X-X<X<X<X1X4X4X9X-X-X4X9X9X",
"4X4X4X4X4X4X4X4X4X9X1X4X9X4X4X Xv.4X4X4X-Xm p :.d.i J N.k.=X4X9X4X{.H 4X<X9X<X9X4X4X4X4X4X<X9X4X4X4X",
"4X9X4X4X4X1X9X9X<X4X4X4X4X4X4X4Xk.n.Y.4X4X4XOXV i $ m.{.4X4X9X4X<XF .X4X<X4X9X4X4X4X4X4X9X-X<X4X4X4X",
"9X<X9X9X<X<X<X9X-X4X9X<X4X4X4X4X<XU.F N.<X4X4X|.c.&XF.oX4X4X4X#XZ |.4X9X9X4X4X4X4X4X4X9X9X<X9X4X4X4X",
"4X4X4X9X9X4X9X9X4X4X4X-X-X-X<X<X4X4X4XK Y.4X4X.X@X4X4X4X4X4Xj.H #X4X9X4X4X4X4X4X9X9X4X9X4X9X4X4X4X4X",
"4X4X4X4X4X4X9X9X<X<X<X<X<X9X9X9X9X<X4XK.I.4X4X4X4X4X9X4X4Xz.G.4X4X9X4X4X4X4X9X4X4X4X9X4X4X4X4X4X4X4X",
"9X9X4X4X4X<X9X9X<X<X-X<X4X4X<X9X<X9X4X;XH S.x.4X4X9X4XY.F N.4X4X4X4X4X4X4X4X4X4X4X9X4X4X4X9X4X4X4X4X",
"4X4X4X4X<X<X<X9X<X4X9X<X4X9X-X4X4X4X4X4X<XN.C #X4X4X.XS <X4X4X4X4X4X4X4X4X4X4X4X4X9X4X4X4X4X4X4X4X4X",
"4X4X4X9X<X4X4X9X9X4X4X4X4X<X<X4X9X4X4X4X4X4XM.S x.Z.F >X4X9X4X4X4X4X4X9X9X4X4X4X4X4X4X4X4X4X4X4X4X4X",
"9X<X9X4X4X4X9X4X4X9X<X4X<X9X9X9X4X4X4X4X9X9X4X4X XI.4X4X4X4X4X4X4X4X4X4X4X4X4X4X4X4X4X9X4X9X4X4X4X4X"
};
