/* XPM */
static char *b1e53c3c4537458e9499422fdf149a70byztPE6azsAeR7pz[] = {
/* columns rows colors chars-per-pixel */
"50 50 216 2 ",
"   c #000101",
".  c #0E0607",
"X  c #400002",
"o  c #540F17",
"O  c #7A0715",
"+  c #6B131E",
"@  c #79121E",
"#  c #76000B",
"$  c #7E1925",
"%  c #6A1C25",
"&  c #69393F",
"*  c #6F2A32",
"=  c #553135",
"-  c #6D3B41",
";  c #51504F",
":  c #6F4147",
">  c #735A5C",
",  c #655254",
"<  c #596160",
"1  c #6B6C6C",
"2  c #676665",
"3  c #717B7A",
"4  c #7C7C7B",
"5  c #767575",
"6  c #7B6B69",
"7  c #880918",
"8  c #9B0718",
"9  c #8F101F",
"0  c #93101F",
"q  c #980009",
"w  c #A10114",
"e  c #A40A1C",
"r  c #AC0B1E",
"t  c #AB0619",
"y  c #B40A1E",
"u  c #8B1623",
"i  c #941322",
"p  c #9D1425",
"a  c #9B1B2A",
"s  c #961A29",
"d  c #A40E20",
"f  c #AB0F21",
"g  c #B50E22",
"h  c #BA0C21",
"j  c #A21324",
"k  c #AD1A2C",
"l  c #AA1426",
"z  c #B7182A",
"x  c #BA1E31",
"c  c #B01F30",
"v  c #8E2D39",
"b  c #862A34",
"n  c #982734",
"m  c #8E353F",
"M  c #95303C",
"N  c #B52637",
"B  c #CB000C",
"V  c #DC0008",
"C  c #C10017",
"Z  c #CA0116",
"A  c #D80013",
"S  c #E4000F",
"D  c #E80218",
"F  c #FE001D",
"G  c #F40015",
"H  c #CC0D23",
"J  c #C20D23",
"K  c #C21126",
"L  c #CB152A",
"P  c #CD192E",
"I  c #C0192D",
"U  c #C51D31",
"Y  c #CC1D32",
"T  c #D51C32",
"R  c #D1162C",
"E  c #FE0422",
"W  c #F50A26",
"Q  c #FF0A27",
"!  c #F60D28",
"~  c #FF0B28",
"^  c #E01A31",
"/  c #E70822",
"(  c #C62034",
")  c #CB2135",
"_  c #D32136",
"`  c #D7273B",
"'  c #953944",
"]  c #8D3F48",
"[  c #AB3745",
"{  c #87424B",
"}  c #92454E",
"|  c #8B4C53",
" . c #8A555C",
".. c #94555C",
"X. c #A34F59",
"o. c #845E63",
"O. c #9D5961",
"+. c #A95A63",
"@. c #8A6567",
"#. c #96646A",
"$. c #9E6A71",
"%. c #887976",
"&. c #9D767A",
"*. c #967578",
"=. c #977D6F",
"-. c #B06D75",
";. c #A2747A",
":. c #A37376",
">. c #9D8D7B",
",. c #817F80",
"<. c #9B7F82",
"1. c #A77C81",
"2. c #858484",
"3. c #8C8B8C",
"4. c #878788",
"5. c #968A8A",
"6. c #9B938B",
"7. c #949393",
"8. c #9A9795",
"9. c #9B9C9C",
"0. c #949F9E",
"q. c #A38186",
"w. c #A9898C",
"e. c #B48987",
"r. c #A79786",
"t. c #B29D8A",
"y. c #AB8D90",
"u. c #A38D90",
"i. c #B38E92",
"p. c #AD9194",
"a. c #AC9C9D",
"s. c #A39C98",
"d. c #B49899",
"f. c #BCA78D",
"g. c #B0A189",
"h. c #AEA296",
"j. c #BBA997",
"k. c #BAAA99",
"l. c #AA9EA0",
"z. c #A3A3A3",
"x. c #ADA5A3",
"c. c #ACACAC",
"v. c #ADA9A4",
"b. c #B3A2A4",
"n. c #B2ACAC",
"m. c #B8A8A8",
"M. c #B5B1AC",
"N. c #BBB5AE",
"B. c #BAAFB1",
"V. c #A9B5B3",
"C. c #B3B3B3",
"Z. c #BBB5B5",
"A. c #BCBBBB",
"S. c #B6BAB9",
"D. c #C88B8D",
"F. c #C78F90",
"G. c #DA9396",
"H. c #D68E92",
"J. c #EE9D9F",
"K. c #C2AB93",
"L. c #C9AF95",
"P. c #CAB298",
"I. c #D5BA9F",
"U. c #C49FA4",
"Y. c #CCB9A3",
"T. c #DABEA3",
"R. c #D5BDA4",
"E. c #C2BCBC",
"W. c #C4B2B4",
"Q. c #FDADB1",
"!. c #FFBABC",
"~. c #FBABAE",
"^. c #DDC2A5",
"/. c #E8CAAB",
"(. c #EDCFB0",
"). c #EDD1B3",
"_. c #F7D9B9",
"`. c #FEDDBD",
"'. c #FFE1BE",
"]. c #BCC1C1",
"[. c #C4C4C4",
"{. c #CBCBCB",
"}. c #C6C9C9",
"|. c #CCCED0",
" X c #D5CFD0",
".X c #CCD9D7",
"XX c #CFD1D1",
"oX c #D3D3D3",
"OX c #D4DBDA",
"+X c #DDDDDD",
"@X c #D6D7D8",
"#X c #FDDFC1",
"$X c #E1DEDE",
"%X c #FFE5C4",
"&X c #FFEBCA",
"*X c #FFE8C8",
"=X c #FFF8D6",
"-X c #CDE3E0",
";X c #DBE2E2",
":X c #E4E4E5",
">X c #E3EBEA",
",X c #ECECED",
"<X c #E9E7E7",
"1X c #F2EFEF",
"2X c #E3F0EE",
"3X c #F1EFF0",
"4X c #EBF4F4",
"5X c #EDFEFC",
"6X c #E2F2F0",
"7X c #F4F4F4",
"8X c #F5FDFD",
"9X c white",
"0X c #FEFEFE",
"qX c #FDFDFD",
"wX c #FDFDFD",
"eX c #F7F7F8",
/* pixels */
"0X0X0X0X0X0X0X0X0X0X0X0X0X0X0X0X0X0X0X0X0X0X0X0XqX0X0X0X0X0X0XeXeX0X0X0X0X0X0X0X0X0X0X0XeXeXeX0XeX0X",
"0X0X0X0X0X0X0X0X0X0X0X0X0X0X0X0X0X0X0X0X0X0XeX0X0X4X[.b.m.oX8X0X0X0X0X0X0X0X0X0X0X0X0X0X7XeXeXeX7X0X",
"0X0X0X0X0X0X0X0X0X0X0X0X0X0X0X0X0X0X0X0XqX0X0X0Xx.v d r r p ' $.y.A.8X0X0X0X0X0X0X0X0XeX,XeX0XeXeXqX",
"0X0X0X0X0X0X0X0XqX0X0X0X0X0X0X0XeX0X0X0X0XqX;X#.e P ) ) ) Y L h h e { OX0X0X0X0X0X0X0XeXeX0X0X0XeX7X",
"0X0X0X0X0X0X0XeXeX0X0X0X0XeXeX7X7XeX0X0Xa.} s h ) U U U U U U ) x ) H b OX7X7X7X7X7X7X7XqXeXeXeXeX7X",
"0X0X0X0X0X0X0X0X0X0XeXeX0XeX0XeXqXeX0X#.w P _ _ ) ) P P Y ) U ) k @ c H  .qXeXeXeXeX7X,X7X7X7XeX0X0X",
"0X0X0X0X0X0X0X0XeXeX7X7X0X0X0X7X7X0Xx.e ` K d j r r n ' s g L h L _ @ x d Z.0X0X0X0X0X0X0XeX7X7X7X7X",
"0XeX0X0X0X0X0XeX7X7XeXeX0XeX0X0X0X8X' H e ..E.{.b.b.>X5X;X&.} ;.{ f U + L ] 8X0XeX0X0X0X0X7XeXeX7X,X",
"0X0XeX0X0X0X0XeXeX0XeXeXeXeX0XeX0XE.@ O.a.qX0X0X0X0X0X0X0X0X8X0XqXs.r 7 s l [.0XeXeX0X0XeX0X0X0XeXeX",
"eX0X0X0X0XeX0X7X0X0X0X0X0X0X0XeX0X7.{.0X0X0XeXeX0X0X0X0XeXqX0XqX0X0Xw.{ o C @.0X0XeXeXeXeX0X0X0XeXeX",
"0XeX7X,X,X7X7X7X0X0X0X0X0X0XeX0XC.oX0XqXeX0X0X0X,XeX0X0X0X0X0X0X0X0X0X0X5.| 5.c.,X0X7X7XeXqX0X0XeX0X",
"0X7X,X,XeXeX7X,X7X7XeX0X0XeX0XA.S.0XqX0X0X0X4XA.r.h.v.h.n.E.v.0X0X0XeX0X+XS.0X,X9.:X0X7X7X7X7XeX7X0X",
"eX7X7X7X7X7X7X7X7XeXeXeXeXeX:Xc.0X0X0X0X@X6.j.^.&X%X`.`.).^.K.c.0X0X0X0X0Xn.@X0X,Xz.0X7X7X7XeXeX7X0X",
"7XeX0X0X7X7XeX0XeX7X7XeXeX0X{.+X0X0X7XA.r.`._.T.K.Y.f.g.r.).&XL.s.C.0X0X0X+XA.0X0Xc.,XeX7X7XeX7X,XeX",
"0X0X0X0X0X0XeXeXeX7X0XeX,X0X|.7.,X7X2 K.%X*XR.r.t.e.e.e.r.'.*X&X`.f.9.0X0XC.:X0X0Xz.7X7X7X7X7X7X7X0X",
"0XeXeXeX7X7X7X7X7XeX0X7X7X:Xh.^.t.4.u.%X#X&X_.=.H.Q.~.G.@.k.j.T.&X&X%.7.v.%.eX0XC.[.7X7XeX7X,X7X7X0X",
"0X0XeX0X0X0X0XeX7XeX7X7X0XE./.=XK.|.Y.&X&XP.x.A.y.q.p.a.>XeX,XM.t./.>.9.T.(.5.z.A.7X,X7X7X7X,X,XeX0X",
"0X0X0XeX7X7X7X7X7XeX7X7X0XN.`./.n.0X6 L.t.S.0X0XqXqXoX0X0X0X0X0X>Xx.; ;Xj.'.8.,X7X,X7XeXeX7X,X,X7XeX",
"0X7X,X,X:X,XeXeXeX0X0XeX0XoXI.j.:X0X9.A.,X0X0X0X0X+X2.A.0X0X0X0XqXc.oX0XM.>.{.0X,XeX0X7X7X7X7XeX0XeX",
"eX7X7X7X7X7X0X0X0XeX0X0X0X0XM.6.0X0X+XC.qX0X0X7X}.C.0X}.4 A.[.C.z.+X0X0X,X4.eX,XeX0XeX7X7XeXeX0X0X0X",
"0XeX7X0X0X0X0X0X0X7X0X0X0X0X,XS.0XeX0X+Xc.c.S.7.> E.Z.d.#.A.:X,X0X0X0X0X0XC.:XeX7X7X,X,X7XeX0X0X0X0X",
"0XeX7XeXeX0X0X0X0X0X0X0X0X0X,XA.eX0X0X0X0X7X0X@XF.G.H.J.w.0X0X0X0X0X0XeX:Xc.7X0XeX7X7X7X7X0X0X0X0X0X",
"0XeXeX0X0X0X0X0X0X0X0X0X0XeX0X9.C.0X0X0X0X0X0X@XD.!.Q.:.@X0X0X0X0X0X0X0Xz.z.0XeX7X0X0X0X0X0X0X0X0X0X",
"0X0X0X0X0X0X0X0X0X0X0XeXeX7X0X{.c.0X0X0X0X0X0X+X%.F.&.XX0X0X0X0X0X0X0X0X{.[.eX,X7X0X0X0X0X0X0X0X0X0X",
"0X0X0X0X0X0X0X0X0X0X0XeX7XeXeXeXA.0X0X0X0X0X0X,X4 1 >X0X0X0X0X0X0X0XeX0X}.oX0X7XeX0X0X0X0X0X0X0X0X0X",
"0X0X0X0X0X0X0X0X0X0X0XeXeXeX7X0XV.}.0XeX,X0X0X0X0X7X0X0X0X0X0X0XqX0X0X0X0.0X0XeX0X0X0X0X0X0X0X0X0X0X",
"0X0X0X0X0X0X0X7X7X7X,X,X+X7X,Xa.n m >X0X{.;X0XeX0X0X0X0X0X0XeX0X]..X4X&.u b.0XeXqX0X0X0X0X0X0X0X0X0X",
"0X0X0X0X0X0X0XeX7X7X,X:X:X{.2.# H R * l.Z.6 qX0XeXqX0X0X0X0X0XqX| n % g ^ q u.0XeX0XeX0X0X0X0X0X0X0X",
"0X0X0X0X0X0XeX7X,X,X:X,XC.c.+X{.#.i i y f y ..2X0X0X8Xz.+X>X{...g T k 9 M #.%.c.7X0X0X0X0X0X0X0X0X0X",
"0X0X0X0X0X0XeXeX7X,X7X:XV.0X0X0X0X> g _ ) ) K b <.U.#.0 a n p K Y ( K : 6X0X0X$Xc.0X0X0X0X0X0X0X0X0X",
"0X0X0X0X0X0X0X0XeX,X7X;Xo.-.B.8X0X1.h ) U U _ l O X r _ Y Y Y ( U ) y p.0X0X5XqXS.3X0X0X0X0X0X0X0X0X",
"0X0X0X0X0X0X0X0X0X7XqX;.V G B X.-X} L U U U Y u s . a Y U U U U U ) h <.5Xw.[ N @.qX0XeX0X0X0X0X0X0X",
"0X0X0X0X0XeX7XeXeX0X{.C Q W ~ A + x Y U U Y I u I u U U U U U U U U P n $ S F F Z [.0XeXeX0X0X0X0X0X",
"0X0X0X0X0XeXeX0XeX0Xi.D ! W E y k T U U U Y k p @   k Y U U U U U U U Y 8 ~ W ! G +.0XqX0X0X0X0X0X0X",
"0X0XeX0X0X0X0XeXeX0XZ.B E Z Z 8 x U U U U Y k i Y l U U U U U U U U U ( p D / ! F [ 5XqXeX0X0X0X0X0X",
"0X0XeXeXeX0X0X7X7X0X8X$.N | 7 k Y U U U U Y k p k $ U U U U U U ( ) ) L 7 8 w F V 1.qX<X7X0X0X0XeX0X",
"0X0X0XeXeX0X0XeXeX0XeX8X5X4.8 T Y ) ) ) ) ) k k o   ( ) ) Y Y P K h j ' E.;Xn.v :.;X1X7X7X0X0X0X0XeX",
"0X0X0X0XeX0XeXeX0X0XeX0XA.[.w.v p r y h h J r 7 y 8 g r f j a M ..q.[.8X0X0X7XV.qX7X7X7X7X0XeX7XeX0X",
"0X0X0X0XeX0X0X0XeX0XeX0Xc.0X0X4X{.m.p.q.;.;.;.*.1.w.p.b.Z.{.;X4X0X0X0X0X0X0Xz.oX1X7X7XeXeX0X7X7XeX0X",
"0X0X0X0X0X0X0X0X0X0XeX0XA.[.0X0X0X0X0X0X0X0X0X0X0X0X0X0X0X0X0X0X0X0X0X0X:Xz.[.7X7X7X7XeXeXeX7XeXeX0X",
"0X0X0X0X0X0X0X0X0X0X0X0X0Xc.c.@X:X3X0X0X0X0X0X0X0X0X0X0X0X0X0X0X0X:X{.c.c.+XeX7X7X0X0X0XeX,X,X0XeXeX",
"0X0X0X0X0X0X0X0X0XeX0X0X0X0X:X[.S.c.4 o.&.i.m.B.Z.W.W.n.m.y.*. ., 9.[.:X0X0X7XeX0X0X0X0X0X7XeX0X0X0X",
"0XeX0X0X0XqXeXeX7X0X0X0X0X0X0X0X0X0X:Xa.#.* O y t O 7 y w & q.y. X0X0X7X7X0XeX0X0X0X0X0XeX,X7X0X0X0X",
"eX7XeXeX7X7X7XeX3X0XeX7X0X0X0X0XeX7X0X0X0X.X; & - ; , - = 3 0X0X0X0X0X0XeX0X0X0X0X0X0XeXeX7XeX0X0X0X",
"0X0X0XeXeX0XeXqX0X0X0X,X,X,X7X7X0X7XeX7XqX$X< 3 3 9.4.3 < 4.0XeX0X0X0X0X0X0X0X0XeXeX0XeX0XeX0X0X0X0X",
"0X0X0X0X0X0XeXeX7X7X7X7X7XeXeXeXeXeXeX0X+X5 1 3.,.S.8.3.4 1 9.0X0X0X0X0X0X0XeX0X0X0XeX0X0X0X0X0X0X0X",
"eXeX0X0X0X7XeXeX7X7X,X7X0X0X7XeX7X0X7X0XA.2 9.7.5 2.4 2.7.3.1 eX0X0X0X0X0X0X0X0X0XeX0X0X0XeX0X0X0X0X",
"0X0X0X0X7X7X7XeX7X0XeX7X0XeX,X0X0X0X0X0XeX9.4 4 3.+Xc.4 4 4 {.0X0X0X0X0X0X0X0X0X0XeX0X0X0X0X0X0X0X0X",
"0X0X0XeX7X0X0XeXeX0X0X0X0X7X7X0XeX0X0X0X0X0X0X0X0X0X0X0XeX0X0X0X0X0X0XeXeX0X0X0X0X0X0X0X0X0X0X0X0X0X",
"eX7XeX0X0X0XeX0X0XeX7X0X7XeXeXeX0X0X0X0XeXeX0X0X0X0X0X0X0X0X0X0X0X0X0X0X0X0X0X0X0X0X0XeX0XeX0X0X0X0X"
};
