/* XPM */
static char *b7ee7c86f2bf41d9c855955e235395144ZZ2oqMRimFNlECh[] = {
/* columns rows colors chars-per-pixel */
"50 50 198 2 ",
"   c #6C352A",
".  c #6C362B",
"X  c #753D34",
"o  c #25592B",
"O  c #295C2E",
"+  c #225727",
"@  c #2C5E31",
"#  c #2E6034",
"$  c #316236",
"%  c #356539",
"&  c #38673C",
"*  c #3B693E",
"=  c #37683B",
"-  c #77443A",
";  c #416C3F",
":  c #3E6B41",
">  c #7E4D44",
",  c #7D5649",
"<  c #426E44",
"1  c #436F48",
"2  c #496E44",
"3  c #467046",
"4  c #497146",
"5  c #477149",
"6  c #4C754C",
"7  c #51784F",
"8  c #51774D",
"9  c #4D7751",
"0  c #4F7950",
"q  c #547B53",
"w  c #5A7E56",
"e  c #557D59",
"r  c #5A7F58",
"t  c #587651",
"y  c #7C6452",
"u  c #7C6B56",
"i  c #697C5C",
"p  c #7E7B63",
"a  c #767F61",
"s  c #885B52",
"d  c #85594F",
"f  c #8C655B",
"g  c #816556",
"h  c #91665E",
"j  c #80745F",
"k  c #956E66",
"l  c #95736A",
"z  c #99746C",
"x  c #97786E",
"c  c #897464",
"v  c #5F8157",
"b  c #5D815B",
"n  c #63845D",
"m  c #5E8463",
"M  c #648661",
"N  c #6C8564",
"B  c #668963",
"V  c #6B8B65",
"C  c #668A6A",
"Z  c #6D8D69",
"A  c #758364",
"S  c #7A8065",
"D  c #728967",
"F  c #7C866A",
"G  c #728D69",
"H  c #7C8D6F",
"J  c #6F906A",
"K  c #74916D",
"L  c #6D8F71",
"P  c #7F8E73",
"I  c #6F9172",
"U  c #759372",
"Y  c #7A9574",
"T  c #7D9977",
"R  c #769679",
"E  c #799779",
"W  c #7C997A",
"Q  c #77987C",
"!  c #858D73",
"~  c #9C877A",
"^  c #829C7D",
"/  c #849579",
"(  c #91977F",
")  c #A5867E",
"_  c #84A07F",
"`  c #7D9C81",
"'  c #839E82",
"]  c #8B9C80",
"[  c #979783",
"{  c #AA8C85",
"}  c #A39D8E",
"|  c #AC978D",
" . c #AF9D93",
".. c #AE9790",
"X. c #B49B95",
"o. c #B89F99",
"O. c #85A184",
"+. c #8AA385",
"@. c #8CA58B",
"#. c #8FA88D",
"$. c #86A289",
"%. c #91A58B",
"&. c #92A98D",
"*. c #9AA68F",
"=. c #8EA991",
"-. c #94AC93",
";. c #99AC94",
":. c #98AD99",
">. c #9BB096",
",. c #9CB29B",
"<. c #97B197",
"1. c #A3A191",
"2. c #B7A39C",
"3. c #A2B59D",
"4. c #AAB29F",
"5. c #9EB5A1",
"6. c #BBA9A3",
"7. c #A2B6A1",
"8. c #A5B9A3",
"9. c #AABBA6",
"0. c #A6BBA9",
"q. c #ABBEAB",
"w. c #A8B7A5",
"e. c #B0BEAD",
"r. c #B9B3A8",
"t. c #B5BEB1",
"y. c #C4ACA9",
"u. c #C5B1AC",
"i. c #C8B2AE",
"p. c #CAB7B3",
"a. c #CEBCB9",
"s. c #C8BAB4",
"d. c #AEC1AE",
"f. c #B2C1AE",
"g. c #AEC1B0",
"h. c #B4C5B4",
"j. c #B9C7B6",
"k. c #BAC8B6",
"l. c #BAC7BB",
"z. c #BCCABB",
"x. c #B6C8B8",
"c. c #C6C6BA",
"v. c #C2CDBE",
"b. c #C8C7BE",
"n. c #C2CEC2",
"m. c #D5C5C3",
"M. c #D7CAC8",
"N. c #D8CCC8",
"B. c #C5D2C4",
"V. c #C9D4C6",
"C. c #CCD6CA",
"Z. c #CED9CD",
"A. c #D7D2CD",
"S. c #D1DACE",
"D. c #DAD1CE",
"F. c #CFDCD0",
"G. c #D4DDD4",
"H. c #D8DED6",
"J. c #D6DFD9",
"K. c #DADDD9",
"L. c #D9D7D1",
"P. c #E0CECD",
"I. c #E5DBDA",
"U. c #E9DDDD",
"Y. c #E4D5D5",
"T. c #D8E0D6",
"R. c #D6E1D9",
"E. c #DCE3DC",
"W. c #DAE5DB",
"Q. c #E1E4DE",
"!. c #E1DFE1",
"~. c #DFE4E0",
"^. c #DFE9E0",
"/. c #E3E5E2",
"(. c #EBE5E4",
"). c #E4EAE4",
"_. c #EAEBE7",
"`. c #E9E7E9",
"'. c #E6EEE8",
"]. c #EBECEA",
"[. c #F1ECED",
"{. c #EDF1ED",
"}. c #E7F1EA",
"|. c #F0F3EF",
" X c #F5EFF1",
".X c #EFF4F0",
"XX c #F5F7F5",
"oX c #F4F4F3",
"OX c #F9F5F5",
"+X c #F6F8F6",
"@X c #F9F9F7",
"#X c #F7F7F8",
"$X c #F9F7F9",
"%X c #F7F9F8",
"&X c white",
"*X c #FEFEFE",
"=X c #FDFDFD",
"-X c #FEFEFE",
/* pixels */
"&X9.G.&XT.E.&Xd.z.&X|.&X&X,.@X|.).@X,.&X&X&X&X].T.&X=X&X{.,.@X].&XB.j.&X&X&X&XB.XX+XXX&Xj.v.&XG.].&X",
"&Xb 7.&X&.q.&Xq.z.&X+.G.).= E.V.9.Z.< ).7.{.&X9.^ &X&X&Xn.M h.9.&XE U &Xf.oX&Xq C.f.).&XB ' &Xb :.&X",
"B.2 U G.b K '.&X&XR.% R C.P B.&.U G.b.C.< S.&X6 O k.&X' Z.(.T Z S.V N V.& ,.=Xt.z.n T.oXG %.V.6 U oX",
".Xm.(.O.o & f.&X&X9.q U XX&Xv.n n h.&X:.$ -.z.q w -.'.4 j.G.% % O.(.(.8.6 W =X&X9.n +.%X=X&X,.< r E.",
"&X&XF.6 7 : m G.@XM & % z.].r % : n f.j.[ h.#.q q @.XXI._.` % : 1 Z.&XU : q _.E.r q w @.{./.q w < R ",
"&X&Xq.B U G +.].B.B A i W S.: # # 5 C.&X=XXX9 & & $ G.&XG.M Z G Z B.z.3 n * O.G.5 # % b z./.G.| s.F.",
"&X{.Y q 3 q q 8._.+XX.D..XC % q < o C @X&X@.8 V V 6 M oXV.V b r M B.E.Z.~ c.W.0.$ & % @ 9.&X&X_.OX=X",
"&X=XC O & & @ 6 ).&X@X@X,.q V K n Y U ,.&XG.^. .x E.n.oXO.$ % % $ C =X&X(.=Xq.< w V b 6 5 z.&X&Xh.E.",
"&Xx.5 q n M 5 & Q XX@X&Xj.Z K Z G Y |.&X&X&X).(.m.&X&XG.9 < q q & : z.&X&XXX-.G K K K G z.].&X{.q B.",
"XX$.B U D S K Z 7 z.&XE.V q B < w w Z C.&XE.6 =Xz.;.%XZ q B V D n 7 5 G.&X).Z B M 5 V B Z _.&X9.& ' ",
"&XE.G.R...> H.G.H.].&Xf.M & : $ $ : * K z.T.;./.C 5 G.z.f.x.~ f z.f.9.E.&X>.6 6 & $ = 6 < U E.C.} f.",
"@X=XK.&Xa.) [._.&X#X&X@X9 @ % : < $ $ 5 z.&X&XE.w w C.&X=X&XX.h &X&X&X&X@XT.< # % = = $ $ e C.&XoX&X",
"&X/.q C.@X=X{.+._.&X&XC % q 6 b M < : $ $ C.&X' * = W {.+.+XoXoX{.h.&X@X&X@.O < < q w % = O L @XXX@X",
"&Xj.; 9.=X$Xz.b z.oXU < Z Z V Z K Z b B 6 < g.8.( ! ,.,.* n.&X&XC.B _.&X@.# M B M Z Z M q q # C ~.@X",
"&XE = U &X{.b & b S.z.U K K Z S u G G Z Z V q.&XI.M.&XO.< 7.&X].Z 4 @.G.$.K Z Z B A a Z B Z n b q.&X",
"G.Z i b Z.B.% = @ q.S.q.G.j.).) - s.W.z.G.9.H.z./.&XG.6 4 6 oXT.$ @ & E.v.^ w.%.q.l > r.8.;.,.+.H.&X",
"@X@Xp.@X'.U w G b W ~.&XXX&X&Xl   i.&XXX@X&X].6 n.&X).V...S.T.R 3 b 5 R T._.K.).oXk - m.&XoXXX).C.&X",
"&X&X&X&X).' Z M B 8.oX&X@.B.&X6.{ I.&XXXXX&X9.% @.&X&X&X$X&XoX^ G K K f.&Xj.O.=X_.x d M.=X].].l.q /.",
"&XXX).].9.3 < % : 5 V.=XZ w.&Xd.%X&X@X&XV.@Xn.1.8.k.&X'.E.&Xk.w 6 < 6 Z /.%.Z G.h.=XOX#X,.].&X:.3 n.",
"@X].XX&X$.$ : 6 % @ ,.&XoX&X).n 8.@X&XE.< z.&X=Xe.T &Xh.;.&X#.@ = & # & B.OX(.-.6 .X&XG.n V.oXq < Z ",
"@XE ).0.< n n K w 6 & q.&X&X@.O 5 H.&Xq.4 :.&X/.K B C.&X@Xz.5 q b B 6 * e J.@XZ 6 C.oX^ w U Z.j.} z.",
").N C.f.^ +.^ u ] ^ Y @.&XE.q 6 : @.XXC & b ).-.< 6 K S.%XO.n K D S G V 6 :.B.5 < ` G.< $ % 9.&XOX&X",
"&XOX=XoX|.=XN.. N.=XoX{.&Xn.V K Z e.n.K A M z.I o # 5 q.&XT.S.G.r.- b.G.C.T.].c.2.W.-.$ < $ e ).&X=X",
"&X&X&X&X&X&X[.o._.&X&X&X=X%.5 : < C H.@Xi.oX0.& 6 3 % : g.&X&X&Xm.f (.&X&X$XoX[.=XG.M n K n U 0.&X&X",
"&X&X+X&X&X&X{.&X&Xj.q.&X).e % 5 % $ z.&X%X~.W B Y G M ,.0.].&Xf./.XX&X3.G.&XXXXX&X).Y G M Z ^ +X&X&X",
"&X@XW E.&X&X+.S.&X+.^ &XW 6 n G n 6 6 n.`.].' V b V Z T ].&X+Xq q.&X].G ,.&X&X&XoX@.5 6 % 6 < +.|.&X",
"&XG.* q.&XC.n 3.&X(././.7.3.>.g [ ,.%.t.`.q.7 6 = & 6 < K ).z.% E oX@.q b v.&X&X&XU @ % : $ @ Z @X&X",
"&X#.% E |.M 5 b z.@XoX`.).].].f p.].!.K./.t.& $ % & $ # b E.h.F @.C.b @ @ T &X&X-.* q q B 6 < $ -.&X",
"{.O.i Y z.< @ # -.oX/.].V.^ _./.XX9.K.oX_.b * 5 q n < & @ ` &X X&X7.% 5 < : z.F.r n V B D V n b < 9.",
"&X&XP.oXW < r 3 1 n.XX$X:.3 C.XXT.B f.oXI 3 Z B Z K V b n % ` &X'.W n U V Y h.).8.9.8.4., } 8.8.;.B.",
"&X&X&X'.U K K K z.J.oX).M = ,.&X@.$ q G.9.K T K H y ! U K Z ^ oXoX^ V b B B S.&X@X&X&XY.  y.&X{.&X&X",
"&X7.].v.n q q b >.XX=XG.^ F ,.E.e : % -.S.E.G.R.6.X i.{.Q.E.S.@X3.3 3 $ : : V Q.&X@X&X(.2.I.&XU S.&X",
"XXr j.,.$ % $ & 3 f.&X=XoXU.&Xj.n K V ,.&X&X=X=X2.. y.&X].&X&X=X' # % 5 & @ 5 E.&X=X@X@X&X&XB.@ R &X",
"=X/.@X` $ < q < # b n.&X@X&X@X,.w 6 q ^ {.%X&X7.v.U.@XE.+.&XoX:.* b b V b 6 * e E.&X8._.=X&X;.w T {.",
"&X&X=.< V n Z V q 5 % h.&X&X].q # & $ % C.&X{.q =.&X&X9.n Z.].R B G V A A V V 4 z.G.v E.&X{.e & : B.",
"&XoX;.U Y T p p T Y B @.+X&X@.3 w B q * b ].l.: B @XG.7 5 V ).V.v.v.C.d ~ F.z.k._.+.B +.=X9.q N q B ",
"&X&XE.Q.).].s l oX).).z.f.XXW T ^ p / W n q.,.i w G.z.O # $ z.&X&X&XoX> ) &X@X&XZ.q b r %.G.{.) A.^.",
"&X@X&X).C.&Xl { &X&X&X-.T &X].{.{.> i.=X|.|.=XN._.F.e 6 n 5 b G.K.7.OXD.A.].].oXq.% $ % V z.=X_.@X&X",
"&X&X&X3.K +X&X&X@X&X;.b V j.&X&X&Xa.(.&Xz.&X&X@X&XG.U K K G q.@Xw.r XX).Y ).XX&X:.@ & $ : B.&XXXXX@X",
"&X&X].5 @ 8.&X=X&X).6 % : Z G.&XoX}.&XG.b v.=X].).3.w w 5 w B T.].L.@X7.$ j.&Xq.: w M 6 6 $ -.XX&X&X",
"&X&X5.5 6 M '.&X&X].: % $ % h.&Xj.Z &X' + b ].oX).Z $ % $ % & 8.&X&X&XE 4 ,.#Xw.U G K V &.G.q.XXG.E.",
"&X&X&.B V +.{.&X@X@.7 Z w I C x.Q.v.J.b w q z.&Xj.: 3 q r : $ m ].&Xz.< 5 3 ).z.n Z b K n ;.&X&XK @.",
"&X).q & & < z.&X@Xj.Z G G +.].=X&X&Xn.M n V G.R.q b B B G n b ; C {.C.9.~ h.7.V 6 q % 6 6 6 ^ Z.v.n.",
"&X,.& 0 0 # L @XE.U 6 < q 3 K V.oX&X' $ & @ W {.-.&.#.[ y ;.#.@.;.9.B.&XI.&XT.C # % % $ % $ C z.&X&X",
"T.M Z G F Z 6 w.].b # % % $ : +.oXl.5 7 M 3 : h.@X_.%Xu.  U.&X&XoXq 6 {.&X&Xj.$ & : 6 6 $ % @ ,.&X&X",
"+XE.}.X.f {.H.|.q.% < 6 w & $ : C.z.^ &.j %._ &.&XV.<.I.X._.&X&Xn.6 6 g.&Xd.O w n b V V q 5 5 o -.&X",
"&X&X&XI.a.&X&Xh.: n B B K M r 6 : n.&XOXh (.&X@X&X-.< {.&X&X&X&X,.w w j.W.I V Z Z B D D Z M Z r e q.",
"&XV.h.&X&XG.oXz.Y ^ Y Y u / K Y B d.=X].OX=X&X&XoXM < z.&Xz.{.XXq & $ q +Xh.T >.^ -.c , *.+.^ ^ T Z.",
"&X%.U &X].b G.oXT.).{.p.X p.'.).G.oX0.#.&X&X&X&Xz.w t R @Xr j.q.w D N 6 :.).E.{.{.&Xk - Y.=X{.@X).{.",
"@XQ.Q.&X]./ n.&X&X&X&Xp.- a.&X=X&X&X;.' @X@X@X&XoXL.u.oX)./ f.'.). .| ).H.&X9./.&XoXf - m.&X&X&X&X&X"
};
