/* XPM */
static char *result[] = {
/* columns rows colors chars-per-pixel */
"50 50 187 2 ",
"   c #375519",
".  c #38561A",
"X  c #3B591E",
"o  c #355315",
"O  c #3D5D24",
"+  c #3F6028",
"@  c #3D692F",
"#  c #43612A",
"$  c #4A6A36",
"%  c #4E6D39",
"&  c #496631",
"*  c #506E3C",
"=  c #52703E",
"-  c #567545",
";  c #5B7749",
":  c #557C4D",
">  c #5C7A4D",
",  c #5C7E52",
"<  c #6E6C46",
"1  c #7B6645",
"2  c #736E4A",
"3  c #756844",
"4  c #6C744D",
"5  c #627E54",
"6  c #6A7A53",
"7  c #6E7F59",
"8  c #7D7452",
"9  c #757C58",
"0  c #805E3F",
"q  c #8A5F44",
"w  c #AA5D4B",
"e  c #B95349",
"r  c #B55F52",
"t  c #BD5E54",
"y  c #856447",
"u  c #89694C",
"i  c #9B654E",
"p  c #92664B",
"a  c #856F51",
"s  c #956D53",
"d  c #8C7255",
"f  c #937055",
"g  c #AB604F",
"h  c #AD6051",
"j  c #A46B57",
"k  c #B36455",
"l  c #B96B5C",
"z  c #B86558",
"x  c #C6534E",
"c  c #D3504F",
"v  c #CC5D58",
"b  c #C55A54",
"n  c #DB5B5B",
"m  c #D55D5B",
"M  c #E75C5E",
"N  c #C46359",
"B  c #CD635D",
"V  c #C4655A",
"C  c #D4625D",
"Z  c #ED5D61",
"A  c #F85F67",
"S  c #F05D62",
"D  c #CC6862",
"F  c #DC6462",
"G  c #D46B66",
"H  c #DF726F",
"J  c #E36364",
"K  c #EF6266",
"L  c #E76768",
"P  c #EE666A",
"I  c #E46969",
"U  c #EE696D",
"Y  c #F5656C",
"T  c #F8656C",
"R  c #F1696E",
"E  c #F06165",
"W  c #EE6D70",
"Q  c #F46C71",
"!  c #FA6970",
"~  c #EB7374",
"^  c #EE767A",
"/  c #F27275",
"(  c #F27779",
")  c #FB7278",
"_  c #F27A7D",
"`  c #FC797F",
"'  c #5E8256",
"]  c #5F885C",
"[  c #628056",
"{  c #65845B",
"}  c #6A855E",
"|  c #64885E",
" . c #71815B",
".. c #678760",
"X. c #658B62",
"o. c #6C8B64",
"O. c #6F8E68",
"+. c #718E6A",
"@. c #768C67",
"#. c #679169",
"$. c #6C926B",
"%. c #73916D",
"&. c #78926E",
"*. c #6C9670",
"=. c #769371",
"-. c #7B9573",
";. c #7F9678",
":. c #7F9878",
">. c #779974",
",. c #849B7C",
"<. c #889F7F",
"1. c #809675",
"2. c #8BA07F",
"3. c #F37F80",
"4. c #8A9E83",
"5. c #879C80",
"6. c #8BA183",
"7. c #91A587",
"8. c #94A58B",
"9. c #96A98C",
"0. c #98AB8E",
"q. c #9CAE93",
"w. c #9FB096",
"e. c #9FB298",
"r. c #AFA490",
"t. c #A0B097",
"y. c #A4B49B",
"u. c #AEBAA6",
"i. c #AEBEAB",
"p. c #B2BFAA",
"a. c #B9BBA9",
"s. c #CA8B83",
"d. c #DF8483",
"f. c #DD9894",
"g. c #F48385",
"h. c #F58789",
"j. c #F58C8D",
"k. c #F98D92",
"l. c #F59294",
"z. c #E48988",
"x. c #FB9CA2",
"c. c #E6AEAA",
"v. c #F7A7AA",
"b. c #F4A4A5",
"n. c #EEAFB1",
"m. c #EEB4B5",
"M. c #FBB5B8",
"N. c #B7C3AF",
"B. c #BAC4B2",
"V. c #BECAB7",
"C. c #C2CCBA",
"Z. c #D3C8BC",
"A. c #C7D0C0",
"S. c #CED4C9",
"D. c #D2D9CC",
"F. c #D6DDD2",
"G. c #DFDFDF",
"H. c #D9DFD4",
"J. c #E7CFCF",
"K. c #EFCECF",
"L. c #F3C9CB",
"P. c #EDD5D5",
"I. c #E4DFDF",
"U. c #F8D8D8",
"Y. c #F0D8D9",
"T. c #DFE4DA",
"R. c #DCE1D7",
"E. c #E1E5DC",
"W. c #DEEAE0",
"Q. c #E5E5E4",
"!. c #E7E9E5",
"~. c #E9EBE5",
"^. c #EDEDED",
"/. c #EDE5E5",
"(. c #F8E6E6",
"). c #EEF0EC",
"_. c #F0F2EE",
"`. c #F1EFF1",
"'. c #EDF3F2",
"]. c #EDF8F7",
"[. c #F4F4F4",
"{. c #FAF5F6",
"}. c #F7F8F7",
"|. c #F9F7F8",
" X c #F4FBFB",
".X c #FDFDFD",
"XX c #F7F8F9",
/* pixels */
".X.X.X.X.X.X.X.X.X.X.X.X.X.X.X.X.X.X.X.X.X.X.X.X.X.X.X.X.X.X.X.X.X.X.X.X.X.X.X.X.X.X.X.X.X}.|.|.XX.X",
".X.X.X.X.X.X.X.X.X.X.X.X.X.X.X.X.X.X.X.X.X.X.X.X.X.X.X.X.X.X.X.X.X.X.X.X.X.X.X.X.X.X.X.X[.|.|.}.}..X",
".X.X.X.X.X.X.X.X.X.X.X.X.X.X.X.X.X.X.X.X.X.X.X.X.X.X.X.X.X.X.X.X.X.X.X.X.X.X.X.X.X.X.X.X[.XX.X|..X.X",
".X.X.X.X.X.X.X.X.X.X.X.X.X.X.X.X.X.X.X.X.X.X.X.X.X.X.X.X.X.X.X.X.X[.}..X.X.X.X.X.X.X.X.X|..X.X.X.X[.",
".X.X.X.X.X.X.X.X.X.X.X.X.X.X.X}..X}..X.X.X.X.X.X.X.X.X.X.X.X.X.X.X.X.X}.!.^.}.[..X[.^.}..X}.}.|.}.[.",
".X.X.X.X.X.X.X.X.X.X.X|..X}..X.X.X.X.X.X.X.X.X.X.X.X.X.X.X.X.X.X.X.X.X.X`.[..X.X.X}.[.[.[.[.}..X|..X",
".X.X.X.X.X.X.X.X}.|.^.`..X.X.X}.}..X.X.X.X.X.X.X.X.X.X.X.X.X.X.X.X.X.X.X.X.X.X.X.X.X.X.X.X.X}.[.[.'.",
".X.X.X.X.X.X.X.X[.}..X}..X.X|..X.X.X.X.X.X.X.X.X.X.X.X.X.X.X.X.X.X.X.X.X.X.X.X.X.X.X.X.X.X|.}.|.[.^.",
".X.X.X.X.X.X.X.X.X.X}.}..XXX.X.XC.7.6.V..X.X.X.X.X.X.X.X.X.X|..X.X.X.X.X.X.X.X.X.XXX|..X.X.X.X.X.X}.",
".X.X.X.X.X|..X}..X.X|..X.X.XE.,.o.-.:.} 6.}..X.X.X.X|.|..X.XXX.X.X.X.X.XF.D.}..X|..X.X|..X.X.X.X|..X",
".X}.}.^.^.[.[.[.|..X.X.X.XC.{ o.&.=.:.8.O.,..X.X.X}.^.[..X.X.X.X|..XH.-.{ { &.V..X.X}.[.}..X.X.X.X.X",
".X}.^.^.}..X`.^.|.}..X.XD.{ &.+.O.O.O.+.,.{ 0..X.X}.[..X}..X.X}..XD.{ o.&.%.o., q..X|.}.[.[.}..X[..X",
"}.[.}.[.`.[.}.'.[..X|.|.6.: [ %.O.+.+.O.O.+.{ B..X_..X.X.X.X}..XT.{ +.+.O.+.,.,.{ y..X[.[.[.|.|.^..X",
"}.|..X.X}.[..X|.XX^.[.}.&.  . - +.+.+.O.+.+.+...E.[.[..X.X.X.X_.O.O.+.+.=.4.1.:.-.} !.|.`.}..X'.^.|.",
".X.X.X|..X.X|.|.|.[..X.Xq.+ X . = %.+.O.+.O.+.X.1.[..X{..X.X.X,...+.+.O.=.+.O.- % { D..X[.`.|.`.[..X",
".X|..X}.[.[.[.[.}..X.X[.Q.&.O X   % +.%.O.+.=.%...r.d.D f.(.q.{ =.+.+.O.+.+.* . . { Q.|.}.[.`.[.[..X",
".X.X.X|..X.X.X|.}..X}.[..X).6.$ O o O { &.$.+.&.%.4 x m c p X.=.+.O.O.+.+.$ . X + u.[.[.[.[.^.~.|..X",
".X.X.X.X^.`.}.}.[.}.[.}.[..X.XF.w.-.; & ; o.o.+.%.o.y w s o.=.=.%.&.=...#   . O 9.`.[.|..X`.!.^.[..X",
".X}.^.Q.Q.^..X.X}.|..X.X.X[.F.C.y.,.&.} [ { [ { { 5 o.] : o.{ [ 5 > $ O O @ ' p.{.|..X}.'.[.}..X|.|.",
"|.[.`.}.}..X.X.X.X.X}.C.9.&.{ { { o.O.+.%.+.&.%.{ } &.=.> { o.} { > * % 3 l m.[. X.X|.`.[.|..X.X.X.X",
".XXX[..X.X.X.X.XE.t.&.{ { O.%.%.%.%.%.&.%.&.%.O.' ' #.| > +.-.-.+.%.=.O.} d N U x.K.'.'.'..X.X.X.X.X",
".X.X}..X|..X[.7.{ { O.%.+.+.+.O.+.+.%.%.o.{ ' ' 4 i f 1 ; ' 5 o.>.&.O.+.%.#.] 8 b T l.(.|..X.X.X.X.X",
".X.X.X.X.X.X<.' %.%.O.O.+.+.O.+.+.O.} 5 { | 4 k L ! T T z 2 | 5 5 +.-.+.+.+.+.$.| s Z M..X.X.X.X.X.X",
".X.X.X.X.XR.{ &.+.+.O.o.+.+.+.%.o.5 { O.{ u C ! U U U U ! m y X.o.> { &.+.O.+.+.,.*.3 c..X.X.X.X.X.X",
".X.X.X.X.XN.{ %.+.o.%.:.:.=.o.5 [ O.%.5 w Y R U U U U U U R J q o.+.{ 5 +.+.O.O.=.8.=.+.}..X.X.X.X.X",
".X.X.X.X.Xy.{ %.+.,.4.-.#.6 5 o.%.%.7 t Y U U U U U U R U U R M 2 O.+...> O.%.+.o.&.8.{ B..X.X.X.X.X",
".X.X.X.X.Xq.{ =.4.5.o.{ u w } =.+.X.i ! _ U P U U R U U P P W ` j X.+.+.O.; o.+.+.o.,.o.t..X.X.X.X.X",
".X.X.X.X.Xq.o.6.+.| @.h n k { +.+.X.k R ~ h.g.R P U P P _ h.g.) z ..+.O.%.6 1 } +.+.+.o.9..X.X.X.X.X",
".X.X.X.X.X7.&.{ ..i.J.v b g o.+.%.{ z ! U U / j.g./ h.l.h./ P T N { +.+.=.7 e y X.&.O...9..X.X.X.X.X",
".X.X.X.X.Xq.: w.^.|.P.v v w o.+.+.{ t Q U U U P _ x.j.U P P U Q B { %.+.O.9 D x 1 #.%...t..X.X.X.X.X",
".X.X.X.X.X~.D..X|.'.Y.v F V | +.%.{ b Q U U U U K g.U U U U U R B { +.O.$.7 C b e 2 $.{ N..X.X.X.X.X",
".X.X.X.X.X.X.X.X.X}..Xz.S G o.+.+.} r Q U R U R U _ R R U U U ! D ..+.O.=.7 F I e s.>.> F..X.X.X.X.X",
".X.X.X.X.X|.}..X.X.X.X{.k.n } +.%.} w F L R U U U _ U R U U R / N { &.O.+.9 L Q c L.W.9.}..X.X.X.X.X",
".X.X.X.X.X.X.X.X.X.X}..X.Xv.a $.+.X.h P C F U U U ( R R ~ ~ H I k | +.O.$.9 S Q M.|..X.X.X.X.X.X.X.X",
".X.X.X.X.X.X.X}..X.X}.|..X.Xa.' -.X.i T U F F F U W L F F F J ! l X.&.O.#.s k.P. X.X.XXX.X.X.X.X.X.X",
".X.X.X.X}..X.X`.`..X}.|..X.X.Xe.5 *.a K U R U F C C F I U R U ! j X.O.&.5 Z..X].}.|.[.^.[..X.X.X.X.X",
".X.X.X.X.X.X.X.X.X.X[.}..X.X.X.Xa.{ 6 F Q U U U U P U R U U U Y a $.o.5 u..X[.}.[.^.^.'.}..X.X.X.X.X",
".X.X.X.X.X.X.X.X.X.X.X.X.X.X.X.X.XD.#.k A U W U R ~ R U R U Q J 6 | 1.A.[.^.`.`.Q.[.[.[.}..X}.}.}..X",
".X.X.X.X}..X.X.X.X.X.X}..XXX}..X.X.X.X!.v.K P W U 3.U U U P T z +.B.[..XI.^.[.^.^.}.`.|.|..X[.[..X.X",
".X.X.X.X.X.X.X.X.X.X.X}.}..X|..X.X}..X.X.XK.^ Z U g.R U K ~ n.^.}..X[._.^.[.[.^.[.[.[.|..X|.}.|..X.X",
".X.X.X.X.X.X.X.X.X.X.X.X.X.X.X.XXX.X}..X.X X[.b.K _ K ~ m.I. X.XXX[..X|.}.`.^.[.}..X.X.X.X^.^..X.X.X",
".X.X.X.X.X.X.X.X.X.X.X.X.X.X.X.X.X.X}..X|..X.X.XU.v.m./.].[.}..X}.[.[.[..X.X}..X.X.X.X.X.X`..X.X.X.X",
".X.X.X.X.X.X}..X}..X.X.X.X.X.X.X|..X.X.X.X.X.X.X.X]. X|.[..X.X.X.X.X|.[.}..X.X.X.X.X.X.X.X^.}..X.X.X",
".X}..X|.[.}.}.XX^..X.X}..X.X.X.X|.}.|.|.|..X.X.X.X'.`.}.|..X.X.X.X.X.X.X}..X.X.X.X.X.X.X|.[..X.X.X.X",
".X.X.X.X|..X|..X.X.X.X^.^.^.[.}..X`..X}.[..X.X.X.X^.`..X.X.X.X.X.X.X.X.X.X.X.X.X}..X.X.X.X.X.X.X.X.X",
".X.X.X.X.X.X.XXX[.[.[.}.[.}.|.|.}..X.X}..X.X.X.X.X[..X.X.X.X.X.X.X.X.X.X.X.X.X.X.X.X.X.X.X.X.X.X.X.X",
".X.X.X.X.X}.|.|.}.`.^.`..X.X[.XX}..X.X.X.X.X.X.X.X.X.X.X.X.X.X.X.X.X.X.X.X.X.X.X.X.X.X.X.X.X.X.X.X.X",
".X.X.X.X[.}.}.|.}..X.X}..X.X^..X.X.X.X.X.X.X.X.X.X.X.X.X.X.X.X.X.X.X.X.X.X.X.X.X.X|..X.X.X.X.X.X.X.X",
".X.X.X}.`..X.X.X.X.X.X.X.X[.[.|..X|..X.X.X.X.X.X.X.X.X.X.X.X.X.X.X.X.X.X.X.X.X.X.X.X.X.X.X.X.X.X.X.X",
"}.[..X.X.X.X.X.X.X|.}..X[.}.|..X.X.X.X.X.X.X.X.X.X.X.X.X.X.X.X.X.X.X.X.X.X.X.X.X.X.X.X.X.X.X.X.X.X.X"
};
