/* XPM */
static char *b97538187dc84302a46b1e453c9d46c8fSfF5iaiULGNI4cZ[] = {
/* columns rows colors chars-per-pixel */
"50 50 202 2 ",
"   c #070509",
".  c #120A17",
"X  c #191B18",
"o  c #10090A",
"O  c #1C2815",
"+  c #1E3016",
"@  c #21291D",
"#  c #233319",
"$  c #1E1A21",
"%  c #262925",
"&  c #2C3B23",
"*  c #39353B",
"=  c #343633",
"-  c #52000E",
";  c #7E0B1D",
":  c #5F1C2B",
">  c #6B1827",
",  c #771525",
"<  c #74313E",
"1  c #6D2A38",
"2  c #522E39",
"3  c #2A421C",
"4  c #344A28",
"5  c #3A542D",
"6  c #3E4C37",
"7  c #3F5932",
"8  c #2F4226",
"9  c #3C6428",
"0  c #445C36",
"q  c #41682D",
"w  c #4A693A",
"e  c #466635",
"r  c #4E7838",
"t  c #537B3E",
"y  c #51743E",
"u  c #3B3440",
"i  c #4C3B45",
"p  c #6B3A45",
"a  c #7A3644",
"s  c #474548",
"d  c #515B4C",
"f  c #5A5A5B",
"g  c #4E5949",
"h  c #73444F",
"j  c #764D58",
"k  c #71515B",
"l  c #54664A",
"z  c #5A6456",
"x  c #5A754D",
"c  c #657B59",
"v  c #637858",
"b  c #5C5861",
"n  c #695C66",
"m  c #6B676D",
"M  c #6F6A71",
"N  c #726D75",
"B  c #746C77",
"V  c #767279",
"C  c #7A757C",
"Z  c #7C7A7D",
"A  c #757674",
"S  c #71736C",
"D  c #86081B",
"F  c #9B081C",
"G  c #A50A1F",
"H  c #B20014",
"J  c #8B1628",
"K  c #951124",
"L  c #930E21",
"P  c #A80D21",
"I  c #B50B21",
"U  c #A7162A",
"Y  c #B7172C",
"T  c #832131",
"R  c #C80D25",
"E  c #CD1229",
"W  c #D31129",
"Q  c #DD152D",
"!  c #D81C33",
"~  c #E51A32",
"^  c #EB1C34",
"/  c #F11E37",
"(  c #E1122A",
")  c #DF2037",
"_  c #DF2138",
"`  c #E12037",
"'  c #E42138",
"]  c #EC253C",
"[  c #F3243C",
"{  c #FA253D",
"}  c #823946",
"|  c #F62940",
" . c #EE2940",
".. c #876E76",
"X. c #53813C",
"o. c #578D3B",
"O. c #59913C",
"+. c #5A8445",
"@. c #5F9245",
"#. c #659A49",
"$. c #6A835D",
"%. c #6CA94C",
"&. c #70A554",
"*. c #79B559",
"=. c #7DBC5C",
"-. c #78B757",
";. c #6DA151",
":. c #6E8861",
">. c #6D8760",
",. c #738E64",
"<. c #7E9C6E",
"1. c #799769",
"2. c #7B8675",
"3. c #7FC25B",
"4. c #80BF5F",
"5. c #809D70",
"6. c #85B76A",
"7. c #8AAC77",
"8. c #92BA7D",
"9. c #81C25F",
"0. c #86CA63",
"q. c #8DCD6B",
"w. c #88CB64",
"e. c #92D26F",
"r. c #99D579",
"t. c #8DCC6C",
"y. c #7E7A81",
"u. c #837E84",
"i. c #897C86",
"p. c #8A868C",
"a. c #8D8A8F",
"s. c #858387",
"d. c #8E8B91",
"f. c #918D93",
"g. c #998E94",
"h. c #96959A",
"j. c #9A969B",
"k. c #9C9A9E",
"l. c #959296",
"z. c #A09A9F",
"x. c #97BE83",
"c. c #9E9DA1",
"v. c #A19EA3",
"b. c #AAA6AC",
"n. c #A7A7AA",
"m. c #ACA9B1",
"M. c #B2ADB5",
"N. c #B5B2B6",
"B. c #B7B8BC",
"V. c #9BC386",
"C. c #9FC988",
"Z. c #A2CC8B",
"A. c #A5D98A",
"S. c #AEDC95",
"D. c #AED09C",
"F. c #A7E486",
"G. c #B4E699",
"H. c #B8F597",
"J. c #ADE590",
"K. c #BEF3A3",
"L. c #C0F6A4",
"P. c #C3F9A5",
"I. c #C6FDA9",
"U. c #CBFFAD",
"Y. c #CFFFB0",
"T. c #D2FFB2",
"R. c #D8FFB8",
"E. c #BABEC1",
"W. c #AFBEC0",
"Q. c #C3BEC6",
"!. c #BAC7C9",
"~. c #C4C2C6",
"^. c #CCCBCD",
"/. c #C5C7CB",
"(. c #CFCED0",
"). c #C9CBD1",
"_. c #D1CED3",
"`. c #D5CED8",
"'. c #C8D5D5",
"]. c #D5D3D5",
"[. c #DDDBDD",
"{. c #D3DFDF",
"}. c #DFDCE1",
"|. c #E1DDE3",
" X c #DDE6E7",
".X c #E4E4E5",
"XX c #EDEDED",
"oX c #E6E7E8",
"OX c #EFEDF0",
"+X c #EBF6F5",
"@X c #F4F4F4",
"#X c #F3FEFD",
"$X c gray99",
"%X c #FDFDFD",
"&X c #FDFCFD",
"*X c #FEFEFE",
"=X c white",
"-X c #FFFEFE",
";X c #FEFEFE",
":X c #FDFDFD",
">X c #F9F7F9",
",X c #F0EFF0",
/* pixels */
"*X*X*X*X*X*X*X*X*X*X*X*X*X*X*X*X*X*X*X*X*X*X>X*X*X*X*X*X*X*X*X>X*X*X*X*X*X*X*X*X*X*X*X*X>X>X>X*X>X*X",
"*X*X*X*X*X*X*X*X*X*X*X*X*X*X*X*X*X*X*X*X*X*X*X*X'.j...j N.*X>X*X*X*X*X*X*X*X*X*X*X*X*X*X@X>X>X>X@X*X",
"*X*X*X*X*X*X*X*X*X*X*X*X*X*X*X*X*X*X*X>X*X#Xn.h J I W ( >  X*X*X*X>X>X*X*X*X*X*X*X*X*X>XXX>X*X>X>X$X",
"*X*X*X*X*X*X*X*X$X*X*X*X*X*X*X*X>X>X*X*XE.p G Q [ ] '  .E k *X*X>X>X>X>X*X*X*X*X*X*X*X>X>X*X*X*X>X@X",
"*X*X*X*X*X*X*X>X>X*X*X*X*X>X>X>X@X>X*Xs.D ~ [ ' ` ` ' ` [ P M %X*X$X>X>XXX,X>X@X@X@X@X@X>X>X>X$X>X@X",
"*X*X*X*X*X*X*X*X*X*X>X>X*X>X*X>X>X*XV G { ' ) ) ' ' ' ' ` [ I p !.*X*X>X,X@X%X>X>X>X@XXX@X@X@X>X*X*X",
"*X*X*X*X*X*X*X*X>X>X@X@X*X*X*X@X*Xp.F | _ ' ! , [ ` ` ' ' ` ] Q L j B.*X*X$X*X*X*X*X*X*X*X>X@X@X@X@X",
"*X>X*X*X*X*X*X>X@X@X>X>X*X>X>X*X!.D { ` ' ` [ , U { ' ` ` ` ) ' [ Q F h !.*X$X*X*X*X*X*X*X@X>X>X@XXX",
"*X*X>X*X*X*X*X>X>X*X>X>X>X>X*X+X1 ~ ' ' ' ` ' ' , J ! ^ [ [ [ [ ] ] [ Q ; d.*X>X$X>X*X*X>X*X*X*X>X>X",
">X*X*X*X*X>X*X@X*X*X*X*X*X>X*Xu.I [ ` ' ' ' ` ' { K 2 } J J K P R ^ ] ] { D k.*X>X*X>X>X>X*X*X*X>X>X",
"*X>X@XXXXX@X@X@X*X*X*X*X>X*X'., [ ` ' ' ' ` ] Y U W h.#X{.'.!.n...< G ] ' / ,  X*X*X@X@X@X$X*X*X>X*X",
"*X@XXXXX>X>X@XXX@X@X>X*X>X*Xk W ] ` ' ' ' ' ' ` J - z.*X*X*X*X*X*X#Xh., ~ | P m.*X@X>X@X@X@X@X>X@X*X",
">X@X@X@X@X@X@X@X@X>X>X@X*Xn.F [ ` ' ' ' ' ' ` ' [ F j.*X>X*X>X>X>X*X*X!.> / P n.*XXX@X@X@X@X>X>X@X*X",
"@X>X*X*X@X@X>X*X>X@X@X$X#Xp ~ ' ' ' ' ' ' ' ' ` ] R i.*X>X*X*X*X*X>X@X*X!.T K '.$XXX@X>X@X@X>X@XXX>X",
"*X*X*X*X*X*X>X>X>X@X@X*Xn.P | ) ' ' ' ' ' ' ' ' ' Q j *X*X*X>X*X*X*X*X@X*Xc.o h.[.@X@X@X@X@X@X@X@X*X",
"*X>X>X>X@X@X@X>X>X@X*X*Xp H ~ ] ` ' ' ' ' ' ' ' ` [ J '.*X@X*X*XoX~.*X*XoXC  Xf.V f.@X@X>X@XXX@X@X*X",
"*X*X>X*X>X*X*X].C C m.p.C g.p Y ] ` ` ` ` ` ' ' ` ] E n *X*XN.V p.N ~.*X@XN |.*X].Z @X@X@X@XXXXX>X*X",
"*X*X*X>X@X].C V [.*Xs.^.*X*X#Xk W ^ ' ] [ [ ' ' [ ~ { P b u.m >X*Xs.~.>X*Xu._.*Xn.l.*X@X>X@XXXXX@X>X",
"*X@XXXXXXXV [.*X*X*X*X*X>X>X*XoX: < Y R K K ~ ^ L a J > /.[.[.*X*X~.j.*X*Xb.N C C /.*X@X@X@X@X>X*X>X",
">X@X@X*X].f.*X>X*X*X*X*X*X*X*X*X X+Xi ..).W.1 > !.%X).B.*X*X*X*XXXp.M.$X@X*X[.oX.X*X>X@X@X>X>X*X*X*X",
"*X>X@X*X.Xy.*X*X*X*X*X*X*X*X*X*X*X*X,X*X*X*X/./.*X*X*X*X>X*X*X.XV N.XXoXXXXX@X>X*XXXXXXX@X>X*X*X*X*X",
"*X>X@X>X*Xv.d.*X>X*X*X*X*X>X*X*X>X>X*X*X*X>X*X*X*X*X*X*X*Xb m * A .XoXXX@X>X>X>X>X@X@X@X@X*X*X*X*X*X",
"*X>X>X*X*X*XC *X*X*X*X*X*Xm C *X*X*X*X}.XX*X*X*XOX*Xa.m y.o q -.9 $ oX*X*X*X*X*X@X*X*X*X*X*X*X*X*X*X",
"*X*X*X*X*X*Xy.(.l.Q.p./.Q.  o * u.j.V . * oX&XM.6 s 4 +   #.q.#.x O N.*X@X@XXXXX@X*X*X*X*X*X*X*X*X*X",
"*X*X*X*X*X*X.Xa.b.j.b.i @ O @ 4 3 3 3 5 & X g X.4 4 3 f A %.4.5 M k.n.*X>X>X@X@X>X*X*X*X*X*X*X*X*X*X",
"*X*X*X*X*X*X*X*X*X*XS @.*.9.t X 4 0 w w y 4 7 =.& # s *XS %.*.=.r c.*X@X*X*X*X>X*X*X*X*X*X*X*X*X*X*X",
"*X*X*X*X*X*X*X@X*XA 9 4 #.=.0.5 . % @ O + 4 4 #.X l oXQ.q F.I.r.3.0 }.>X>X*X*X*X*X*X*X*X*X*X*X*X*X*X",
"*X*X*X*X*X*X*X*XoXs $ +.9.*.=.%.m D.1.M.j.f O 7 * <.f w 0.C.v x.e.r M.*X>X*X*X*X>X*X>X*X*X*X*X*X*X*X",
"*X*X*X*X*X*X>X@X>Xb.y 0.*.-.*.=.t n ~.*X*Xj.8 X 6 w #.3.6.x l G.F.o.l.*X>X*X*X*X*X*X*X*X*X*X*X*X*X*X",
"*X*X*X*X*X*X>X@X*Xs.q +.=.r.I.H.A.&.l l 0 X.5 @ & 7 q.J.V.P.1.S.H.O.a.*X>X*X*X*X*X*X*X*X*X*X*X*X*X*X",
"*X*X*X*X*X*X*X*X*X2.+ y 0.G.5.z c 1.F.r.e.r.v l % :.Y.P.I.T.<.x.H.X.v.*X>X*X*X*X*X*X*X*X*X*X*X*X*X*X",
"*X*X*X*X*X*X*X>X*XZ % x 3.A.G.:.Z.S.K.U.P.I.Y.Y.Z.,.U.L.K.U.<.V.H.e /.*X>X*X*X*X*X*X*X>X*X*X*X*X*X*X",
"*X*X*X*X*X>X@X>X*X^.~.A #.r.R.C.,.R.K.P.P.P.L.K.T.$.S.I.L.U.>.S.e.d >X*X*X*X*X*X*X*X>X>X>X*X*X*X*X*X",
"*X*X*X*X*X>X>X*X*X*X*X`.w 9.G.T.v V.T.K.P.P.P.L.U.7.7.Y.P.H.v P.r j.*X@X>X*X*X@X@X$X>X*X*X*X*X*X*X*X",
"*X*X>X*X*X*X*X>X*X@X$X^.u q q.I.L.l x.T.I.L.L.P.I.S.:.I.Y.<.7.q.g >X*X>X>X>X>XXX>X*X>X*X*X*X*X*X*X*X",
"*X*X>X>X>X*X*X@X@X*X*Xm oXv.7 *.U.P.c $.S.U.U.P.L.K.v U.G.v F.5 ^.*X>X>X@X>X>X@X>X>X@XXX@X*X*X*X>X*X",
"*X*X*X>X>X*X*X>X*X[.N k.*X*X`.z t H.R.V.c $.8.K.U.R.,.A.v t.w B.*X@X>X>X@X>X@X>X@XXXXX@X@X*X*X*X*X>X",
"*X*X*X*X>X*X>X>X*XZ XX*X*X*X*X*Xb.0 6.I.U.S.<.c ,.8.l l 6.0 n k.p.>X>X,XXXXX,X,XXX@X@X@X@X*X>X@X>X*X",
"*X*X*X*X>X*X*X*X@XC oX[.XX*X*X$X*X|.d r q.r.H.J.8.1.6.;.# * v.oXf.M [.>X[.XX@XXXXX@X@X>X>X*X@X@X>X*X",
"*X*X*X*X*X*X*X*X*X(.u.f.p.N XX*X@X*X*XB X.9.&.-.=.w.y f b.$X*X*X@X~.y.^.@X@X@XXX@X@X@X>X>X>X@X>X>X*X",
"*X*X*X*X*X*X*X*X*X*X*X*X*X_.C M d.*X$X*Xf O.w.=.=.#.Z *X*X*X&X*X*X*Xl.N.*XXX@X@X@X*X*X*X>XXXXX*X>X>X",
"*X*X*X*X*X*X*X*X*X>X*X*X>X*X*X^.p.*X*X*XoXf X.%.w.t B j.y..X*X>X*X~.C *X@X>X@X>X*X*X*X*X*X@X>X*X*X*X",
"*X>X*X*X*X$X>X>X@X*X*X*X*X*X*X*Xs.h.B.*X*X*X_.z 4 & f.Q.*X*X>X*X@XV (.*X@X*X>X*X*X*X*X*X>XXX@X*X*X*X",
">X@X>X>X@X@X@X>XXX*X>X@X*X*X*X*X@XB.N v.@X*X*X/.i.[.n.^.*X*X*X.Xm ~.*X>X>X*X*X*X*X*X*X>X>X@X>X*X*X*X",
"*X*X*X>X>X*X>X$X*X*X*XXXXXXX@X@X*X*X*XZ N.*X*X^.^.*X*X*X*X*Xp.C [.*X>X*X*X*X*X*X>X>X*X>X*X>X*X*X*X*X",
"*X*X*X*X*X*X>X>X@X@X@X@X@X>X>X>X>X@X*XN.M.*X*X*X*X*X>X*X*Xd.m.*X*X>X*X*X*X*X>X*X*X*X>X*X*X*X*X*X*X*X",
">X>X*X*X*X@X>X>X@X@XXX@X*X*X@X>X@X>X*XXXV n.p.*X*X>X*XE.C k.*X*X*X*X*X*X*X*X*X*X*X>X*X*X*X>X*X*X*X*X",
"*X*X*X*X@X@X@X>X@X*X>X@X*X>XXX*X*X*X*X*X@Xv.b [.*X*X].N @X*X*X*X*X*X*X*X*X*X*X*X*X>X*X*X*X*X*X*X*X*X",
"*X*X*X>X@X*X*X>X>X*X*X*X*X@X@X*X>X*X*X*X*X*Xk.N a.n.V ,X*X>X*X*X*X*X*X>X>X*X*X*X*X*X*X*X*X*X*X*X*X*X",
">X@X>X*X*X*X>X*X*X>X@X*X@X>X>X>X*X*X*X*X>X>X*X*X(.B.*X*X*X*X*X*X*X*X*X*X*X*X*X*X*X*X*X>X*X>X*X*X*X*X"
};
