/* XPM */
static char *ba4ede9439a64f8fe5594ba5654852d6XNueObjIxNbQJh1C[] = {
/* columns rows colors chars-per-pixel */
"50 50 214 2 ",
"   c #000202",
".  c #0F0607",
"X  c #3D0002",
"o  c #212526",
"O  c #511017",
"+  c #790615",
"@  c #77111E",
"#  c #7E101D",
"$  c #700C16",
"%  c #771723",
"&  c #6B1A21",
"*  c #6B383D",
"=  c #6D3038",
"-  c #543034",
";  c #6C3B41",
":  c #7F3C43",
">  c #494745",
",  c #555958",
"<  c #6D4648",
"1  c #6A5454",
"2  c #66635E",
"3  c #6B6C6C",
"4  c #696665",
"5  c #7A6863",
"6  c #737B7B",
"7  c #7B7B7B",
"8  c #777675",
"9  c #6D7C79",
"0  c #890A18",
"q  c #990718",
"w  c #8D101E",
"e  c #940612",
"r  c #B6000F",
"t  c #AB0A1D",
"y  c #A60517",
"u  c #B40A1E",
"i  c #BB0A1F",
"p  c #8D1523",
"a  c #831522",
"s  c #9C1425",
"d  c #951B29",
"f  c #9B1B2A",
"g  c #9C172A",
"h  c #930E21",
"j  c #AA0C20",
"k  c #A40E21",
"l  c #B40E24",
"z  c #BC0C22",
"x  c #A21122",
"c  c #AB1124",
"v  c #A3192B",
"b  c #AC1B2D",
"n  c #AB172D",
"m  c #BD1126",
"M  c #B61729",
"N  c #BA1E31",
"B  c #892935",
"V  c #932D3A",
"C  c #982735",
"Z  c #922F39",
"A  c #AE2636",
"S  c #C20015",
"D  c #D20009",
"F  c #E4000F",
"G  c #FD0015",
"H  c #FE001D",
"J  c #F50017",
"K  c #C40E24",
"L  c #CC0C25",
"P  c #CB142B",
"I  c #C41D2F",
"U  c #CB192E",
"Y  c #C51226",
"T  c #D01129",
"R  c #C51D32",
"E  c #CB1D33",
"W  c #D11C33",
"Q  c #D71D36",
"!  c #E70521",
"~  c #FE0121",
"^  c #FF0A26",
"/  c #F50C29",
"(  c #F30D27",
")  c #FF1230",
"_  c #C62134",
"`  c #CC2136",
"'  c #CD2239",
"]  c #D12236",
"[  c #D6243A",
"{  c #893E46",
"}  c #923A45",
"|  c #A93A44",
" . c #864750",
".. c #8C515A",
"X. c #88565B",
"o. c #944F57",
"O. c #AA4653",
"+. c #8F5B61",
"@. c #965E66",
"#. c #A95863",
"$. c #886167",
"%. c #9D626A",
"&. c #936668",
"*. c #877977",
"=. c #9B747B",
"-. c #9E797D",
";. c #957176",
":. c #967270",
">. c #A37379",
",. c #A66068",
"<. c #988879",
"1. c #9B7E80",
"2. c #A67D83",
"3. c #868585",
"4. c #8C8B8C",
"5. c #888A89",
"6. c #9A8385",
"7. c #92918F",
"8. c #949494",
"9. c #9C9C9D",
"0. c #969A96",
"q. c #938E92",
"w. c #A48385",
"e. c #A9868B",
"r. c #AA9A89",
"t. c #A9978A",
"y. c #AC8E92",
"u. c #A78D92",
"i. c #A69796",
"p. c #B29696",
"a. c #9EA09E",
"s. c #A1A19F",
"d. c #B9A897",
"f. c #BEA48B",
"g. c #9E9EA0",
"h. c #9CA0A1",
"j. c #A4A4A3",
"k. c #ACACAC",
"l. c #ACA5A6",
"z. c #B4A3A4",
"x. c #B6ABAC",
"c. c #B8A8AA",
"v. c #B1B1AE",
"b. c #B4ACB0",
"n. c #ACB6B6",
"m. c #B3B3B3",
"M. c #BBB4B4",
"N. c #B5B9B6",
"B. c #BCBCBC",
"V. c #B8BAB9",
"C. c #C88C8E",
"Z. c #DA9597",
"A. c #E4999E",
"S. c #C7AF95",
"D. c #CAB195",
"F. c #DBB99D",
"G. c #C39EA5",
"H. c #ED9DA0",
"J. c #DBBFA3",
"K. c #C2B8B9",
"L. c #CBB6A5",
"P. c #FFB9BB",
"I. c #F8ACAC",
"U. c #BCC0BF",
"Y. c #D5C4A6",
"T. c #E6CAAA",
"R. c #EECFB0",
"E. c #FEDFBF",
"W. c #F0D3B1",
"Q. c #EED4B3",
"!. c #FFE1BF",
"~. c #BABEC0",
"^. c #C1BFC0",
"/. c #BEC3C4",
"(. c #C4C5C4",
"). c #CBCBCB",
"_. c #C6C8C9",
"`. c #D5CFCF",
"'. c #CDCFD2",
"]. c #CDD7D5",
"[. c #D3D4D4",
"{. c #DADBDB",
"}. c #D5DADA",
"|. c #E3DDDF",
" X c #FEE5C6",
".X c #FFE8C5",
"XX c #FFEBCB",
"oX c #FFF1CE",
"OX c #E0E0DE",
"+X c #FFF0D1",
"@X c #DCE6E6",
"#X c #E3E4E3",
"$X c #E8E6E7",
"%X c #E6EDEC",
"&X c #ECECEC",
"*X c #E8E7E8",
"=X c #F1EEEE",
"-X c #E3F0EE",
";X c #EEF0EF",
":X c #F1F0EE",
">X c #EEEFF1",
",X c #F1EFF2",
"<X c #E6F4F4",
"1X c #EDF4F3",
"2X c #EDFEFD",
"3X c #EEF8F7",
"4X c #F4F4F4",
"5X c #F9F6F7",
"6X c #F6F8F6",
"7X c #FAF8F7",
"8X c #F7F7F9",
"9X c #F9F7F9",
"0X c #F5FEFD",
"qX c #FDFDFD",
/* pixels */
"qXqXqXqXqXqXqXqXqXqXqXqXqXqXqXqXqXqXqXqXqXqXqXqXqXqXqXqXqXqXqX9X9XqXqXqXqXqXqXqXqXqXqXqX9X6X9XqX9XqX",
"qXqXqXqXqXqXqXqXqXqXqXqXqXqXqXqXqXqXqXqXqXqXqXqXqX%XM.p.z.).2XqXqXqXqXqXqXqXqXqXqXqXqXqX4X9X9X9X6XqX",
"qXqXqXqXqXqXqXqXqXqXqXqXqXqXqXqXqXqXqXqX9XqXqXqXi.B t u t s } %.w.m.0XqXqXqXqXqXqXqXqX9X&X9XqX9X9XqX",
"qXqXqXqXqXqXqXqXqXqXqXqXqXqXqXqXqXqXqXqXqX0X].+.t E ' ' ' E U z z j { }.qXqXqXqXqXqXqX9X9XqXqXqX9X6X",
"qXqXqX9XqXqXqX9X9XqXqXqXqX9X9X6X9X9XqX0Xu.} s m ' R R _ R R R ' N _ T B ].6X6X6X6X6X4X6X9X9X9X9X9X6X",
"qXqXqXqXqXqXqXqXqXqX9X9XqX9XqX9X9X7X0X+.y W [ ] ` ' U P W ' R ` b @ b L X.0X9XqX9X9X4X&X6X6X6X9XqXqX",
"qX9XqXqXqXqXqXqXqX9X&X4XqXqXqX6X7XqXi.t [ m x s j j V } d l Y i P W @ N k N.qX9XqXqXqXqXqX9X6X6X4X4X",
"qX9XqXqXqXqXqX9X6X6X9X9XqX9XqXqXqX3XV L q &._.[.c.x.<X0X@X-.o.2. .j R & P { 0XqXqXqXqXqXqX6X9XqX6X&X",
"qXqX9XqXqXqXqX9X9XqX9X9X6XqXqX7XqXM.@ %.z.qXqXqXqXqXqXqXqXqXqXqXqXi.j 0 d c (.qX9X9XqXqX9XqXqXqX9X9X",
"9XqXqXqXqX9XqX6XqXqXqXqXqXqXqX9XqX7.}.qXqXqXqX7XqXqXqXqX9X9XqXqXqXqXi. .O S $.qXqX9X9X9XqXqXqXqX9X9X",
"qX9X6X&X&X4X6X4XqXqXqXqXqXqX9XqXk.{.qX7X9XqXqXqX1XqXqXqXqXqXqXqXqXqXqXqXq...u.k.&XqX6X4X6XqXqXqX9XqX",
"qX6X&X&X9X9X4X&X6X8XqXqXqX9XqXm.B.qXqXqXqXqX4Xj.4 3.4.j.k.V.j.qXqX9X9XqX{.~.qX&X9.#XqX6X6X6X6X9X6XqX",
"9X6X6X4X4X6X6X4X4X7X6X7X6X7X{.k.qX9XqXqX'.r.<.3.5X8.k.qX{.<.D.k.qXqXqXqXqXb.[.qX&Xj.qX6X4X6X9X9X4XqX",
"6X9XqXqX6X6X9XqX9X4XqX0XqXqX).OXqXqX&XV.t..Xd.qXN.  o , 0Xp.oXS.i.v.qXqXqX{.~.qXqXk.&X9X4X6X9X4X&X9X",
"qXqXqX9XqXqX9XqX9XqXc.O.M.%Xm.8.&X1X2 D..X XJ.B.*.< &.$.*.W.XXXX!.f.0.qXqXm.%XqXqXj.6X6X6X4X6X4X4XqX",
"qX9X9X9X6X4X6X&XqX^.r G t # :.T.r.5.i. XE.XXQ.1 Z.P.P.A.5 d.d.J.XXXX*.8.d.*.9XqXk._.6X6X6X4X&X4X6XqX",
"qX9X9XqXqXqXqX5XqX,.J ) S C  X+Xd.'.L.oX XS.l._.u.w.y.j.%XqX&Xm.r.T.<.9.Y.R.4.j.B.9X&X6X6X6X&X&X9XqX",
"qXqXqX9X4X4X6X6X0XO.J ( J | oXF.M.qX5 S.r.B.qXqXqXqX].qXqXqXqXqX&Xj.> #Xd.E.0.4X6X&X4X9X9X4X&X&X4X9X",
"qX6X&X&X$X&X5X6X0X#.G ( ^ i Y.d.&XqX9.U.1XqXqXqXqX{.3.U.qXqXqXqX7Xk.[.qXx.<.).qX&X7XqX6X4X6X6X9XqXqX",
"9X6X6X6X6X9XqXqXqXz.D H ~ G 0 0.qXqX{.m.9XqXqX4X/.N.qX/.7 V.(.m.l.#XqXqX&X5.9X&X9XqX9X4X6X9X9XqXqXqX",
"qX9X6XqXqX9XqXqXqX0X;.A A O.=.v.qX9XqX{.k.k.N.q.1 K.M.p.&./.#X&XqXqXqXqXqXv.$X9X6X4X&X&X4X9XqXqXqXqX",
"qX9X6X9X9XqXqXqXqX4XB.qX-XqXqXU.9XqXqXqXqX6XqX[.C.Z.Z.H.u.qXqXqXqXqXqX9X#Xk.4XqX9X6X4X6X6XqXqXqXqXqX",
"qX9X9XqXqXqXqXqXqXqXj.=XqXqX[.4 /.qXqXqXqXqXqX[.C.P.I.=.{.qXqXqXqXqXqXqX9.j.qX9X6XqXqXqXqXqXqXqXqXqX",
"qXqXqXqXqXqXqXqXqXqX;X7.w.=.C 0 l.qX9XqXqXqXqX}.*.C.1.[.qXqXqXqXqXqXqXqX)._.7X&X6XqXqXqXqXqXqXqXqXqX",
"qXqXqXqXqXqXqXqXqX9XqX@X0 K E K :.qXqXqXqXqXqX&X6 3 &XqXqXqXqXqXqXqX9XqX_.[.qX6X9XqXqXqXqXqXqXqXqXqX",
"qXqXqXqXqXqXqXqXqXqX7XqX-.z ' E d }.qXqX&XqXqXqXqX6XqXqXqXqXqXqX9XqXqXqX0.qXqXqXqXqXqXqXqXqXqXqXqXqX",
"qXqXqXqXqXqXqX9X4X4X&X&X].: z ] P * @XqX_.#XqX9XqXqXqX9XqXqX7XqXB.].-X=.a z.qX9XqXqXqXqXqXqXqXqXqXqX",
"qXqXqXqXqXqXqXqX6X6X;X$X*X}...j v 0 V z.b.5 qXqX9XqXqXqXqXqXqX0X .C & l Q e u.qX9XqXqXqXqXqXqXqXqXqX",
"qXqXqXqXqXqX9X4X,X*X$X#X*X4X1Xh.& ] U j c u X.<XqXqX0Xa.{.@X_...m Q n w V %.*.k.4XqXqXqXqXqXqXqXqXqX",
"qXqXqXqXqXqX9X9X6X&X&X&X&X$X6Xi.l ' R ' ` ' K B 6.G.@.h f C x Y ` _ m < <XqXqX|.k.qXqXqXqXqXqXqXqXqX",
"qXqXqXqXqXqXqXqX9X4X,X=X&X&X-XZ P R R R R R ] x + X j ] E E ' _ R ' u p.qXqX2XqXN.4XqXqXqXqXqXqXqXqX",
"qXqXqXqXqXqXqXqXqX8X5X4X&XqXB.k ' R R R E R R p f . v E R R R R R ` z 6.2Xe.| A &.qXqX9XqXqXqXqXqXqX",
"qXqXqXqXqX9X6XqXqXqXqX9X4XqX;.z ` R R R R E N p N p R R R I R E R R U C % F H ~ S _.qX6X9XqXqXqXqXqX",
"qXqXqXqXqXqX9XqXqXqX9X9XqX3X} U R R E R R E b g %   n E R R R R R R R R q ^ / ( J #.qX9XqXqXqXqXqXqX",
"qXqXqXqXqXqXqX9X9XqX9X9XqX].f W I E R R R E n s R n R R R R R E R I R _ s ! ! / H | 2X7XqXqXqXqXqXqX",
"qXqX9X9X9X9XqX4X4XqX9X6XqXK.c ` R R R R R E n v n a R E R R R R _ ` W T w q y H D 2.qX*X4XqXqXqXqXqX",
"qXqXqX9X9XqXqX9X9XqX6X4XqX*.y W W ' ` ` _ ' b b O   _ ] ' ' E U P u s } K.@Xx.Z >.@X>X4X6XqXqXqXqX9X",
"qXqXqXqX9XqX9X9XqXqXqXqXN.(.w.V s j u z z K t 0 u q l t j x f V o.e.(.0XqXqX4Xn.qX4X4X4X8XqX9X9X9XqX",
"qXqXqXqX9XqXqXqXqXqXqX7Xk.qXqX<X).c.y.w.>.>.>.;.>.e.y.z.M.).@X3XqXqXqXqXqXqXj.[.=X4X:X6X9XqX6X4X9XqX",
"qXqXqXqXqXqXqXqXqXqX6XqXN.).qXqXqXqXqXqXqXqXqXqXqXqXqXqXqXqXqXqXqXqXqXqX*Xs._.8X4X6X6X9X9X9X5XqX9XqX",
"qXqXqXqXqXqXqXqXqXqXqXqXqXk.m.[.#X4XqXqXqXqXqXqXqXqXqXqXqXqXqXqXqX*X).k.k.{.9X4X6XqXqXqX9X&X&XqXqXqX",
"qXqXqXqXqXqXqXqXqX9XqXqXqXqX#X(.N.k.8 $.-.p.c.M.M.K.K.x.c.y.;.X.1 a._.#XqXqX4X9XqXqXqXqX9X4X9XqXqXqX",
"qX9XqXqXqXqX9X9X6XqXqXqXqXqXqXqXqXqX#Xi.@.= + u y + e u q ; 6.u.`.qXqX6X6XqX9XqXqXqXqXqX9X&X6XqXqXqX",
"qX6X9X9X4X6X4X9X&XqX9X6XqX9XqXqX9X6XqXqXqX'.> * ; , 1 * - 6 qXqXqXqXqXqX9XqXqXqXqXqXqX9X9X6X9XqXqXqX",
"qXqXqX9X9XqX9X9XqXqXqX&X&X4X4X6XqX4X6X4XqX{., 6 6 9.5.9 , 4.qX9XqXqXqXqXqXqXqXqX9X9XqX9XqX9XqXqXqXqX",
"qXqXqXqXqXqX9X9X6X6X6X6X6X9X9X9X8X9X9XqX{.8 3 4.*.V.8.4.7 3 g.qXqXqXqXqXqXqXqXqXqXqX9XqXqXqXqXqXqXqX",
"9X9XqXqXqX9X9X9X6X4X&X4X9XqX4X9X4XqX5XqXN.4 9.8.8 3.8 5.8.4.3 qXqXqXqXqXqXqXqXqXqX9XqXqXqX9XqXqXqXqX",
"qXqXqXqX6X6X6X9X6XqX9X6XqX9X&XqXqXqXqXqX6X8.7 7 4.}.j.7 7 7 ).qXqXqXqXqXqXqXqXqXqX9XqXqXqXqXqXqXqXqX",
"qXqXqX9X4XqXqX9X9XqXqXqXqX4X6XqX9XqXqXqXqXqXqX9XqXqXqXqX9XqXqXqXqXqXqXqX9XqXqXqXqXqXqXqXqXqXqXqXqXqX",
"9X6X9XqXqXqX9X9XqX9X6XqX6X9X9X9XqXqXqXqX9X6X9XqXqXqXqXqXqXqXqXqXqXqXqXqXqXqXqXqXqXqXqX9XqX9XqXqXqXqX"
};
