/* XPM */
static char *_574c1b25e8440cfcfd73a4680a925b5mYRANncA6iiw8uQi[] = {
/* columns rows colors chars-per-pixel */
"50 50 194 2 ",
"   c #693227",
".  c #70382E",
"X  c #733D33",
"o  c #265A2C",
"O  c #295C2E",
"+  c #225728",
"@  c #2C5F32",
"#  c #2F6034",
"$  c #326236",
"%  c #35653A",
"&  c #39673D",
"*  c #3B693E",
"=  c #376839",
"-  c #78453B",
";  c #3E6B41",
":  c #7D584A",
">  c #7B4C41",
",  c #426E43",
"<  c #426F48",
"1  c #467046",
"2  c #497147",
"3  c #467149",
"4  c #4B744B",
"5  c #4F784F",
"6  c #51764D",
"7  c #52784F",
"8  c #4D7750",
"9  c #4E7852",
"0  c #547B53",
"q  c #597D56",
"w  c #567D58",
"e  c #5B7F59",
"r  c #7C6A56",
"t  c #627D5A",
"y  c #6B7C5C",
"u  c #7F7B63",
"i  c #747F62",
"p  c #83554B",
"a  c #895D54",
"s  c #8A6157",
"d  c #8A665B",
"f  c #81735F",
"g  c #92675F",
"h  c #946A63",
"j  c #95736A",
"k  c #9D7D75",
"l  c #8B7666",
"z  c #5D815B",
"x  c #5D8057",
"c  c #63845D",
"v  c #5D8360",
"b  c #658662",
"n  c #658963",
"m  c #6B8B65",
"M  c #6C8D6A",
"N  c #6A8664",
"B  c #748464",
"V  c #7A8165",
"C  c #728967",
"Z  c #728E6A",
"A  c #7B8B6E",
"S  c #7B8669",
"D  c #6E906C",
"F  c #74916D",
"G  c #6D8F71",
"H  c #7D8F70",
"J  c #6F9172",
"K  c #739373",
"L  c #7A9573",
"P  c #7D9876",
"I  c #769679",
"U  c #7D9A7B",
"Y  c #78987A",
"T  c #848B71",
"R  c #839175",
"E  c #829C7C",
"W  c #8A9B7E",
"Q  c #95907F",
"!  c #928675",
"~  c #A3837B",
"^  c #84A07F",
"/  c #7E9C81",
"(  c #839E82",
")  c #8A9B82",
"_  c #929B84",
"`  c #9B9887",
"'  c #A78981",
"]  c #A8968B",
"[  c #B79F99",
"{  c #BB9F9B",
"}  c #85A185",
"|  c #89A384",
" . c #87A28A",
".. c #8BA58B",
"X. c #8FA98E",
"o. c #92A58B",
"O. c #92A98D",
"+. c #8EA991",
"@. c #9BA791",
"#. c #95AC94",
"$. c #99AE95",
"%. c #96AE99",
"&. c #9BAF99",
"*. c #9BB096",
"=. c #9CB29B",
"-. c #97B094",
";. c #B3A39A",
":. c #B8A09B",
">. c #A1B49D",
",. c #BDA6A1",
"<. c #BEACA7",
"1. c #A3B6A2",
"2. c #A5BAA4",
"3. c #AABBA5",
"4. c #A6BBA9",
"5. c #ACBDAA",
"6. c #ACB5A2",
"7. c #B4B9A9",
"8. c #BDBEB0",
"9. c #C1ADAA",
"0. c #C0A8A3",
"q. c #C3B4AD",
"w. c #CAB5B2",
"e. c #CDBAB7",
"r. c #D1BFBC",
"t. c #AEC1AE",
"y. c #B2C2AE",
"u. c #AFC2B0",
"i. c #B4C4B3",
"p. c #B9C6B5",
"a. c #B9C8B6",
"s. c #B6C7B8",
"d. c #BDCABC",
"f. c #B7C7B8",
"g. c #C6C5BB",
"h. c #C1CDBE",
"j. c #CFC0BC",
"k. c #D1C2BF",
"l. c #BECCC0",
"z. c #C3CDC1",
"x. c #C9CEC3",
"c. c #D4C4C2",
"v. c #D5CAC6",
"b. c #C5D1C4",
"n. c #C9D3C7",
"m. c #C7D5C8",
"M. c #CBD6CA",
"N. c #CED9CD",
"B. c #D4D2CB",
"V. c #DBD4CF",
"C. c #D1DACE",
"Z. c #CFDBD1",
"A. c #DCD5D2",
"S. c #D3DCD3",
"D. c #D9DED6",
"F. c #DADDD9",
"G. c #D1D7D1",
"H. c #E0D0CE",
"J. c #E5DBDA",
"K. c #E5D8D8",
"L. c #D6E0D7",
"P. c #D9E0D6",
"I. c #D7E2D8",
"U. c #DCE3DC",
"Y. c #DDE9DF",
"T. c #E2E4DE",
"R. c #E8E1DF",
"E. c #E1DFE1",
"W. c #DFEAE1",
"Q. c #E3E5E3",
"!. c #ECE4E3",
"~. c #E4EAE4",
"^. c #E9EAE6",
"/. c #EBEDEA",
"(. c #E7EDE9",
"). c #F2EDED",
"_. c #EEF1ED",
"`. c #EDF1ED",
"'. c #E7F2E9",
"]. c #F1F2EF",
"[. c #ECEEF0",
"{. c #F1EFF1",
"}. c #EEF4F0",
"|. c #F2F5F2",
" X c #F4F4F3",
".X c #FAF5F6",
"XX c #F5F8F6",
"oX c #F8F8F7",
"OX c #FAF6F8",
"+X c #F7F9F9",
"@X c white",
"#X c #FEFEFE",
"$X c #FDFDFD",
"%X c #FEFEFE",
/* pixels */
"@Xi.N.@X@XU.@Xd.i.@X|.@X@X1.|.@XU.$X>.@X@X@X@X_.P.@X@X@X|.=.@X_.@XM.i.@X@X@X@XM.|.+X X@Xa.h.@XD./.@X",
"@Xm #.@X@X>.C.z.5.@X#.N._., M.@X..h.2 U.3./.@Xi.E @X@X@XN.0 ~.>.@X} D @Xa.|.@Xq b._.1.@Xm ( @Xn $.@X",
"G.4 b |.|.L L oX@X~.* M N.A a.~.c #.g.M.4 b.@X0 o i.@X..b./.S.m d.Z t M., %.@X6.P./.m M.P ) M.4 M |.",
"|.v.B.@X3.% $ a.@Xi.0 M _.@X@X>.n F  X5.# ..b.0 q ..`.6 2.@X| % z V.!.4.4 Y $X@X@Xh.c O.OX@X2., x U.",
"@X@X@XS.z , * K oXK * % i.@Xy.0 4 4 P 3._ 5.#.q 0 | |.D.^.b.1 % # 4.@XL ; 0 Q.+XC.m 0 0 i.~.q 0 , I ",
"@X$X@X3.b F m a.M.b B c M _.b., # @ w +X@X$Xw & ; $ N.@X~.K q F c #.d.1 z = / /.1., $ # M D.S.] 8.N.",
"@X@XT.L 0 4 4 } ~.XX:.k.$X~.n @ ; ; @ U @X#.4 m m 4 z _.S.Z m z e #.S.M.~ 8.S._.n @ * % & m.@X!..X$X",
"$X@X=.@ & & @ 3 U.@XXX@XS.M 0 q m n c J a.T.I.;.j U.h.|.O.# ; $ % 4 ~.@X!.@X|.v , 4 c n 4 4 N.@Xi.U.",
"@Xb.3 0 z b 4 & K |.$XoXXXi.F F Z F m C.@X@X~.!.k.@X@XU.0 , 0 0 * $ i.@X@X@X~.a.L Z F F Z n.|.|.0 b.",
"+X#.b F Z V F M 6 i.@X@Xb.n z b 3 c z m /._.4 |.m.#.+XJ 7 n m C c 0 3 S.@X@X@XO.z M e z c O.@Xt.% ( ",
"@XU.S.S.;.- B.S.S.~.@XS.E 3 , & # * * 0 >.S.@.U.K , G.d.5.i.` d a.y.1.P.@X^.$.0 4 1 $ * 4 0 3.M.` 5.",
"+X$XU.$Xc.k /. X@X+X@X+XM @ % * , $ % % u.@X@X~.z q n.@X$X@X{ s @X@X@X@X+X].} % % % & % $ 4 d.@X X@X",
"+X/.z z.+X+X$XN.d.@X@XY @ 0 4 e b , * % # b.@X..* * I |...XX X).|.i.@X+X@X2.$ ; , 0 q % & O G $XXX+X",
"@Xb., =.@X/.@Xh.L _.( ; m M m M F M z b 4 ; 5.2._ T *.1.* a.@X@XG.n ~.@X#.@ c n b M M c 0 0 @ n Q.+X",
"@X} = M +X@XP.F 0 >.z.L Z F M V r Z Z m M n 4.@XJ.c.@XX., =.@X_.K 2 | S. .F M M n B i M n M c e 4.@X",
"Q.F y e d._.G @ o I S.3.S.p.W.] - 9.Y.a.S.3.S.d.U.@XL.0 4 4 `.U.% @ & P.z.E 2.o.3.j > 6.1.#.=.( S.@X",
"+X+Xw.].`.} 1 0 0 4 l.@XXX@X@Xk   ,.@XXX+X@X|.0 a.@X~.N.] N.P./ 1 z 1 K S./.F.Q..Xj X c.@X|.XXQ.N.@X",
"@X@X@X@X/...Z F M P F.@X#.d.@Xq.' A.@XXXXX@Xi.% ( @X@X@XOX@XXXE Z F Z 5.@Xa.( $X/.k p v.$X/./.d.0 U.",
"@XXX^./.i.4 3 * , , >.@XK &.@Xi.}.@XoX@Xn.oXb.` i.a./.|.U.@Xd.q 7 , 4 m T.#.N S.i.+X X@Xi.G.@X#.1 d.",
"+X/.|.@X#.$ ; 4 & o / @X X+X/.b =.+X@X~.1 t.@X{.@Xt.y.M...@X#.@ % * # % d.oX!.#.4 _.@X@X=.$.|.0 , m ",
"@XU P.f., c c D x 7 * 1.@X@X&.O , C.@Xi.2 X.+X}.+Xo.F /.@Xb.4 0 z b 4 * 0 S.+XK 4 n.OXU.L c a.d.] d.",
"`.N h.a.U | W r W ^ L } @X~.z 4 ; } +XK * 0 Q._.3.4 2 *.+X..c F Z V Z m 4 +.b.4 , M XXd.; O ..@XoX@X",
"@X X+X|.].$XJ.. r.$X|._.@XM.m F M 3.n.F B b 1.Q.z @ @ 0  XQ.N.S.q.- g.S.N.P./.g.;.L. X( $ * 3 Z.@X$X",
"@X@X@X@X@X@X).[ R.@X@X@X@X$.4 , , b S.$Xw.)./. .$ 4 0 % K +X@X@Xv.s J.@X@X+X|.{.oX@X%.0 c Z q ( |.@X",
"@X@XoX@X@X@X@X@X@Xd.2.@X/.z % 4 & $ 5.@X|.|.d.M b F F M *.P.@Xi.U.+XXX@XC./.+XXX+X@Xn.L Z m M h.@X@X",
"@X@XU S.@X@X@Xi.@X$.K @X} 4 c M c 4 4 l.Q.XXU.P M m c c 5.@X+X0 4.@X|.@Xa.y.@X+X@XN.b 4 3 ; 4 c U.@X",
"@XU., 1.@X@X@XE i. XT.Q.1.>.=.d ` >.o.5.Q.G.P 1 0 * * 4 b ~.b.= M Q.|./.E L oX@X@X=.% % ; % @ 8 ~.@X",
"@X=.= M $X|.y.z b U.XX^.Q./.{.h 9.[.E.F.Q.d.8 # % & % @ b ~.i.A E i./.K @ , ~.@X%., 0 q b 4 , $ +.@X",
"XX..i m S._.e @ @ 1. XQ.G.U ~.Q.OX5.S. X/.n * 4 6 c , * @ I @X.X$XF.I % 3 $ X.S.x c m n C m c z , 4.",
"@X@XH.oX@X#.$ , , 3 n.$X1., b.XXU.M 3.|.I 1 M n m F m z c % Y $X+X#.z n F n #.~.2.3.2.6.: ] 4.2.$.b.",
"@X@X@X@X_...n Z F c i.|.m = #.@X#.$ 4 N.i.F P F H r T L F Z U _.@X>.m M c c 3.@X+X@X@XJ.  0.@X_.@X@X",
"@X4.S.@XP.L b b c m n.Q.( T #.U.v * % ..C.P.D.L.<.X 0.}.U.~.C.+Xp.4 , * % , z P.@X+X@X^.,.J.@XL N.@X",
"@Xb 3.@XM $ ; % * , } oXOXJ.@Xd.c F m #.+X@X$X+X<.X ,.@X|.@X@X$X..$ % 1 * @ ; L.@X+X+X@X@X@Xb.@ K @X",
"@X!.oX=.; ; 4 3 % o  .@X+X@X+X>.q 4 0 U ^.+X@X2.a.!.].@Xn.y.@X%.* z z m z 4 ; 8 S.@X@Xb.|.@X*.q L _.",
"@X@X=.* b c M m 0 0 * 4.@X+X|.z # * % $ h.@X|.e } @X@X@X5.L Q./ b Z m B B m m 6 ..@X+XP S.+X0 * * d.",
"@XXX1.L P P u u U L M U ~.@X+.1 q n 0 ; w Q.z., v |.@XN.c 4 y.C.h.b.N.a k S.d.d.d.@XN.c >.i.0 B q n ",
"$X@X~.T.~._.g d |.~.Q.D.h.M.#.L ^ u R E b 4.=.t t a.@X$.# o Y @X@X@XoXp ~ @X$X@X@XU.F b c 5.`.' B.~.",
"@X+X@X_.b.@Xk ~ @X@X@X@XN.L |.|.|.p ,.$X|.|.$XV.!.@Xd.9 , 0 3 d.U.*.XXA.B./././.Q.>.0 & % z Q.).+X@X",
"@X@X@X5.m _.@X@X$X$X@XXX| 7 5.@X@Xk.T.@Xd.+X@X+X+X@XZ.( Z F Z P.i.q |.(.K Q.XX|.$XG.3 @ % # 5.@XXX+X",
"@X@X X0 o #.@X@X@X@X|.1.* # n +XXX~.@XP.z p.$X/.Q./.3.q z 4 4 $./.A.+X4.$ 5.$XQ.1.4 % 0 x 3 3 b.@X@X",
"@X@X5.4 7 z U.@X+X@XoXn # & * U.M.b @XX.+ 0 /.|.XX5.4 $ * % @ m XX@X@XU 2 #.@XG.#.m M F F m 1./.S.P.",
"@X@X$.n m E ~.@X@X_./ * x m 0 ..U.x.P.b z 0 i.@Xs.; 1 0 z , % < U.@Xz., 4 , S.@X#.n M 0 F b E @XI ..",
"@X/.q & & * y.@XXX+X=.Z F Z F U.@X@Xn.n c b M.U.0 x m n Z c z 1 n /.N.7.! y.N.3.6 0 , % 4 0 6 1.x.x.",
"@X1.* 5 0 $ n /.|.h.z z 4 4 0 } _.@X..$ * @ K _.*.#.O._ : @.O.o.$.3.h.@XJ.@X@X*.* % % % % % , i.@X@X",
"~.M M A S F 6 #.@XU # & % % # m ].l.4 7 b 4 * 3.+X/.+Xe.  K.@X@XXXe 1 ~.@X@Xi.* % ; 4 0 $ & o  .@X@X",
"+XT.`.<.a /.U.].i.; , 4 z ; % % l.b.| #.f o...X.@XN.X.J.:.^.@X@Xb.0 4 5.@Xt.O q c c m M q 4 4 o ..@X",
"+X@X@X!.e.@X@Xf., c m n F b e 0 * s.@X$Xh J.@X$X@X$., ~.@X@X@X@X>.0 q y.U.I m m M n C B M b M z 0 3.",
"@XN.2.@X@XG._.M.U E P R r R L L m 3.+X/.+X$X@X@XXXn ; i.@Xd.(.+X0 * % 4 |.a.U =.E -.l : @...E | E N.",
"@X>.m +X|.b b.oXP./.`.c.X 9.`.^.P. Xt.( @X@X@X@Xl.e q K XXz 3.i.q Z C 0 #./.U._.].@Xj - H.@X|.@X(.|.",
"+XQ.T.@X|.) d.@X@X$X@Xc.- w.@X$X@X@X>.E +X+X+X@XoXJ.q.XX/._ 7./.'.:.] `.P.@X5.U.@XXXg - j.@X@X@X@X@X"
};
